# Blender v3.2.0 OBJ File: ''
# www.blender.org
mtllib 30MMMk3.mtl
o 30MMMK2_Fusion001.004
v -1.345293 1.564065 -0.044658
v -1.345293 3.331087 -0.040731
v -1.345293 3.331087 -0.044658
v -1.345293 1.564065 -0.040732
v 0.029057 1.564065 -0.040732
v 1.403408 1.564065 -0.040732
v 1.403408 3.331087 -0.040731
v 1.403408 3.331087 -0.044658
v 0.029057 1.564065 -0.044658
v 1.403408 1.564065 -0.044658
v 0.027441 1.564065 -0.041580
v 0.027755 1.564065 -0.041225
v 0.028145 1.564065 -0.040957
v 0.027222 1.564065 -0.041999
v 0.028587 1.564065 -0.040789
v 0.027108 1.564065 -0.042458
v 0.027108 1.564065 -0.042932
v 0.027222 1.564065 -0.043391
v 0.027441 1.564065 -0.043810
v 0.028587 1.564065 -0.044602
v 0.028145 1.564065 -0.044433
v 0.027755 1.564065 -0.044165
v 0.029494 1.564065 -0.040781
v 0.029909 1.564065 -0.040926
v 0.030281 1.564065 -0.041160
v 0.030592 1.564065 -0.041471
v 0.030826 1.564065 -0.041843
v 0.030972 1.564065 -0.042258
v 0.031021 1.564065 -0.042695
v 0.030972 1.564065 -0.043132
v 0.030826 1.564065 -0.043547
v 0.030592 1.564065 -0.043919
v 0.029494 1.564065 -0.044609
v 0.029909 1.564065 -0.044464
v 0.030281 1.564065 -0.044230
v 0.033791 1.526761 -0.003714
v 0.042981 1.526761 -0.005980
v 0.051364 1.526761 -0.010379
v 0.015133 1.526761 -0.079411
v 0.006751 1.526761 -0.075011
v 0.058449 1.526761 -0.016656
v 0.063827 1.526761 -0.024447
v -0.000335 1.526761 -0.068734
v 0.067183 1.526761 -0.033298
v 0.068324 1.526761 -0.042695
v -0.005712 1.526761 -0.060943
v 0.067183 1.526761 -0.052093
v -0.009069 1.526761 -0.052093
v -0.010210 1.526761 -0.042695
v 0.063827 1.526761 -0.060943
v -0.009069 1.526761 -0.033298
v 0.058449 1.526761 -0.068734
v -0.005712 1.526761 -0.024447
v 0.051364 1.526761 -0.075011
v -0.000335 1.526761 -0.016656
v 0.042981 1.526761 -0.079411
v 0.006751 1.526761 -0.010379
v 0.033791 1.526761 -0.081676
v 0.015133 1.526761 -0.005980
v 0.024324 1.526761 -0.081676
v 0.024324 1.526761 -0.003714
v 0.015133 0.013012 -0.005980
v 0.024324 0.013012 -0.003714
v 0.033791 0.013012 -0.003714
v 0.042981 0.013012 -0.005980
v 0.068324 0.013012 -0.042695
v 0.067183 0.013012 -0.052093
v 0.051364 0.013012 -0.010379
v 0.063827 0.013012 -0.060944
v 0.058449 0.013012 -0.016657
v 0.058449 0.013012 -0.068734
v 0.063827 0.013012 -0.024447
v 0.067183 0.013012 -0.033298
v 0.051364 0.013012 -0.075011
v 0.042981 0.013012 -0.079411
v 0.033791 0.013012 -0.081676
v 0.024324 0.013012 -0.081676
v 0.015133 0.013012 -0.079411
v 0.006751 0.013012 -0.075011
v -0.000335 0.013012 -0.068734
v -0.005712 0.013012 -0.060944
v -0.009069 0.013012 -0.052093
v -0.010210 0.013012 -0.042695
v -0.009069 0.013012 -0.033298
v -0.005712 0.013012 -0.024447
v -0.000335 0.013012 -0.016657
v 0.006751 0.013012 -0.010379
v 0.020165 0.021275 -0.629365
v 0.135889 -0.012550 -0.617967
v 0.020165 -0.012550 -0.629365
v 0.135889 0.021275 -0.617967
v 0.247165 -0.012550 -0.584212
v 0.247165 0.021275 -0.584212
v 0.349718 -0.012550 -0.529396
v 0.349718 0.021275 -0.529396
v 0.439607 -0.012550 -0.455627
v 0.439607 0.021275 -0.455627
v 0.513376 -0.012550 -0.365738
v 0.513376 0.021275 -0.365738
v 0.568192 -0.012550 -0.263185
v 0.568192 0.021275 -0.263185
v 0.601947 -0.012550 -0.151909
v 0.601947 0.021275 -0.151909
v 0.613345 -0.012550 -0.036185
v 0.613345 0.021275 -0.036185
v 0.601947 -0.012550 0.079539
v 0.601947 0.021275 0.079539
v 0.568192 -0.012550 0.190815
v 0.568192 0.021275 0.190815
v 0.513376 -0.012550 0.293368
v 0.513376 0.021275 0.293368
v 0.439607 -0.012550 0.383257
v 0.439607 0.021275 0.383257
v 0.349718 -0.012550 0.457026
v 0.349718 0.021275 0.457026
v 0.247165 -0.012550 0.511842
v 0.247165 0.021275 0.511842
v 0.135889 -0.012550 0.545597
v 0.135889 0.021275 0.545597
v 0.020165 -0.012550 0.556995
v 0.020165 0.021275 0.556995
v -0.095559 -0.012550 0.545597
v -0.095559 0.021275 0.545597
v -0.206835 -0.012550 0.511842
v -0.206835 0.021275 0.511842
v -0.309388 -0.012550 0.457026
v -0.309388 0.021275 0.457026
v -0.399277 -0.012550 0.383257
v -0.399277 0.021275 0.383257
v -0.473046 -0.012550 0.293368
v -0.473046 0.021275 0.293368
v -0.527862 -0.012550 0.190815
v -0.527862 0.021275 0.190815
v -0.561617 -0.012550 0.079539
v -0.561617 0.021275 0.079539
v -0.573015 -0.012550 -0.036185
v -0.573015 0.021275 -0.036185
v -0.561617 -0.012550 -0.151909
v -0.561617 0.021275 -0.151909
v -0.527862 -0.012550 -0.263185
v -0.527862 0.021275 -0.263185
v -0.473046 -0.012550 -0.365738
v -0.473046 0.021275 -0.365738
v -0.399277 -0.012550 -0.455627
v -0.399277 0.021275 -0.455627
v -0.309388 -0.012550 -0.529396
v -0.309388 0.021275 -0.529396
v -0.206835 -0.012550 -0.584212
v -0.206835 0.021275 -0.584212
v -0.095559 -0.012550 -0.617967
v -0.095559 0.021275 -0.617967
vt 0.929609 0.899397
vt 0.928610 0.449698
vt 0.929609 0.449698
vt 0.928610 0.899397
vt 0.000000 0.349766
vt 0.449698 0.699531
vt 0.000000 0.699531
vt 0.000000 0.000000
vt 0.449698 0.000000
vt 0.927611 0.000000
vt 0.928610 0.699531
vt 0.927611 0.699531
vt 0.928610 0.000000
vt 0.899397 0.000000
vt 0.449698 0.349766
vt 0.449698 0.000000
vt 0.899397 0.699531
vt 0.449698 0.699531
vt 0.929609 0.000000
vt 0.929825 0.349354
vt 0.929735 0.349434
vt 0.929667 0.349533
vt 0.929932 0.349298
vt 0.929624 0.349646
vt 0.930049 0.349270
vt 0.929609 0.349766
vt 0.930609 0.000000
vt 0.930169 0.349270
vt 0.930286 0.349298
vt 0.930393 0.349354
vt 0.930609 0.349766
vt 0.930594 0.349646
vt 0.930551 0.349533
vt 0.930483 0.349434
vt 0.929622 0.349877
vt 0.929609 0.699531
vt 0.929659 0.349982
vt 0.929718 0.350077
vt 0.929798 0.350156
vt 0.929892 0.350216
vt 0.929998 0.350253
vt 0.930109 0.350265
vt 0.930220 0.350253
vt 0.930609 0.699531
vt 0.930326 0.350216
vt 0.930421 0.350156
vt 0.930596 0.349877
vt 0.930559 0.349982
vt 0.930500 0.350077
vt 0.928610 0.449698
vt 0.929609 0.000000
vt 0.929609 0.449698
vt 0.928610 0.000000
vt 0.663413 0.699856
vt 0.663525 0.699854
vt 0.663525 0.709352
vt 0.663303 0.699833
vt 0.661132 0.709077
vt 0.658873 0.708237
vt 0.644320 0.709190
vt 0.644251 0.709289
vt 0.636504 0.703795
vt 0.638113 0.702002
vt 0.663202 0.699786
vt 0.656882 0.706881
vt 0.663113 0.699717
vt 0.655273 0.705088
vt 0.644411 0.709111
vt 0.640104 0.700646
vt 0.663042 0.699631
vt 0.654140 0.702962
vt 0.921095 0.000000
vt 0.923376 0.009494
vt 0.920984 0.009494
vt 0.662992 0.699531
vt 0.920984 0.000000
vt 0.644518 0.709056
vt 0.642362 0.699806
vt 0.644635 0.709028
vt 0.920873 0.000000
vt 0.918592 0.009494
vt 0.644756 0.699531
vt 0.921044 0.394735
vt 0.923376 0.404229
vt 0.920984 0.404229
vt 0.672427 0.709252
vt 0.663525 0.705921
vt 0.664658 0.703795
vt 0.672377 0.709352
vt 0.644756 0.709028
vt 0.920924 0.394735
vt 0.918592 0.404229
vt 0.672498 0.709166
vt 0.666267 0.702002
vt 0.673030 0.709028
vt 0.672909 0.709028
vt 0.672970 0.699531
vt 0.654020 0.699905
vt 0.654140 0.709401
vt 0.651747 0.709126
vt 0.672587 0.709097
vt 0.668258 0.700646
vt 0.654140 0.699904
vt 0.653903 0.699877
vt 0.649489 0.708286
vt 0.672688 0.709050
vt 0.670516 0.699806
vt 0.653796 0.699821
vt 0.647498 0.706930
vt 0.672798 0.709027
vt 0.672909 0.699531
vt 0.653705 0.699742
vt 0.645889 0.705137
vt 0.906877 0.394735
vt 0.908082 0.404229
vt 0.905673 0.404229
vt 0.653636 0.699643
vt 0.644756 0.703011
vt 0.672909 0.709028
vt 0.906877 0.000000
vt 0.908082 0.009494
vt 0.905673 0.009494
vt 0.653592 0.699531
vt 0.644208 0.709401
vt 0.635371 0.705921
vt 0.910421 0.009494
vt 0.912554 0.009494
vt 0.910421 0.394735
vt 0.908082 0.394735
vt 0.905672 0.394735
vt 0.903333 0.394735
vt 0.920984 0.394735
vt 0.918592 0.394735
vt 0.903333 0.009494
vt 0.901200 0.394735
vt 0.916340 0.009494
vt 0.916340 0.394735
vt 0.901200 0.009494
vt 0.899397 0.009494
vt 0.899397 0.394735
vt 0.914357 0.009494
vt 0.914357 0.394735
vt 0.927611 0.009494
vt 0.927611 0.394735
vt 0.925628 0.394735
vt 0.925628 0.009494
vt 0.923376 0.394735
vt 0.912554 0.404229
vt 0.914357 0.789471
vt 0.912554 0.789471
vt 0.914357 0.404229
vt 0.910421 0.404229
vt 0.910421 0.789471
vt 0.908082 0.789471
vt 0.905672 0.789471
vt 0.903333 0.789471
vt 0.903333 0.404229
vt 0.901200 0.404229
vt 0.901200 0.789471
vt 0.899397 0.404229
vt 0.899397 0.789471
vt 0.927611 0.404229
vt 0.927611 0.789471
vt 0.925628 0.789471
vt 0.925628 0.404229
vt 0.923376 0.789471
vt 0.920984 0.789471
vt 0.918592 0.789471
vt 0.916340 0.789471
vt 0.916340 0.404229
vt 0.914357 0.404229
vt 0.914357 0.789471
vt 0.914357 0.009494
vt 0.914357 0.394735
vt 0.912554 0.394735
vt 0.635371 0.806277
vt 0.626763 0.835728
vt 0.626763 0.806277
vt 0.635371 0.835728
vt 0.626763 0.864047
vt 0.635371 0.864047
vt 0.626763 0.890147
vt 0.635371 0.890147
vt 0.626763 0.913023
vt 0.618154 0.699531
vt 0.609546 0.722407
vt 0.609546 0.699531
vt 0.618154 0.722407
vt 0.609546 0.748507
vt 0.618154 0.748507
vt 0.609546 0.776826
vt 0.618154 0.776826
vt 0.609546 0.806277
vt 0.618154 0.806277
vt 0.609546 0.835728
vt 0.618154 0.835728
vt 0.609546 0.864047
vt 0.618154 0.864047
vt 0.609546 0.890146
vt 0.618154 0.890146
vt 0.609546 0.913023
vt 0.626763 0.699531
vt 0.618154 0.722407
vt 0.618154 0.699531
vt 0.626763 0.722407
vt 0.618154 0.748506
vt 0.626763 0.748506
vt 0.618154 0.776826
vt 0.626763 0.776826
vt 0.618154 0.806277
vt 0.626763 0.806277
vt 0.618154 0.835728
vt 0.626763 0.835728
vt 0.618154 0.864047
vt 0.626763 0.864047
vt 0.618154 0.890146
vt 0.626763 0.890146
vt 0.618154 0.913023
vt 0.600938 0.913023
vt 0.609546 0.890146
vt 0.609546 0.913023
vt 0.600938 0.890146
vt 0.609546 0.864047
vt 0.600938 0.864047
vt 0.609546 0.835728
vt 0.600938 0.835728
vt 0.609546 0.806277
vt 0.600938 0.806277
vt 0.609546 0.776826
vt 0.600938 0.776826
vt 0.609546 0.748507
vt 0.600938 0.748507
vt 0.609546 0.722407
vt 0.600938 0.722407
vt 0.609546 0.699531
vt 0.635371 0.699531
vt 0.626763 0.722407
vt 0.626763 0.699531
vt 0.635371 0.722407
vt 0.626763 0.748507
vt 0.294696 0.805944
vt 0.194056 0.994227
vt 0.005773 0.893587
vt 0.635371 0.748507
vt 0.626763 0.776826
vt 0.635371 0.776826
vt 0.600938 0.834969
vt 0.465500 1.000000
vt 0.300469 0.864562
vt 0.635371 0.913023
vt 0.618154 0.913023
vt 0.626763 0.913023
vt 0.600938 0.699531
vt 0.000000 0.864562
vt 0.000000 0.834968
vt 0.005774 0.805943
vt 0.017098 0.778602
vt 0.033540 0.753996
vt 0.054466 0.733070
vt 0.079072 0.716629
vt 0.106413 0.705304
vt 0.135438 0.699531
vt 0.165032 0.699531
vt 0.194057 0.705305
vt 0.221397 0.716629
vt 0.246004 0.733071
vt 0.266930 0.753997
vt 0.283371 0.778603
vt 0.300469 0.834969
vt 0.283370 0.920928
vt 0.300469 0.864563
vt 0.294695 0.893588
vt 0.266929 0.945534
vt 0.246003 0.966460
vt 0.221397 0.982902
vt 0.165031 1.000000
vt 0.079072 0.982901
vt 0.135437 1.000000
vt 0.106412 0.994226
vt 0.054465 0.966460
vt 0.033539 0.945534
vt 0.017098 0.920928
vt 0.300469 0.834968
vt 0.306242 0.805943
vt 0.317567 0.778602
vt 0.334009 0.753996
vt 0.354935 0.733070
vt 0.379541 0.716629
vt 0.406882 0.705304
vt 0.435907 0.699531
vt 0.465500 0.699531
vt 0.494525 0.705305
vt 0.521866 0.716630
vt 0.546472 0.733071
vt 0.567398 0.753997
vt 0.583840 0.778603
vt 0.595165 0.805944
vt 0.600938 0.864563
vt 0.595164 0.893588
vt 0.583839 0.920928
vt 0.567398 0.945534
vt 0.546472 0.966460
vt 0.521866 0.982902
vt 0.494525 0.994227
vt 0.435906 1.000000
vt 0.406881 0.994226
vt 0.379540 0.982901
vt 0.354934 0.966460
vt 0.334008 0.945534
vt 0.317567 0.920928
vt 0.306242 0.893587
vn -1.0000 0.0000 0.0000
vn 0.0000 -0.0000 1.0000
vn 0.0000 1.0000 0.0000
vn 0.0000 0.0000 -1.0000
vn 0.0000 -1.0000 0.0000
vn 0.0000 -1.0000 -0.0006
vn -0.0000 -1.0000 0.0013
vn 0.0000 -1.0000 0.0002
vn -0.0000 -1.0000 0.0001
vn -0.0000 -1.0000 -0.0001
vn 0.0000 -1.0000 0.0006
vn -0.0000 -1.0000 0.0036
vn -0.0000 -1.0000 0.0037
vn -0.0000 -1.0000 -0.0010
vn -0.0000 -1.0000 -0.0011
vn 0.0000 -1.0000 -0.0003
vn -0.0000 -1.0000 -0.0012
vn 0.0000 -1.0000 -0.0007
vn 0.0000 -1.0000 0.0010
vn 0.0000 -1.0000 0.0005
vn 0.0000 -1.0000 -0.0005
vn 0.0000 -1.0000 0.0003
vn -0.0000 -1.0000 0.0011
vn -0.0000 -1.0000 0.0012
vn 0.0000 -1.0000 0.0007
vn 1.0000 -0.0000 0.0000
vn 0.0789 0.7072 0.7026
vn 0.2338 0.7070 0.6674
vn 0.3299 0.7044 0.6285
vn -0.2506 0.7073 -0.6610
vn -0.2507 0.7073 -0.6610
vn -0.2506 0.7073 -0.6611
vn -0.3299 0.7044 -0.6285
vn 0.4707 0.7044 0.5313
vn 0.3765 0.7069 0.5989
vn 0.5841 0.7044 0.4032
vn -0.4707 0.7044 -0.5313
vn 0.5004 0.7066 0.5004
vn 0.5995 0.7062 0.3767
vn 0.5997 0.7062 0.3763
vn 0.6636 0.7044 0.2517
vn 0.7046 0.7046 0.0842
vn 0.7046 0.7045 0.0855
vn 0.7048 0.7048 0.0812
vn -0.4013 0.7073 -0.5820
vn 0.6689 0.7055 0.2340
vn 0.6689 0.7055 0.2342
vn 0.7048 0.7049 0.0798
vn -0.5842 0.7044 -0.4032
vn -0.5294 0.7071 -0.4688
vn -0.6260 0.7072 -0.3285
vn 0.7046 0.7046 -0.0842
vn 0.7048 0.7047 -0.0813
vn 0.7046 0.7045 -0.0855
vn -0.6637 0.7044 -0.2517
vn 0.7048 0.7048 -0.0799
vn -0.7046 0.7044 -0.0856
vn 0.6636 0.7044 -0.2517
vn 0.6689 0.7055 -0.2340
vn 0.6689 0.7055 -0.2342
vn -0.6865 0.7073 -0.1683
vn -0.6865 0.7073 -0.1686
vn -0.7046 0.7044 0.0856
vn 0.5841 0.7044 -0.4032
vn -0.7070 0.7072 0.0000
vn 0.5997 0.7062 -0.3763
vn 0.5995 0.7062 -0.3767
vn -0.6637 0.7044 0.2517
vn 0.4707 0.7044 -0.5313
vn -0.6865 0.7073 0.1683
vn 0.5004 0.7066 -0.5004
vn -0.5842 0.7044 0.4032
vn 0.3299 0.7044 -0.6285
vn -0.6260 0.7072 0.3285
vn 0.3765 0.7069 -0.5989
vn -0.4707 0.7044 0.5313
vn 0.1699 0.7044 -0.6892
vn -0.5294 0.7071 0.4688
vn -0.3299 0.7044 0.6285
vn -0.4013 0.7073 0.5820
vn 0.2338 0.7070 -0.6674
vn 0.0000 0.7044 -0.7098
vn -0.1699 0.7044 0.6892
vn -0.2507 0.7073 0.6610
vn 0.0789 0.7072 -0.7026
vn 0.0000 0.7044 0.7098
vn -0.0850 0.7072 0.7018
vn -0.0850 0.7072 -0.7018
vn -0.1699 0.7044 -0.6892
vn 0.1699 0.7044 0.6892
vn -0.4647 -0.0000 0.8855
vn -0.2393 -0.0000 0.9709
vn 0.2393 -0.0000 0.9709
vn 0.9927 0.0000 -0.1205
vn 0.4647 -0.0000 0.8855
vn 0.9350 0.0000 -0.3546
vn 0.6631 -0.0000 0.7485
vn 0.8230 0.0000 -0.5681
vn 0.8230 -0.0000 0.5681
vn 0.9350 -0.0000 0.3546
vn 0.6631 0.0000 -0.7485
vn 0.9927 -0.0000 0.1205
vn 0.4647 0.0000 -0.8855
vn 0.2393 0.0000 -0.9709
vn -0.2393 0.0000 -0.9709
vn -0.4647 0.0000 -0.8855
vn -0.6631 0.0000 -0.7485
vn -0.8230 0.0000 -0.5681
vn -0.9350 0.0000 -0.3546
vn -0.9927 0.0000 -0.1205
vn -0.9927 -0.0000 0.1205
vn -0.9350 -0.0000 0.3546
vn -0.8230 -0.0000 0.5681
vn -0.6631 -0.0000 0.7485
vn 0.0980 0.0000 -0.9952
vn 0.2903 0.0000 -0.9569
vn 0.4714 0.0000 -0.8819
vn 0.6344 0.0000 -0.7730
vn 0.7730 0.0000 -0.6344
vn 0.8819 0.0000 -0.4714
vn 0.9569 0.0000 -0.2903
vn 0.9952 0.0000 -0.0980
vn 0.9952 0.0000 0.0980
vn 0.9569 -0.0000 0.2903
vn 0.8819 0.0000 0.4714
vn 0.7730 0.0000 0.6344
vn 0.6344 0.0000 0.7730
vn 0.4714 0.0000 0.8819
vn 0.2903 0.0000 0.9569
vn 0.0980 0.0000 0.9952
vn -0.0980 0.0000 0.9952
vn -0.2903 0.0000 0.9569
vn -0.4714 0.0000 0.8819
vn -0.6344 0.0000 0.7730
vn -0.7730 0.0000 0.6344
vn -0.8819 -0.0000 0.4714
vn -0.9569 -0.0000 0.2903
vn -0.9952 0.0000 0.0980
vn -0.9952 0.0000 -0.0980
vn -0.9569 0.0000 -0.2903
vn -0.8819 0.0000 -0.4714
vn -0.7730 0.0000 -0.6344
vn -0.6344 0.0000 -0.7730
vn -0.4714 0.0000 -0.8819
vn -0.2903 0.0000 -0.9569
vn -0.0980 0.0000 -0.9952
usemtl COMBINED_MAT
s 1
f 1/1/1 2/2/1 3/3/1
f 4/4/1 2/2/1 1/1/1
f 5/5/2 2/6/2 4/7/2
f 6/8/2 7/9/2 5/5/2
f 5/5/2 7/9/2 2/6/2
f 7/10/3 3/11/3 2/12/3
f 8/13/3 3/11/3 7/10/3
f 3/14/4 9/15/4 1/16/4
f 8/17/4 10/18/4 9/15/4
f 8/17/4 9/15/4 3/14/4
f 4/19/5 11/20/6 12/21/7
f 12/21/7 13/22/8 4/19/5
f 4/19/5 14/23/9 11/20/6
f 13/22/8 15/24/5 4/19/5
f 4/19/5 16/25/5 14/23/9
f 15/24/5 5/26/5 4/19/5
f 1/27/5 17/28/5 4/19/5
f 4/19/5 17/28/5 16/25/5
f 1/27/5 18/29/10 17/28/5
f 1/27/5 19/30/11 18/29/10
f 1/27/5 9/31/12 20/32/13
f 1/27/5 20/32/13 21/33/9
f 1/27/5 21/33/9 22/34/14
f 1/27/5 22/34/14 19/30/11
f 23/35/15 6/36/16 5/26/5
f 24/37/17 6/36/16 23/35/15
f 25/38/18 6/36/16 24/37/17
f 26/39/5 6/36/16 25/38/18
f 27/40/19 6/36/16 26/39/5
f 28/41/20 6/36/16 27/40/19
f 29/42/5 6/36/16 28/41/20
f 30/43/21 10/44/22 29/42/5
f 31/45/15 10/44/22 30/43/21
f 32/46/5 10/44/22 31/45/15
f 29/42/5 10/44/22 6/36/16
f 9/31/5 10/44/22 33/47/23
f 33/47/23 10/44/22 34/48/24
f 34/48/24 10/44/22 35/49/25
f 35/49/25 10/44/22 32/46/5
f 7/50/26 10/51/26 8/52/26
f 7/50/26 6/53/26 10/51/26
f 23/54/27 5/55/27 36/56/27
f 24/57/28 23/54/28 37/58/28
f 24/57/29 37/58/29 38/59/29
f 21/60/30 20/61/31 39/62/32
f 21/60/33 39/62/33 40/63/33
f 25/64/34 38/59/34 41/65/34
f 25/64/35 24/57/35 38/59/35
f 26/66/36 41/65/36 42/67/36
f 22/68/37 40/63/37 43/69/37
f 26/66/38 25/64/38 41/65/38
f 27/70/39 26/66/40 42/67/40
f 27/70/41 42/67/41 44/71/41
f 28/72/42 44/73/43 45/74/44
f 22/68/45 21/60/45 40/63/45
f 28/75/46 27/70/47 44/71/46
f 29/76/48 28/72/42 45/74/44
f 19/77/49 43/69/49 46/78/49
f 19/77/50 22/68/50 43/69/50
f 18/79/51 19/77/51 46/78/51
f 30/80/52 45/74/53 47/81/54
f 18/79/55 46/78/55 48/82/55
f 30/80/52 29/76/56 45/74/53
f 17/83/57 48/84/57 49/85/57
f 31/86/58 47/87/58 50/88/58
f 31/86/59 30/89/60 47/87/59
f 17/90/61 18/79/62 48/82/61
f 16/91/63 49/85/63 51/92/63
f 32/93/64 50/88/64 52/94/64
f 16/95/65 17/96/65 49/97/65
f 32/93/66 31/86/67 50/88/66
f 14/98/68 51/99/68 53/100/68
f 35/101/69 52/94/69 54/102/69
f 14/98/70 16/103/70 51/99/70
f 35/101/71 32/93/71 52/94/71
f 11/104/72 53/100/72 55/105/72
f 34/106/73 54/102/73 56/107/73
f 11/104/74 14/98/74 53/100/74
f 34/106/75 35/101/75 54/102/75
f 12/108/76 55/105/76 57/109/76
f 33/110/77 56/107/77 58/111/77
f 12/108/78 11/104/78 55/105/78
f 13/112/79 57/109/79 59/113/79
f 13/112/80 12/108/80 57/109/80
f 33/110/81 34/106/81 56/107/81
f 9/114/82 58/115/82 60/116/82
f 15/117/83 59/113/83 61/118/83
f 15/117/84 13/112/84 59/113/84
f 9/119/85 33/110/85 58/111/85
f 5/120/86 61/121/86 36/122/86
f 5/123/87 15/117/87 61/118/87
f 20/61/88 9/124/88 60/125/88
f 20/61/89 60/125/89 39/62/89
f 23/54/90 36/56/90 37/58/90
f 59/126/91 57/127/91 62/128/91
f 61/121/2 63/129/2 64/130/2
f 61/121/92 59/126/92 63/129/92
f 36/122/93 64/130/93 65/131/93
f 36/122/2 61/121/2 64/130/2
f 47/81/94 66/132/94 67/133/94
f 37/134/95 65/131/95 68/135/95
f 47/81/94 45/74/94 66/132/94
f 37/134/93 36/122/93 65/131/93
f 50/136/96 67/133/96 69/137/96
f 38/138/95 37/134/95 68/135/95
f 50/136/96 47/81/96 67/133/96
f 41/139/97 68/135/97 70/140/97
f 52/141/98 69/137/98 71/142/98
f 41/143/99 70/144/99 72/145/99
f 41/139/97 38/138/97 68/135/97
f 52/141/98 50/136/98 69/137/98
f 42/146/100 72/145/100 73/147/100
f 54/148/101 71/149/101 74/150/101
f 42/146/99 41/143/99 72/145/99
f 54/148/101 52/151/101 71/149/101
f 44/73/102 73/147/102 66/132/102
f 44/73/100 42/146/100 73/147/100
f 45/74/102 44/73/102 66/132/102
f 56/152/103 74/150/103 75/153/103
f 56/152/103 54/148/103 74/150/103
f 58/115/104 75/153/104 76/154/104
f 58/115/104 56/152/104 75/153/104
f 60/116/4 76/154/4 77/155/4
f 60/116/105 77/155/105 78/156/105
f 60/116/4 58/115/4 76/154/4
f 39/157/105 60/116/105 78/156/105
f 40/158/106 78/156/106 79/159/106
f 40/158/106 39/157/106 78/156/106
f 43/160/107 79/159/107 80/161/107
f 43/162/108 80/163/108 81/164/108
f 43/160/107 40/158/107 79/159/107
f 46/165/108 43/162/108 81/164/108
f 46/165/109 81/164/109 82/166/109
f 48/84/109 46/165/109 82/166/109
f 48/84/110 82/166/110 83/167/110
f 49/85/110 48/84/110 83/167/110
f 49/85/111 83/167/111 84/168/111
f 51/92/112 84/168/112 85/169/112
f 51/92/111 49/85/111 84/168/111
f 53/170/112 51/92/112 85/169/112
f 55/171/113 85/169/113 86/172/113
f 55/173/114 86/174/114 87/175/114
f 55/171/113 53/170/113 85/169/113
f 57/127/91 87/175/91 62/128/91
f 57/127/114 55/173/114 87/175/114
f 59/126/92 62/128/92 63/129/92
usemtl Material.004
f 88/176/115 89/177/115 90/178/115
f 91/179/116 92/180/116 89/177/116
f 93/181/117 94/182/117 92/180/117
f 95/183/118 96/184/118 94/182/118
f 97/185/119 98/186/119 96/187/119
f 99/188/120 100/189/120 98/186/120
f 101/190/121 102/191/121 100/189/121
f 103/192/122 104/193/122 102/191/122
f 105/194/123 106/195/123 104/193/123
f 107/196/124 108/197/124 106/195/124
f 109/198/125 110/199/125 108/197/125
f 111/200/126 112/201/126 110/199/126
f 113/202/127 114/203/127 112/204/127
f 115/205/128 116/206/128 114/203/128
f 117/207/129 118/208/129 116/206/129
f 119/209/130 120/210/130 118/208/130
f 121/211/131 122/212/131 120/210/131
f 123/213/132 124/214/132 122/212/132
f 125/215/133 126/216/133 124/214/133
f 127/217/134 128/218/134 126/216/134
f 129/219/135 130/220/135 128/221/135
f 131/222/136 132/223/136 130/220/136
f 133/224/137 134/225/137 132/223/137
f 135/226/138 136/227/138 134/225/138
f 137/228/139 138/229/139 136/227/139
f 139/230/140 140/231/140 138/229/140
f 141/232/141 142/233/141 140/231/141
f 143/234/142 144/235/142 142/233/142
f 145/236/143 146/237/143 144/238/143
f 147/239/144 148/240/144 146/237/144
f 125/241/3 109/242/3 93/243/3
f 149/244/145 150/245/145 148/240/145
f 151/246/146 90/178/146 150/245/146
f 118/247/5 134/248/5 150/249/5
f 88/176/115 91/179/115 89/177/115
f 91/179/116 93/181/116 92/180/116
f 93/181/117 95/183/117 94/182/117
f 95/183/118 97/250/118 96/184/118
f 97/185/119 99/188/119 98/186/119
f 99/188/120 101/190/120 100/189/120
f 101/190/121 103/192/121 102/191/121
f 103/192/122 105/194/122 104/193/122
f 105/194/123 107/196/123 106/195/123
f 107/196/124 109/198/124 108/197/124
f 109/198/125 111/200/125 110/199/125
f 111/200/126 113/251/126 112/201/126
f 113/202/127 115/205/127 114/203/127
f 115/205/128 117/207/128 116/206/128
f 117/207/129 119/209/129 118/208/129
f 119/209/130 121/211/130 120/210/130
f 121/211/131 123/213/131 122/212/131
f 123/213/132 125/215/132 124/214/132
f 125/215/133 127/217/133 126/216/133
f 127/217/134 129/252/134 128/218/134
f 129/219/135 131/222/135 130/220/135
f 131/222/136 133/224/136 132/223/136
f 133/224/137 135/226/137 134/225/137
f 135/226/138 137/228/138 136/227/138
f 137/228/139 139/230/139 138/229/139
f 139/230/140 141/232/140 140/231/140
f 141/232/141 143/234/141 142/233/141
f 143/234/142 145/253/142 144/235/142
f 145/236/143 147/239/143 146/237/143
f 147/239/144 149/244/144 148/240/144
f 93/243/3 91/254/3 88/255/3
f 88/255/3 151/256/3 93/243/3
f 151/256/3 149/257/3 93/243/3
f 149/257/3 147/258/3 145/259/3
f 145/259/3 143/260/3 141/261/3
f 141/261/3 139/262/3 137/263/3
f 137/263/3 135/264/3 141/261/3
f 135/264/3 133/265/3 141/261/3
f 133/265/3 131/266/3 129/267/3
f 129/267/3 127/268/3 125/241/3
f 125/241/3 123/269/3 117/270/3
f 123/269/3 121/271/3 117/270/3
f 121/271/3 119/272/3 117/270/3
f 117/270/3 115/273/3 113/274/3
f 113/274/3 111/275/3 109/242/3
f 109/242/3 107/276/3 101/277/3
f 107/276/3 105/278/3 101/277/3
f 105/278/3 103/279/3 101/277/3
f 101/277/3 99/280/3 97/281/3
f 97/281/3 95/282/3 93/243/3
f 149/257/3 145/259/3 93/243/3
f 145/259/3 141/261/3 93/243/3
f 133/265/3 129/267/3 141/261/3
f 129/267/3 125/241/3 141/261/3
f 117/270/3 113/274/3 125/241/3
f 113/274/3 109/242/3 125/241/3
f 101/277/3 97/281/3 109/242/3
f 97/281/3 93/243/3 109/242/3
f 93/243/3 141/261/3 125/241/3
f 149/244/145 151/246/145 150/245/145
f 151/246/146 88/176/146 90/178/146
f 150/249/5 90/283/5 89/284/5
f 89/284/5 92/285/5 94/286/5
f 94/286/5 96/287/5 98/288/5
f 98/288/5 100/289/5 102/290/5
f 102/290/5 104/291/5 106/292/5
f 106/292/5 108/293/5 110/294/5
f 110/294/5 112/295/5 114/296/5
f 114/296/5 116/297/5 118/247/5
f 118/247/5 120/298/5 122/299/5
f 122/299/5 124/300/5 126/301/5
f 126/301/5 128/302/5 130/303/5
f 130/303/5 132/304/5 134/248/5
f 134/248/5 136/305/5 138/306/5
f 138/306/5 140/307/5 142/308/5
f 142/308/5 144/309/5 146/310/5
f 146/310/5 148/311/5 150/249/5
f 150/249/5 89/284/5 102/290/5
f 89/284/5 94/286/5 102/290/5
f 94/286/5 98/288/5 102/290/5
f 102/290/5 106/292/5 118/247/5
f 106/292/5 110/294/5 118/247/5
f 110/294/5 114/296/5 118/247/5
f 118/247/5 122/299/5 134/248/5
f 122/299/5 126/301/5 134/248/5
f 126/301/5 130/303/5 134/248/5
f 134/248/5 138/306/5 150/249/5
f 138/306/5 142/308/5 150/249/5
f 142/308/5 146/310/5 150/249/5
f 150/249/5 102/290/5 118/247/5
