# Blender v3.2.0 OBJ File: ''
# www.blender.org
mtllib 30MMMk2.mtl
o 30MMMK2_Fusion001.004
v -1.349054 2.080297 -20.132265
v -1.349054 3.847319 -20.128338
v -1.349054 3.847319 -20.132265
v -1.349054 2.080297 -20.128340
v 0.025297 2.080297 -20.128340
v 1.399647 2.080297 -20.128340
v 1.399647 3.847319 -20.128338
v 1.399647 3.847319 -20.132265
v 0.025297 2.080297 -20.132265
v 1.399647 2.080297 -20.132265
v 0.023681 2.080297 -20.129187
v 0.023995 2.080297 -20.128832
v 0.024384 2.080297 -20.128563
v 0.023461 2.080297 -20.129606
v 0.024827 2.080297 -20.128395
v 0.023348 2.080297 -20.130066
v 0.023348 2.080297 -20.130539
v 0.023461 2.080297 -20.130999
v 0.023681 2.080297 -20.131418
v 0.024827 2.080297 -20.132208
v 0.024384 2.080297 -20.132040
v 0.023995 2.080297 -20.131771
v 0.025734 2.080297 -20.128387
v 0.026149 2.080297 -20.128532
v 0.026521 2.080297 -20.128767
v 0.026832 2.080297 -20.129078
v 0.027066 2.080297 -20.129450
v 0.027211 2.080297 -20.129866
v 0.027260 2.080297 -20.130302
v 0.027211 2.080297 -20.130739
v 0.027066 2.080297 -20.131153
v 0.026832 2.080297 -20.131527
v 0.025734 2.080297 -20.132215
v 0.026149 2.080297 -20.132071
v 0.026521 2.080297 -20.131838
v 0.030030 2.042993 -20.091322
v 0.039221 2.042993 -20.093586
v 0.047603 2.042993 -20.097986
v 0.011373 2.042993 -20.167017
v 0.002990 2.042993 -20.162619
v 0.054689 2.042993 -20.104263
v 0.060066 2.042993 -20.112055
v -0.004095 2.042993 -20.156342
v 0.063423 2.042993 -20.120905
v 0.064564 2.042993 -20.130302
v -0.009473 2.042993 -20.148550
v 0.063423 2.042993 -20.139700
v -0.012829 2.042993 -20.139700
v -0.013970 2.042993 -20.130302
v 0.060066 2.042993 -20.148550
v -0.012829 2.042993 -20.120905
v 0.054689 2.042993 -20.156342
v -0.009473 2.042993 -20.112055
v 0.047603 2.042993 -20.162619
v -0.004095 2.042993 -20.104263
v 0.039221 2.042993 -20.167017
v 0.002990 2.042993 -20.097986
v 0.030030 2.042993 -20.169283
v 0.011373 2.042993 -20.093586
v 0.020564 2.042993 -20.169283
v 0.020564 2.042993 -20.091322
v 0.011373 0.529244 -20.093586
v 0.020564 0.529244 -20.091322
v 0.030030 0.529244 -20.091322
v 0.039221 0.529244 -20.093586
v 0.064564 0.529244 -20.130302
v 0.063423 0.529244 -20.139700
v 0.047603 0.529244 -20.097986
v 0.060066 0.529244 -20.148550
v 0.054689 0.529244 -20.104263
v 0.054689 0.529244 -20.156342
v 0.060066 0.529244 -20.112055
v 0.063423 0.529244 -20.120905
v 0.047603 0.529244 -20.162619
v 0.039221 0.529244 -20.167019
v 0.030030 0.529244 -20.169283
v 0.020564 0.529244 -20.169283
v 0.011373 0.529244 -20.167019
v 0.002990 0.529244 -20.162619
v -0.004095 0.529244 -20.156342
v -0.009473 0.529244 -20.148550
v -0.012829 0.529244 -20.139700
v -0.013970 0.529244 -20.130302
v -0.012829 0.529244 -20.120905
v -0.009473 0.529244 -20.112055
v -0.004095 0.529244 -20.104263
v 0.002990 0.529244 -20.097986
v 0.016405 0.537507 -20.716972
v 0.132129 0.503682 -20.705574
v 0.016405 0.503682 -20.716972
v 0.132129 0.537507 -20.705574
v 0.243405 0.503682 -20.671820
v 0.243405 0.537507 -20.671820
v 0.345958 0.503682 -20.617004
v 0.345958 0.537507 -20.617004
v 0.435847 0.503682 -20.543234
v 0.435847 0.537507 -20.543234
v 0.509616 0.503682 -20.453346
v 0.509616 0.537507 -20.453346
v 0.564432 0.503682 -20.350792
v 0.564432 0.537507 -20.350792
v 0.598187 0.503682 -20.239517
v 0.598187 0.537507 -20.239517
v 0.609585 0.503682 -20.123793
v 0.609585 0.537507 -20.123793
v 0.598187 0.503682 -20.008068
v 0.598187 0.537507 -20.008068
v 0.564432 0.503682 -19.896793
v 0.564432 0.537507 -19.896793
v 0.509616 0.503682 -19.794239
v 0.509616 0.537507 -19.794239
v 0.435847 0.503682 -19.704350
v 0.435847 0.537507 -19.704350
v 0.345958 0.503682 -19.630581
v 0.345958 0.537507 -19.630581
v 0.243405 0.503682 -19.575766
v 0.243405 0.537507 -19.575766
v 0.132129 0.503682 -19.542011
v 0.132129 0.537507 -19.542011
v 0.016405 0.503682 -19.530613
v 0.016405 0.537507 -19.530613
v -0.099319 0.503682 -19.542011
v -0.099319 0.537507 -19.542011
v -0.210595 0.503682 -19.575766
v -0.210595 0.537507 -19.575766
v -0.313148 0.503682 -19.630581
v -0.313148 0.537507 -19.630581
v -0.403037 0.503682 -19.704350
v -0.403037 0.537507 -19.704350
v -0.476806 0.503682 -19.794239
v -0.476806 0.537507 -19.794239
v -0.531622 0.503682 -19.896793
v -0.531622 0.537507 -19.896793
v -0.565377 0.503682 -20.008068
v -0.565377 0.537507 -20.008068
v -0.576775 0.503682 -20.123793
v -0.576775 0.537507 -20.123793
v -0.565377 0.503682 -20.239517
v -0.565377 0.537507 -20.239517
v -0.531622 0.503682 -20.350792
v -0.531622 0.537507 -20.350792
v -0.476806 0.503682 -20.453346
v -0.476806 0.537507 -20.453346
v -0.403037 0.503682 -20.543234
v -0.403037 0.537507 -20.543234
v -0.313148 0.503682 -20.617004
v -0.313148 0.537507 -20.617004
v -0.210595 0.503682 -20.671820
v -0.210595 0.537507 -20.671820
v -0.099319 0.503682 -20.705574
v -0.099319 0.537507 -20.705574
vt 0.983673 0.401639
vt 0.982884 0.088456
vt 0.983673 0.088456
vt 0.982884 0.401639
vt 0.053237 0.316663
vt 0.408151 0.560249
vt 0.053237 0.560249
vt 0.053237 0.073076
vt 0.408151 0.073076
vt 0.999882 0.936379
vt 0.999093 0.512238
vt 0.999882 0.512238
vt 0.999093 0.936379
vt 0.869539 0.073076
vt 0.514625 0.316663
vt 0.514625 0.073076
vt 0.869539 0.560249
vt 0.514625 0.560249
vt 0.979247 0.320528
vt 0.979077 0.077227
vt 0.979148 0.077172
vt 0.979202 0.077103
vt 0.978993 0.077266
vt 0.979236 0.077024
vt 0.978900 0.077286
vt 0.979247 0.076941
vt 0.978458 0.320528
vt 0.978805 0.077286
vt 0.978713 0.077266
vt 0.978629 0.077227
vt 0.978458 0.076941
vt 0.978470 0.077024
vt 0.978503 0.077103
vt 0.978557 0.077172
vt 0.980263 0.320450
vt 0.980272 0.076941
vt 0.980272 0.320528
vt 0.980233 0.320377
vt 0.980186 0.320311
vt 0.980124 0.320256
vt 0.980049 0.320214
vt 0.979966 0.320189
vt 0.979878 0.320180
vt 0.979790 0.320189
vt 0.979484 0.076941
vt 0.979707 0.320214
vt 0.979632 0.320256
vt 0.979484 0.320528
vt 0.979494 0.320450
vt 0.979523 0.320377
vt 0.979570 0.320311
vt 0.983909 0.401628
vt 0.984695 0.088455
vt 0.984695 0.401628
vt 0.983909 0.088455
vt 0.957206 0.316141
vt 0.957118 0.316141
vt 0.958055 0.309530
vt 0.934655 0.839655
vt 0.934732 0.839644
vt 0.933119 0.847673
vt 0.931407 0.847666
vt 0.956326 0.764758
vt 0.956238 0.764758
vt 0.958953 0.758146
vt 0.960635 0.758146
vt 0.934575 0.839649
vt 0.929698 0.847270
vt 0.934497 0.839626
vt 0.928089 0.846509
vt 0.956405 0.764758
vt 0.962056 0.758146
vt 0.934423 0.839588
vt 0.926674 0.845426
vt 0.934359 0.839536
vt 0.925537 0.844086
vt 0.934306 0.839473
vt 0.970402 0.764769
vt 0.965396 0.758150
vt 0.966960 0.758149
vt 0.970330 0.764769
vt 0.970486 0.764769
vt 0.934269 0.839403
vt 0.924742 0.842565
vt 0.968738 0.758148
vt 0.970578 0.764769
vt 0.970626 0.758147
vt 0.934248 0.839328
vt 0.924336 0.840952
vt 0.970673 0.764769
vt 0.972513 0.758148
vt 0.934245 0.839253
vt 0.924342 0.839341
vt 0.970765 0.764769
vt 0.974291 0.758149
vt 0.934259 0.839181
vt 0.924761 0.837826
vt 0.970850 0.764769
vt 0.975856 0.758150
vt 0.934291 0.839116
vt 0.925568 0.836494
vt 0.956857 0.316141
vt 0.951206 0.309530
vt 0.952627 0.309530
vt 0.934339 0.839061
vt 0.926715 0.835423
vt 0.970921 0.764769
vt 0.956935 0.316141
vt 0.954309 0.309530
vt 0.956143 0.764758
vt 0.955206 0.758146
vt 0.957107 0.758146
vt 0.957024 0.316141
vt 0.956154 0.309530
vt 0.956055 0.764758
vt 0.934732 0.847292
vt 0.954309 0.041236
vt 0.956154 0.041236
vt 0.958055 0.041236
vt 0.959902 0.041236
vt 0.973306 0.308547
vt 0.971406 0.040263
vt 0.973306 0.040262
vt 0.959902 0.309530
vt 0.961587 0.041236
vt 0.971406 0.308547
vt 0.975131 0.308543
vt 0.975131 0.040258
vt 0.961587 0.309530
vt 0.963013 0.309530
vt 0.963013 0.041236
vt 0.976776 0.308536
vt 0.976776 0.040251
vt 0.966348 0.308530
vt 0.966348 0.040245
vt 0.967823 0.040254
vt 0.967823 0.308539
vt 0.969543 0.040260
vt 0.951674 0.758146
vt 0.950249 0.489852
vt 0.951674 0.489852
vt 0.950249 0.758146
vt 0.969543 0.308544
vt 0.953359 0.758146
vt 0.953359 0.489852
vt 0.955206 0.489852
vt 0.957107 0.489852
vt 0.958953 0.489852
vt 0.960635 0.489852
vt 0.962056 0.489852
vt 0.965396 0.489857
vt 0.966960 0.489855
vt 0.968738 0.489854
vt 0.970626 0.489854
vt 0.972513 0.489854
vt 0.974291 0.489855
vt 0.975856 0.489857
vt 0.951206 0.041236
vt 0.952627 0.041236
vt 0.793381 0.044518
vt 0.845029 0.040939
vt 0.845029 0.044518
vt 0.845029 0.080863
vt 0.896677 0.077283
vt 0.896677 0.080863
vt 0.845029 0.077283
vt 0.896677 0.073074
vt 0.845029 0.073074
vt 0.896677 0.068397
vt 0.845029 0.068397
vt 0.896677 0.063432
vt 0.845029 0.063432
vt 0.896677 0.058370
vt 0.845029 0.058370
vt 0.896677 0.053404
vt 0.845029 0.053404
vt 0.896677 0.048727
vt 0.845029 0.048727
vt 0.896677 0.044518
vt 0.793381 0.040939
vt 0.845029 0.036729
vt 0.845029 0.040939
vt 0.793381 0.036729
vt 0.845029 0.032052
vt 0.793381 0.032052
vt 0.845029 0.027087
vt 0.793381 0.027087
vt 0.845029 0.022025
vt 0.793381 0.022025
vt 0.845029 0.017060
vt 0.793381 0.017060
vt 0.845029 0.012382
vt 0.793381 0.012382
vt 0.845029 0.008173
vt 0.845029 0.044518
vt 0.896677 0.040309
vt 0.896677 0.044518
vt 0.845029 0.040309
vt 0.896677 0.035632
vt 0.845029 0.035632
vt 0.896677 0.030667
vt 0.845029 0.030667
vt 0.896677 0.025604
vt 0.845029 0.025604
vt 0.896677 0.020639
vt 0.845029 0.020639
vt 0.896677 0.015962
vt 0.845029 0.015962
vt 0.896677 0.011753
vt 0.845029 0.011753
vt 0.896677 0.008173
vt 0.793381 0.080863
vt 0.845029 0.077283
vt 0.845029 0.080863
vt 0.793381 0.077283
vt 0.845029 0.073074
vt 0.793381 0.073074
vt 0.845029 0.068397
vt 0.793381 0.068397
vt 0.845029 0.063432
vt 0.793381 0.063432
vt 0.845029 0.058370
vt 0.793381 0.058370
vt 0.845029 0.053404
vt 0.308011 0.043062
vt 0.956134 0.310788
vt 0.688408 0.958910
vt 0.793381 0.053404
vt 0.845029 0.048727
vt 0.793381 0.048727
vt 0.390331 0.016653
vt 0.984454 0.389156
vt 0.611951 0.983278
vt 0.793381 0.040939
vt 0.845029 0.044518
vt 0.793381 0.008173
vt 0.845029 0.008173
vt 0.595417 0.987217
vt 0.498690 0.996839
vt 0.401944 0.987405
vt 0.308899 0.959278
vt 0.223128 0.913539
vt 0.147928 0.851946
vt 0.086190 0.776866
vt 0.040285 0.691184
vt 0.011978 0.598193
vt 0.002357 0.501466
vt 0.011791 0.404721
vt 0.039918 0.311675
vt 0.085656 0.225904
vt 0.147249 0.150705
vt 0.222329 0.088966
vt 0.401003 0.014755
vt 0.687521 0.042694
vt 0.497729 0.005133
vt 0.594475 0.014567
vt 0.773291 0.088433
vt 0.848491 0.150026
vt 0.910229 0.225106
vt 0.984441 0.403779
vt 0.956501 0.690297
vt 0.994062 0.500506
vt 0.984628 0.597251
vt 0.910763 0.776068
vt 0.849170 0.851267
vt 0.774090 0.913006
vt 0.515532 0.995609
vt 0.418561 0.988893
vt 0.324762 0.963388
vt 0.237742 0.920074
vt 0.160844 0.860615
vt 0.097023 0.787296
vt 0.048733 0.702936
vt 0.017828 0.610775
vt 0.005497 0.514356
vt 0.012213 0.417385
vt 0.037719 0.323586
vt 0.081033 0.236566
vt 0.140492 0.159668
vt 0.213810 0.095848
vt 0.298171 0.047557
vt 0.486750 0.004321
vt 0.583722 0.011037
vt 0.677520 0.036543
vt 0.764540 0.079857
vt 0.841438 0.139316
vt 0.905259 0.212635
vt 0.953549 0.296995
vt 0.996785 0.485574
vt 0.990069 0.582546
vt 0.964564 0.676344
vt 0.921250 0.763365
vt 0.861791 0.840263
vt 0.788472 0.904083
vt 0.704112 0.952374
vn -1.0000 0.0000 0.0000
vn 0.0000 -0.0000 1.0000
vn 0.0000 1.0000 0.0000
vn 0.0000 0.0000 -1.0000
vn 0.0000 -1.0000 0.0000
vn 0.0000 -1.0000 -0.0002
vn -0.0000 -1.0000 0.0004
vn -0.0000 -1.0000 0.0001
vn 0.0000 -1.0000 -0.0001
vn 0.0000 -1.0000 0.0002
vn 0.0000 -1.0000 0.0019
vn -0.0000 -1.0000 0.0022
vn 0.0000 -1.0000 0.0006
vn 0.0000 -1.0000 -0.0008
vn 0.0000 -1.0000 -0.0009
vn 0.0000 -1.0000 -0.0003
vn -0.0000 -1.0000 -0.0018
vn -0.0000 -1.0000 0.0007
vn 0.0000 -1.0000 0.0003
vn -0.0000 -1.0000 0.0009
vn 0.0000 -1.0000 -0.0006
vn 0.0000 -1.0000 0.0018
vn 1.0000 0.0000 0.0000
vn 0.0771 0.7072 0.7028
vn 0.2364 0.7065 0.6671
vn 0.3297 0.7044 0.6285
vn -0.2479 0.7076 -0.6617
vn -0.2480 0.7076 -0.6616
vn -0.3299 0.7043 -0.6285
vn 0.4708 0.7043 0.5312
vn 0.3797 0.7061 0.5977
vn 0.5841 0.7044 0.4032
vn -0.4706 0.7044 -0.5313
vn 0.4992 0.7071 0.5008
vn 0.5979 0.7067 0.3782
vn 0.5981 0.7068 0.3778
vn 0.6637 0.7044 0.2517
vn 0.7030 0.7061 0.0844
vn 0.7046 0.7044 0.0855
vn 0.7048 0.7047 0.0812
vn -0.4011 0.7075 -0.5819
vn 0.6689 0.7060 0.2329
vn 0.6688 0.7059 0.2331
vn 0.7031 0.7066 0.0801
vn -0.5842 0.7044 -0.4032
vn -0.5302 0.7061 -0.4693
vn -0.6254 0.7080 -0.3282
vn 0.7030 0.7061 -0.0844
vn 0.7048 0.7047 -0.0813
vn 0.7046 0.7044 -0.0855
vn -0.6636 0.7044 -0.2518
vn 0.7031 0.7066 -0.0802
vn -0.7047 0.7043 -0.0855
vn 0.6637 0.7044 -0.2517
vn 0.6674 0.7069 -0.2342
vn 0.6674 0.7069 -0.2344
vn -0.6870 0.7070 -0.1678
vn -0.6870 0.7070 -0.1682
vn -0.7047 0.7043 0.0855
vn 0.5843 0.7043 -0.4031
vn -0.7069 0.7073 0.0000
vn 0.6003 0.7060 -0.3759
vn 0.6001 0.7059 -0.3763
vn -0.6636 0.7044 0.2518
vn 0.4708 0.7043 -0.5312
vn -0.6870 0.7070 0.1678
vn 0.4953 0.7089 -0.5021
vn -0.5842 0.7044 0.4032
vn 0.3297 0.7044 -0.6286
vn -0.6254 0.7080 0.3282
vn 0.3757 0.7066 -0.5997
vn -0.4707 0.7044 0.5313
vn 0.1699 0.7044 -0.6892
vn -0.5329 0.7054 0.4674
vn -0.3299 0.7044 0.6285
vn -0.4011 0.7075 0.5819
vn 0.2364 0.7065 -0.6671
vn 0.0000 0.7044 -0.7098
vn -0.1697 0.7044 0.6892
vn -0.2480 0.7076 0.6616
vn 0.0771 0.7074 -0.7026
vn 0.0000 0.7044 0.7098
vn -0.0859 0.7071 0.7019
vn -0.0859 0.7072 -0.7017
vn -0.1699 0.7044 -0.6892
vn 0.1697 0.7044 0.6892
vn -0.4650 0.0000 0.8853
vn -0.4648 0.0000 0.8854
vn -0.2388 0.0000 0.9711
vn -0.2393 0.0000 0.9709
vn 0.2393 0.0000 0.9709
vn 0.2388 0.0000 0.9711
vn 0.9927 0.0000 -0.1205
vn 0.9927 0.0000 -0.1206
vn 0.4648 0.0000 0.8854
vn 0.4650 0.0000 0.8853
vn 0.9350 0.0000 -0.3546
vn 0.6630 0.0000 0.7486
vn 0.6631 0.0000 0.7485
vn 0.8231 0.0000 -0.5679
vn 0.8229 0.0000 -0.5681
vn 0.8231 0.0000 0.5679
vn 0.8229 0.0000 0.5681
vn 0.9350 0.0000 0.3546
vn 0.6631 0.0000 -0.7485
vn 0.6630 0.0000 -0.7486
vn 0.9927 0.0000 0.1205
vn 0.9927 0.0000 0.1206
vn 0.4648 0.0000 -0.8854
vn 0.4650 0.0000 -0.8853
vn 0.2393 0.0000 -0.9709
vn 0.2391 0.0000 -0.9710
vn -0.2393 0.0000 -0.9709
vn -0.2391 0.0000 -0.9710
vn -0.4650 0.0000 -0.8853
vn -0.4648 0.0000 -0.8854
vn -0.6630 0.0000 -0.7486
vn -0.6631 0.0000 -0.7485
vn -0.8231 0.0000 -0.5679
vn -0.8229 0.0000 -0.5681
vn -0.9350 0.0000 -0.3546
vn -0.9927 0.0000 -0.1205
vn -0.9927 0.0000 -0.1206
vn -0.9927 0.0000 0.1206
vn -0.9927 0.0000 0.1205
vn -0.9350 0.0000 0.3546
vn -0.8231 0.0000 0.5679
vn -0.8229 0.0000 0.5681
vn -0.6630 0.0000 0.7486
vn -0.6631 0.0000 0.7485
vn 0.0980 0.0000 -0.9952
vn 0.2903 0.0000 -0.9569
vn 0.4714 0.0000 -0.8819
vn 0.6344 0.0000 -0.7730
vn 0.7730 0.0000 -0.6344
vn 0.8819 0.0000 -0.4714
vn 0.9569 0.0000 -0.2903
vn 0.9952 0.0000 -0.0980
vn 0.9952 0.0000 0.0980
vn 0.9569 0.0000 0.2903
vn 0.8819 0.0000 0.4714
vn 0.7730 0.0000 0.6344
vn 0.6344 0.0000 0.7730
vn 0.4714 0.0000 0.8819
vn 0.2903 0.0000 0.9569
vn 0.0980 0.0000 0.9952
vn -0.0980 0.0000 0.9952
vn -0.2903 0.0000 0.9569
vn -0.4714 0.0000 0.8819
vn -0.6344 0.0000 0.7730
vn -0.7730 0.0000 0.6344
vn -0.8819 0.0000 0.4714
vn -0.9569 0.0000 0.2903
vn -0.9952 0.0000 0.0980
vn -0.9952 0.0000 -0.0980
vn -0.9569 0.0000 -0.2903
vn -0.8819 0.0000 -0.4714
vn -0.7730 0.0000 -0.6344
vn -0.6344 0.0000 -0.7730
vn -0.4714 0.0000 -0.8819
vn -0.2903 0.0000 -0.9569
vn -0.0980 0.0000 -0.9952
g 30MMMK2_Fusion001.004_color_cccccc.004
usemtl color_cccccc.004
s 1
f 1/1/1 2/2/1 3/3/1
f 4/4/1 2/2/1 1/1/1
f 5/5/2 2/6/2 4/7/2
f 6/8/2 7/9/2 5/5/2
f 5/5/2 7/9/2 2/6/2
f 7/10/3 3/11/3 2/12/3
f 8/13/3 3/11/3 7/10/3
f 3/14/4 9/15/4 1/16/4
f 8/17/4 10/18/4 9/15/4
f 8/17/4 9/15/4 3/14/4
f 4/19/5 11/20/6 12/21/7
f 12/21/7 13/22/5 4/19/5
f 4/19/5 14/23/8 11/20/6
f 13/22/5 15/24/5 4/19/5
f 4/19/5 16/25/8 14/23/8
f 15/24/5 5/26/5 4/19/5
f 1/27/5 17/28/9 4/19/5
f 4/19/5 17/28/9 16/25/8
f 1/27/5 18/29/9 17/28/9
f 1/27/5 19/30/10 18/29/9
f 1/27/5 9/31/11 20/32/12
f 1/27/5 20/32/12 21/33/13
f 1/27/5 21/33/13 22/34/14
f 1/27/5 22/34/14 19/30/10
f 23/35/15 6/36/16 5/37/5
f 24/38/13 6/36/16 23/35/15
f 25/39/17 6/36/16 24/38/13
f 26/40/5 6/36/16 25/39/17
f 27/41/18 6/36/16 26/40/5
f 28/42/5 6/36/16 27/41/18
f 29/43/5 6/36/16 28/42/5
f 30/44/5 10/45/19 29/43/5
f 31/46/14 10/45/19 30/44/5
f 32/47/5 10/45/19 31/46/14
f 29/43/5 10/45/19 6/36/16
f 9/48/5 10/45/19 33/49/20
f 33/49/20 10/45/19 34/50/21
f 34/50/21 10/45/19 35/51/22
f 35/51/22 10/45/19 32/47/5
f 7/52/23 10/53/23 8/54/23
f 7/52/23 6/55/23 10/53/23
f 23/56/24 5/57/24 36/58/24
f 24/59/25 23/60/25 37/61/25
f 24/59/26 37/61/26 38/62/26
f 21/63/27 20/64/28 39/65/27
f 21/63/29 39/65/29 40/66/29
f 25/67/30 38/62/30 41/68/30
f 25/67/31 24/59/31 38/62/31
f 26/69/32 41/68/32 42/70/32
f 22/71/33 40/66/33 43/72/33
f 26/69/34 25/67/34 41/68/34
f 27/73/35 26/69/36 42/70/36
f 27/73/37 42/70/37 44/74/37
f 28/75/38 44/74/39 45/76/40
f 22/71/41 21/63/41 40/66/41
f 28/75/42 27/73/43 44/74/42
f 29/77/44 28/75/38 45/76/40
f 19/78/45 43/79/45 46/80/45
f 19/78/46 22/81/46 43/79/46
f 18/82/47 19/78/47 46/80/47
f 30/83/48 45/76/49 47/84/50
f 18/82/51 46/80/51 48/85/51
f 30/83/48 29/77/52 45/76/49
f 17/86/53 48/85/53 49/87/53
f 31/88/54 47/84/54 50/89/54
f 31/88/55 30/83/56 47/84/55
f 17/86/57 18/82/58 48/85/57
f 16/90/59 49/87/59 51/91/59
f 32/92/60 50/89/60 52/93/60
f 16/90/61 17/86/61 49/87/61
f 32/92/62 31/88/63 50/89/62
f 14/94/64 51/91/64 53/95/64
f 35/96/65 52/93/65 54/97/65
f 14/94/66 16/90/66 51/91/66
f 35/96/67 32/92/67 52/93/67
f 11/98/68 53/95/68 55/99/68
f 34/100/69 54/97/69 56/101/69
f 11/98/70 14/94/70 53/95/70
f 34/100/71 35/96/71 54/97/71
f 12/102/72 55/103/72 57/104/72
f 33/105/73 56/101/73 58/106/73
f 12/107/74 11/98/74 55/99/74
f 13/108/75 57/104/75 59/109/75
f 13/108/76 12/102/76 57/104/76
f 33/105/77 34/100/77 56/101/77
f 9/110/78 58/111/78 60/112/78
f 15/113/79 59/109/79 61/114/79
f 15/113/80 13/108/80 59/109/80
f 9/110/81 33/115/81 58/111/81
f 5/57/82 61/114/82 36/58/82
f 5/57/83 15/113/83 61/114/83
f 20/64/84 9/110/84 60/112/84
f 20/64/85 60/112/85 39/65/85
f 23/60/86 36/116/86 37/61/86
f 59/109/87 57/104/87 62/117/88
f 61/114/2 63/118/2 64/119/2
f 61/114/89 59/109/89 63/118/90
f 36/58/91 64/119/92 65/120/92
f 36/58/2 61/114/2 64/119/2
f 47/121/93 66/122/94 67/123/94
f 37/124/95 65/120/96 68/125/96
f 47/121/93 45/126/93 66/122/94
f 37/124/91 36/58/91 65/120/92
f 50/127/97 67/123/97 69/128/97
f 38/129/95 37/124/95 68/125/96
f 50/127/97 47/121/97 67/123/97
f 41/130/98 68/125/99 70/131/99
f 52/132/100 69/128/101 71/133/101
f 41/134/102 70/135/103 72/136/103
f 41/130/98 38/129/98 68/125/99
f 52/132/100 50/127/100 69/128/101
f 42/137/104 72/136/104 73/138/104
f 54/139/105 71/140/106 74/141/106
f 42/137/102 41/134/102 72/136/103
f 54/139/105 52/142/105 71/140/106
f 44/143/107 73/138/108 66/122/108
f 44/143/104 42/137/104 73/138/104
f 45/126/107 44/143/107 66/122/108
f 56/144/109 74/141/110 75/145/110
f 56/144/109 54/139/109 74/141/110
f 58/111/111 75/145/112 76/146/112
f 58/111/111 56/144/111 75/145/112
f 60/112/4 76/146/4 77/147/4
f 60/112/113 77/147/114 78/148/114
f 60/112/4 58/111/4 76/146/4
f 39/65/113 60/112/113 78/148/114
f 40/66/115 78/148/116 79/149/116
f 40/66/115 39/65/115 78/148/116
f 43/72/117 79/149/118 80/150/118
f 43/79/119 80/151/120 81/152/120
f 43/72/117 40/66/117 79/149/118
f 46/80/119 43/79/119 81/152/120
f 46/80/121 81/152/121 82/153/121
f 48/85/121 46/80/121 82/153/121
f 48/85/122 82/153/123 83/154/123
f 49/87/122 48/85/122 83/154/123
f 49/87/124 83/154/125 84/155/125
f 51/91/126 84/155/126 85/156/126
f 51/91/124 49/87/124 84/155/125
f 53/95/126 51/91/126 85/156/126
f 55/99/127 85/156/128 86/157/128
f 55/103/129 86/158/130 87/159/130
f 55/99/127 53/95/127 85/156/128
f 57/104/87 87/159/88 62/117/88
f 57/104/129 55/103/129 87/159/130
f 59/109/89 62/117/90 63/118/90
g 30MMMK2_Fusion001.004_Material.004
usemtl Material.004
f 88/160/131 89/161/131 90/162/131
f 91/163/132 92/164/132 89/165/132
f 93/166/133 94/167/133 92/164/133
f 95/168/134 96/169/134 94/167/134
f 97/170/135 98/171/135 96/169/135
f 99/172/136 100/173/136 98/171/136
f 101/174/137 102/175/137 100/173/137
f 103/176/138 104/177/138 102/175/138
f 105/178/139 106/179/139 104/177/139
f 107/180/140 108/181/140 106/182/140
f 109/183/141 110/184/141 108/181/141
f 111/185/142 112/186/142 110/184/142
f 113/187/143 114/188/143 112/186/143
f 115/189/144 116/190/144 114/188/144
f 117/191/145 118/192/145 116/190/145
f 119/193/146 120/194/146 118/192/146
f 121/195/147 122/196/147 120/197/147
f 123/198/148 124/199/148 122/196/148
f 125/200/149 126/201/149 124/199/149
f 127/202/150 128/203/150 126/201/150
f 129/204/151 130/205/151 128/203/151
f 131/206/152 132/207/152 130/205/152
f 133/208/153 134/209/153 132/207/153
f 135/210/154 136/211/154 134/209/154
f 137/212/155 138/213/155 136/214/155
f 139/215/156 140/216/156 138/213/156
f 141/217/157 142/218/157 140/216/157
f 143/219/158 144/220/158 142/218/158
f 145/221/159 146/222/159 144/220/159
f 147/223/160 148/224/160 146/222/160
f 125/225/3 109/226/3 93/227/3
f 149/228/161 150/229/161 148/224/161
f 151/230/162 90/162/162 150/229/162
f 118/231/5 134/232/5 150/233/5
f 88/160/131 91/234/131 89/161/131
f 91/163/132 93/166/132 92/164/132
f 93/166/133 95/168/133 94/167/133
f 95/168/134 97/170/134 96/169/134
f 97/170/135 99/172/135 98/171/135
f 99/172/136 101/174/136 100/173/136
f 101/174/137 103/176/137 102/175/137
f 103/176/138 105/178/138 104/177/138
f 105/178/139 107/235/139 106/179/139
f 107/180/140 109/183/140 108/181/140
f 109/183/141 111/185/141 110/184/141
f 111/185/142 113/187/142 112/186/142
f 113/187/143 115/189/143 114/188/143
f 115/189/144 117/191/144 116/190/144
f 117/191/145 119/193/145 118/192/145
f 119/193/146 121/236/146 120/194/146
f 121/195/147 123/198/147 122/196/147
f 123/198/148 125/200/148 124/199/148
f 125/200/149 127/202/149 126/201/149
f 127/202/150 129/204/150 128/203/150
f 129/204/151 131/206/151 130/205/151
f 131/206/152 133/208/152 132/207/152
f 133/208/153 135/210/153 134/209/153
f 135/210/154 137/237/154 136/211/154
f 137/212/155 139/215/155 138/213/155
f 139/215/156 141/217/156 140/216/156
f 141/217/157 143/219/157 142/218/157
f 143/219/158 145/221/158 144/220/158
f 145/221/159 147/223/159 146/222/159
f 147/223/160 149/228/160 148/224/160
f 93/227/3 91/238/3 88/239/3
f 88/239/3 151/240/3 93/227/3
f 151/240/3 149/241/3 93/227/3
f 149/241/3 147/242/3 145/243/3
f 145/243/3 143/244/3 141/245/3
f 141/245/3 139/246/3 137/247/3
f 137/247/3 135/248/3 141/245/3
f 135/248/3 133/249/3 141/245/3
f 133/249/3 131/250/3 129/251/3
f 129/251/3 127/252/3 125/225/3
f 125/225/3 123/253/3 117/254/3
f 123/253/3 121/255/3 117/254/3
f 121/255/3 119/256/3 117/254/3
f 117/254/3 115/257/3 113/258/3
f 113/258/3 111/259/3 109/226/3
f 109/226/3 107/260/3 101/261/3
f 107/260/3 105/262/3 101/261/3
f 105/262/3 103/263/3 101/261/3
f 101/261/3 99/264/3 97/265/3
f 97/265/3 95/266/3 93/227/3
f 149/241/3 145/243/3 93/227/3
f 145/243/3 141/245/3 93/227/3
f 133/249/3 129/251/3 141/245/3
f 129/251/3 125/225/3 141/245/3
f 117/254/3 113/258/3 125/225/3
f 113/258/3 109/226/3 125/225/3
f 101/261/3 97/265/3 109/226/3
f 97/265/3 93/227/3 109/226/3
f 93/227/3 141/245/3 125/225/3
f 149/228/161 151/230/161 150/229/161
f 151/230/162 88/160/162 90/162/162
f 150/233/5 90/267/5 89/268/5
f 89/268/5 92/269/5 94/270/5
f 94/270/5 96/271/5 98/272/5
f 98/272/5 100/273/5 102/274/5
f 102/274/5 104/275/5 106/276/5
f 106/276/5 108/277/5 110/278/5
f 110/278/5 112/279/5 114/280/5
f 114/280/5 116/281/5 118/231/5
f 118/231/5 120/282/5 122/283/5
f 122/283/5 124/284/5 126/285/5
f 126/285/5 128/286/5 130/287/5
f 130/287/5 132/288/5 134/232/5
f 134/232/5 136/289/5 138/290/5
f 138/290/5 140/291/5 142/292/5
f 142/292/5 144/293/5 146/294/5
f 146/294/5 148/295/5 150/233/5
f 150/233/5 89/268/5 102/274/5
f 89/268/5 94/270/5 102/274/5
f 94/270/5 98/272/5 102/274/5
f 102/274/5 106/276/5 118/231/5
f 106/276/5 110/278/5 118/231/5
f 110/278/5 114/280/5 118/231/5
f 118/231/5 122/283/5 134/232/5
f 122/283/5 126/285/5 134/232/5
f 126/285/5 130/287/5 134/232/5
f 134/232/5 138/290/5 150/233/5
f 138/290/5 142/292/5 150/233/5
f 142/292/5 146/294/5 150/233/5
f 150/233/5 102/274/5 118/231/5
