# Blender v3.2.0 OBJ File: ''
# www.blender.org
mtllib 12Triangle.mtl
o obj_0
v -0.000001 0.000000 -12.000000
v 0.000000 0.000000 0.000000
v -12.000000 0.000000 0.000001
v -12.000000 0.209776 0.000001
v 0.000000 0.209776 0.000000
v -0.000001 0.209776 -12.000000
vn 0.3204 -0.5469 -0.7735
vn 0.5774 -0.5774 0.5774
vn -0.7735 -0.5469 0.3204
vn -0.7735 0.5469 0.3204
vn 0.5774 0.5774 0.5774
vn 0.3204 0.5469 -0.7735
usemtl color_4634441
s 1
f 1//1 2//2 3//3
f 4//4 5//5 6//6
f 1//1 3//3 6//6
f 3//3 4//4 6//6
f 3//3 2//2 4//4
f 2//2 5//5 4//4
f 2//2 1//1 5//5
f 1//1 6//6 5//5
