# Blender 4.1.1
# www.blender.org
mtllib 130mmCollider.mtl
o 130mm.Collider
v 2.510220 0.000127 -0.499495
v 2.559388 0.000127 -0.000206
v 0.000133 -0.000000 -0.000244
v 2.364591 0.000127 -0.979596
v 2.510524 0.000151 0.497769
v 2.364562 0.000127 0.979175
v -2.509954 0.000126 0.499001
v -2.559122 0.000127 -0.000284
v -2.364324 0.000126 0.979105
v 1.484280 0.126235 2.022121
v 1.850304 0.126234 1.693722
v -2.435530 0.127509 0.596241
v 1.061222 0.126234 2.272803
v -2.480315 0.126698 -0.368184
v -2.505950 0.126234 0.110205
v -2.362679 0.125708 -0.845658
v -2.272919 0.126234 1.060835
v 2.432571 0.126697 0.609046
v 2.506217 0.126235 -0.110691
v 2.315392 0.125942 0.958701
v -2.022233 0.126234 1.483903
v -1.693837 0.126235 1.849923
v 2.436516 0.126235 -0.597483
v 2.273183 0.126236 -1.061327
v 0.380719 0.126236 -2.479722
v -0.110313 0.126235 -2.506329
v -1.300334 0.126234 2.144853
v -0.856848 0.126235 2.357347
v 2.022505 0.126235 -1.484384
v -0.597110 0.126235 -2.436626
v -1.060952 0.126235 -2.273293
v -0.488702 0.125941 2.457607
v -0.122902 0.126696 2.504322
v 1.392340 0.125941 -2.083934
v -1.392172 0.125940 -2.083868
v 0.597376 0.126234 2.436137
v 2.128055 0.000127 1.421633
v 1.809773 0.000127 1.809448
v -2.509734 0.000151 -0.500891
v -2.364309 0.000127 -0.979626
v 1.421947 0.000127 2.127719
v 0.979481 0.000127 2.364213
v -2.057714 0.000033 -1.526486
v -1.810502 0.000151 -1.809025
v 0.376031 0.000034 2.534088
v 0.001439 0.000151 2.559067
v -1.421681 0.000127 -2.128209
v -0.979212 0.000127 -2.364704
v 1.421979 0.000127 -2.128186
v 1.809825 0.000127 -1.809886
v 0.978333 0.000151 -2.365241
v -0.499189 0.000126 2.509828
v -0.979287 0.000126 2.364183
v -0.499114 0.000127 -2.510333
v 0.000172 0.000127 -2.559500
v 2.128095 0.000127 -1.422062
v 0.499456 0.000127 -2.510318
v -2.127832 0.000126 1.421569
v -1.809561 0.000126 1.809394
v 2.145233 0.126235 1.300217
v -2.144958 0.126231 -1.300718
v -1.421745 0.000126 2.127676
v 2.449317 0.000154 0.742670
v 2.493104 0.126171 0.250794
v 2.547268 0.000130 0.249223
v 2.547184 0.000155 -0.251144
v 2.449296 0.000155 -0.743227
v 2.257288 0.000155 -1.206758
v 1.978539 0.000155 -1.623924
v 1.072277 0.126696 -2.267071
v 1.206587 0.000155 -2.257432
v 1.694104 0.126232 -1.850409
v 1.623785 0.000155 -1.978670
v 0.741731 0.000131 -2.449767
v 0.732644 0.126168 -2.396357
v 0.250963 0.000155 -2.547303
v -0.250763 0.000154 -2.547297
v -0.742848 0.000154 -2.449408
v -1.206383 0.000154 -2.257399
v -1.623544 0.000154 -1.978652
v -1.683864 0.126696 -1.858240
v -1.933227 0.126170 -1.593998
v -2.257037 0.000155 -1.206726
v -2.448602 0.000130 -0.744440
v -2.546926 0.000154 -0.251073
v -2.546919 0.000154 0.250651
v -2.449030 0.000154 0.742736
v -2.257021 0.000154 1.206271
v -1.978274 0.000154 1.623433
v -1.623494 0.000154 1.978204
v -1.206320 0.000154 2.256942
v -0.742783 0.000154 2.448938
v -0.250696 0.000154 2.546813
v 0.240273 0.126170 2.493800
v 0.743114 0.000154 2.448919
v 1.206647 0.000154 2.256910
v 1.623813 0.000154 1.978160
v 1.978582 0.000154 1.623382
v 2.257321 0.000154 1.206208
vn 0.9009 -0.4198 -0.1098
vn -0.0000 -1.0000 -0.0000
vn 0.8915 -0.4251 -0.1562
vn -0.9011 -0.4195 0.1095
vn -0.8918 -0.4244 0.1565
vn 0.6072 0.7924 0.0584
vn -0.6015 0.7851 0.1473
vn 0.5988 0.7867 0.1501
vn -0.0298 0.7869 0.6164
vn -0.1200 0.7915 0.5993
vn 0.2643 0.7870 -0.5575
vn 0.3392 0.7922 -0.5073
vn -0.4136 0.7872 -0.4574
vn -0.3393 0.7919 -0.5078
vn 0.8620 -0.4264 0.2741
vn 0.8895 -0.4264 0.1640
vn 0.7146 -0.4198 0.5596
vn 0.7409 -0.4251 0.5200
vn -0.8728 -0.4240 -0.2416
vn -0.8856 -0.4203 -0.1976
vn 0.4461 -0.4198 0.7904
vn 0.4856 -0.4251 0.7638
vn -0.4374 -0.4257 -0.7921
vn -0.5010 -0.4322 -0.7498
vn 0.5642 -0.4259 -0.7073
vn 0.5006 -0.4322 -0.7501
vn -0.2505 -0.4259 0.8694
vn -0.1760 -0.4322 0.8845
vn -0.1096 -0.4198 -0.9010
vn -0.1563 -0.4251 -0.8915
vn 0.7905 -0.4198 -0.4461
vn 0.7640 -0.4251 -0.4853
vn 0.2561 -0.4293 -0.8661
vn 0.1968 -0.4251 -0.8835
vn -0.7904 -0.4198 0.4462
vn -0.7640 -0.4251 0.4853
vn -0.5596 -0.4198 0.7146
vn -0.5201 -0.4251 0.7408
vn -0.6262 0.7792 0.0274
vn -0.9047 -0.4255 -0.0209
vn 0.8039 -0.4258 0.4153
vn 0.5296 0.7843 0.3232
vn 0.6881 -0.4198 -0.5918
vn 0.5003 0.7840 -0.3673
vn -0.4699 0.7884 -0.3971
vn -0.6494 -0.4264 -0.6297
vn -0.7307 -0.4167 -0.5407
vn -0.5646 -0.4263 -0.7067
vn 0.0510 0.7891 0.6121
vn 0.0140 -0.4264 0.9044
vn 0.1342 -0.4168 0.8991
vn -0.1005 -0.4263 0.8990
vn 0.1762 0.7923 -0.5842
vn 0.3348 -0.4265 -0.8403
vn 0.4367 -0.4264 -0.7921
vn 0.8994 -0.4295 0.0820
vn 0.5639 0.7919 0.2343
vn 0.6544 -0.4251 -0.6253
vn 0.0683 -0.4199 -0.9050
vn 0.0205 -0.4251 -0.9049
vn -0.8093 -0.4188 -0.4119
vn -0.8279 -0.4241 -0.3670
vn -0.9046 -0.4207 -0.0690
vn -0.8627 -0.4192 0.2831
vn -0.8439 -0.4251 0.3272
vn -0.6883 -0.4201 0.5914
vn -0.6546 -0.4251 0.6251
vn -0.4094 -0.4199 0.8100
vn -0.3656 -0.4251 0.8280
vn 0.2802 -0.4196 0.8634
vn 0.3274 -0.4251 0.8438
vn 0.5918 -0.4198 0.6881
vn 0.6254 -0.4251 0.6543
vn 0.8331 -0.4322 0.3451
vn 0.9049 -0.4251 0.0205
vn 0.8622 -0.4200 -0.2832
vn 0.8439 -0.4251 -0.3271
vn -0.2833 -0.4199 -0.8622
vn -0.3272 -0.4251 -0.8439
vn 0.6199 0.7842 -0.0285
vn 0.6028 0.7840 -0.1480
vn 0.5625 0.7840 -0.2626
vn 0.4203 0.7843 -0.4563
vn 0.0931 0.7840 -0.6137
vn -0.0275 0.7841 -0.6200
vn -0.1478 0.7839 -0.6030
vn -0.2608 0.7843 -0.5630
vn -0.5888 0.7804 -0.2103
vn -0.6100 0.7871 -0.0914
vn -0.5661 0.7806 0.2650
vn -0.5013 0.7829 0.3684
vn -0.4194 0.7835 0.4584
vn -0.3219 0.7837 0.5312
vn -0.2135 0.7844 0.5824
vn 0.2627 0.7841 0.5624
vn 0.3674 0.7840 0.5004
vn 0.4578 0.7842 0.4188
vn 0.1503 0.7788 0.6089
vn -0.5370 0.7787 -0.3246
vt 0.500004 0.500000
vt 0.500002 0.500000
vt 0.500004 0.500001
vt 0.500001 0.500000
vt 0.500001 0.499999
vt 0.499996 0.499999
vt 0.499999 0.499999
vt 0.499996 0.499999
vt 0.499998 0.499996
vt 0.499998 0.499996
vt 0.499997 0.500004
vt 0.499997 0.500003
vt 0.499999 0.500003
vt 0.499998 0.500004
vt 0.500004 0.499999
vt 0.500004 0.499997
vt 0.500001 0.500001
vt 0.500001 0.500001
vt 0.500003 0.499996
vt 0.500003 0.499996
vt 0.500002 0.500004
vt 0.500002 0.500004
vt 0.500004 0.500003
vt 0.500002 0.499996
vt 0.500004 0.500002
vt 0.500003 0.500004
vt 0.500003 0.500004
vt 0.500001 0.499998
vt 0.500001 0.499998
vt 0.500001 0.499997
vt 0.500001 0.499997
vt 0.499999 0.500000
vt 0.500001 0.500000
vt 0.499996 0.499998
vt 0.499996 0.499998
vt 0.499996 0.500003
vt 0.499996 0.500002
vt 0.500001 0.500003
vt 0.499997 0.499996
vt 0.500002 0.499996
vt 0.500003 0.499996
vt 0.499998 0.499996
vt 0.499997 0.500004
vt 0.499996 0.499998
vt 0.500004 0.500003
vt 0.499999 0.500002
vt 0.500001 0.500002
vt 0.499999 0.500001
vt 0.500001 0.499999
vt 0.499999 0.499997
vt 0.499998 0.499996
vt 0.499997 0.499996
vt 0.499997 0.499997
vt 0.500004 0.499997
vt 0.500004 0.500000
vt 0.499996 0.500001
vt 0.499998 0.500004
vt 0.499996 0.500000
vt 0.499996 0.500001
vt 0.499996 0.500001
vt 0.499996 0.500003
vt 0.499997 0.500004
vt 0.499998 0.500004
vt 0.499998 0.500004
vt 0.499999 0.500002
vt 0.499999 0.500001
vt 0.499999 0.499999
vt 0.499999 0.499998
vt 0.499999 0.499997
vt 0.499997 0.499996
vt 0.499996 0.499997
vt 0.499999 0.500002
s 1
usemtl None.025
f 66/1/1 3/2/2 1/3/3
f 86/4/4 3/2/2 7/5/5
f 64/6/6 12/7/7 18/8/8
f 33/9/9 12/7/7 32/10/10
f 70/11/11 12/7/7 34/12/12
f 81/13/13 12/7/7 35/14/14
f 63/6/15 3/2/2 5/15/16
f 98/16/17 3/2/2 37/16/18
f 84/17/19 3/2/2 39/18/20
f 96/19/21 3/2/2 41/20/22
f 79/21/23 3/2/2 47/22/24
f 73/23/25 3/2/2 49/23/26
f 92/24/27 3/2/2 52/24/28
f 77/21/29 3/2/2 54/21/30
f 68/25/31 3/2/2 56/25/32
f 74/26/33 3/2/2 57/27/34
f 88/28/35 3/2/2 58/29/36
f 90/30/37 3/2/2 62/31/38
f 86/4/4 15/32/39 8/33/40
f 99/34/41 60/35/42 37/16/18
f 69/36/43 29/37/44 56/25/32
f 82/13/45 44/38/46 43/38/47
f 35/14/14 80/13/48 81/13/13
f 94/39/49 46/40/50 45/41/51
f 32/10/10 93/42/52 33/9/9
f 75/43/53 51/27/54 74/26/33
f 34/12/12 71/43/55 70/11/11
f 64/6/6 5/15/16 65/6/56
f 20/44/57 63/6/15 18/8/8
f 69/36/43 3/2/2 50/45/58
f 71/43/55 3/2/2 51/27/54
f 75/43/53 12/7/7 70/11/11
f 76/11/59 3/2/2 55/27/60
f 80/13/48 3/2/2 44/38/46
f 82/13/45 12/7/7 81/13/13
f 83/46/61 3/2/2 40/47/62
f 85/48/63 3/2/2 8/33/40
f 87/7/64 3/2/2 9/49/65
f 89/50/66 3/2/2 59/30/67
f 91/51/68 3/2/2 53/24/69
f 93/42/52 3/2/2 46/40/50
f 94/39/49 12/7/7 33/9/9
f 95/52/70 3/2/2 42/19/71
f 97/53/72 3/2/2 38/54/73
f 99/34/41 3/2/2 6/34/74
f 18/8/8 12/7/7 20/44/57
f 65/6/56 3/2/2 2/55/75
f 67/56/76 3/2/2 4/3/77
f 78/57/78 3/2/2 48/21/79
f 18/8/8 63/6/15 5/15/16
f 19/58/80 65/6/56 2/55/75
f 23/59/81 66/1/1 1/3/3
f 24/60/82 67/56/76 4/3/77
f 29/37/44 68/25/31 56/25/32
f 72/61/83 69/36/43 50/45/58
f 70/11/11 71/43/55 51/27/54
f 34/12/12 73/23/25 49/23/26
f 25/43/84 74/26/33 57/27/34
f 26/62/85 76/11/59 55/27/60
f 30/63/86 77/21/29 54/21/30
f 31/64/87 78/57/78 48/21/79
f 35/14/14 79/21/23 47/22/24
f 81/13/13 80/13/48 44/38/46
f 16/65/88 83/46/61 40/47/62
f 16/65/88 39/18/20 14/66/89
f 15/32/39 85/48/63 8/33/40
f 12/7/7 86/4/4 7/5/5
f 17/67/90 87/7/64 9/49/65
f 21/68/91 88/28/35 58/29/36
f 22/50/92 89/50/66 59/30/67
f 27/69/93 90/30/37 62/31/38
f 28/9/94 91/51/68 53/24/69
f 32/10/10 92/24/27 52/24/28
f 33/9/9 93/42/52 46/40/50
f 13/52/95 95/52/70 42/19/71
f 10/70/96 96/19/21 41/20/22
f 11/71/97 97/53/72 38/54/73
f 60/35/42 98/16/17 37/16/18
f 20/44/57 99/34/41 6/34/74
f 66/1/1 2/55/75 3/2/2
f 86/4/4 8/33/40 3/2/2
f 10/70/96 11/71/97 12/7/7
f 14/66/89 15/32/39 12/7/7
f 64/6/6 19/58/80 12/7/7
f 21/68/91 22/50/92 12/7/7
f 23/59/81 24/60/82 12/7/7
f 25/43/84 26/62/85 12/7/7
f 27/69/93 28/9/94 12/7/7
f 29/37/44 72/61/83 12/7/7
f 30/63/86 31/64/87 12/7/7
f 36/52/98 13/52/95 12/7/7
f 63/6/15 6/34/74 3/2/2
f 98/16/17 38/54/73 3/2/2
f 84/17/19 40/47/62 3/2/2
f 96/19/21 42/19/71 3/2/2
f 43/38/47 44/38/46 3/2/2
f 45/41/51 46/40/50 3/2/2
f 79/21/23 48/21/79 3/2/2
f 73/23/25 50/45/58 3/2/2
f 92/24/27 53/24/69 3/2/2
f 77/21/29 55/27/60 3/2/2
f 68/25/31 4/3/77 3/2/2
f 74/26/33 51/27/54 3/2/2
f 88/28/35 9/49/65 3/2/2
f 60/35/42 20/44/57 12/7/7
f 61/72/99 16/65/88 12/7/7
f 90/30/37 59/30/67 3/2/2
f 14/66/89 39/18/20 85/48/63
f 11/71/97 38/54/73 98/16/17
f 16/65/88 40/47/62 84/17/19
f 10/70/96 41/20/22 97/53/72
f 61/72/99 43/38/47 83/46/61
f 13/52/95 42/19/71 96/19/21
f 82/13/45 81/13/13 44/38/46
f 36/52/98 45/41/51 95/52/70
f 35/14/14 47/22/24 80/13/48
f 94/39/49 33/9/9 46/40/50
f 31/64/87 48/21/79 79/21/23
f 32/10/10 52/24/28 93/42/52
f 30/63/86 54/21/30 78/57/78
f 28/9/94 53/24/69 92/24/27
f 26/62/85 55/27/60 77/21/29
f 27/69/93 62/31/38 91/51/68
f 24/60/82 4/3/77 68/25/31
f 25/43/84 57/27/34 76/11/59
f 22/50/92 59/30/67 90/30/37
f 23/59/81 1/3/3 67/56/76
f 75/43/53 70/11/11 51/27/54
f 21/68/91 58/29/36 89/50/66
f 19/58/80 2/55/75 66/1/1
f 34/12/12 49/23/26 71/43/55
f 17/67/90 9/49/65 88/28/35
f 64/6/6 18/8/8 5/15/16
f 72/61/83 50/45/58 73/23/25
f 12/7/7 7/5/5 87/7/64
f 20/44/57 6/34/74 63/6/15
f 24/60/82 29/37/44 12/7/7
f 69/36/43 56/25/32 3/2/2
f 71/43/55 49/23/26 3/2/2
f 72/61/83 34/12/12 12/7/7
f 75/43/53 25/43/84 12/7/7
f 76/11/59 57/27/34 3/2/2
f 80/13/48 47/22/24 3/2/2
f 31/64/87 35/14/14 12/7/7
f 82/13/45 61/72/99 12/7/7
f 83/46/61 43/38/47 3/2/2
f 16/65/88 14/66/89 12/7/7
f 85/48/63 39/18/20 3/2/2
f 87/7/64 7/5/5 3/2/2
f 17/67/90 21/68/91 12/7/7
f 89/50/66 58/29/36 3/2/2
f 22/50/92 27/69/93 12/7/7
f 91/51/68 62/31/38 3/2/2
f 28/9/94 32/10/10 12/7/7
f 93/42/52 52/24/28 3/2/2
f 94/39/49 36/52/98 12/7/7
f 95/52/70 45/41/51 3/2/2
f 13/52/95 10/70/96 12/7/7
f 97/53/72 41/20/22 3/2/2
f 11/71/97 60/35/42 12/7/7
f 99/34/41 37/16/18 3/2/2
f 65/6/56 5/15/16 3/2/2
f 19/58/80 23/59/81 12/7/7
f 67/56/76 1/3/3 3/2/2
f 78/57/78 54/21/30 3/2/2
f 26/62/85 30/63/86 12/7/7
f 19/58/80 64/6/6 65/6/56
f 23/59/81 19/58/80 66/1/1
f 24/60/82 23/59/81 67/56/76
f 29/37/44 24/60/82 68/25/31
f 72/61/83 29/37/44 69/36/43
f 34/12/12 72/61/83 73/23/25
f 25/43/84 75/43/53 74/26/33
f 26/62/85 25/43/84 76/11/59
f 30/63/86 26/62/85 77/21/29
f 31/64/87 30/63/86 78/57/78
f 35/14/14 31/64/87 79/21/23
f 61/72/99 82/13/45 43/38/47
f 16/65/88 61/72/99 83/46/61
f 16/65/88 84/17/19 39/18/20
f 15/32/39 14/66/89 85/48/63
f 12/7/7 15/32/39 86/4/4
f 17/67/90 12/7/7 87/7/64
f 21/68/91 17/67/90 88/28/35
f 22/50/92 21/68/91 89/50/66
f 27/69/93 22/50/92 90/30/37
f 28/9/94 27/69/93 91/51/68
f 32/10/10 28/9/94 92/24/27
f 36/52/98 94/39/49 45/41/51
f 13/52/95 36/52/98 95/52/70
f 10/70/96 13/52/95 96/19/21
f 11/71/97 10/70/96 97/53/72
f 60/35/42 11/71/97 98/16/17
f 20/44/57 60/35/42 99/34/41
