# Blender v3.2.0 OBJ File: ''
# www.blender.org
mtllib CornerRounded8in.mtl
o CornerRounded6in
v -7.967126 -0.000005 -0.784578
v -8.005827 -0.000005 -0.000000
v -8.005827 0.186159 0.000000
v -7.967126 0.186159 -0.784578
v 0.000000 0.186159 0.000000
v 0.000000 -0.000006 -0.000000
v 0.000000 -0.000005 -8.005827
v 0.000000 0.186160 -8.005827
v -0.783368 -0.000005 -7.967199
v -1.560729 -0.000005 -7.851781
v -1.560729 0.186160 -7.851781
v -0.783368 0.186160 -7.967199
v -2.322744 -0.000005 -7.660974
v -2.322744 0.186160 -7.660974
v -7.851690 -0.000005 -1.561817
v 0.000000 -0.000006 -0.000000
v -7.967126 -0.000005 -0.784578
v -7.660852 -0.000005 -2.323710
v -7.396616 -0.000005 -3.063589
v -7.060315 -0.000004 -3.774111
v -6.656621 -0.000004 -4.447942
v -6.188203 -0.000004 -5.079072
v -5.660396 -0.000004 -5.660835
v -5.078542 -0.000004 -6.188557
v -4.447310 -0.000004 -6.656900
v -3.773375 -0.000004 -7.060531
v -3.062740 -0.000005 -7.396779
v -2.322744 -0.000005 -7.660974
v -1.560729 -0.000005 -7.851781
v -0.783368 -0.000005 -7.967199
v 0.000000 0.186159 0.000000
v 0.000000 0.186160 -8.005827
v -0.783368 0.186160 -7.967199
v -2.322744 0.186160 -7.660974
v -1.560729 0.186160 -7.851781
v -3.062740 0.186160 -7.396779
v -3.773375 0.186160 -7.060531
v -4.447310 0.186160 -6.656900
v -5.078542 0.186160 -6.188557
v -5.660396 0.186160 -5.660835
v -6.188203 0.186160 -5.079072
v -6.656621 0.186160 -4.447942
v -7.060315 0.186160 -3.774111
v -7.396616 0.186159 -3.063589
v -7.660852 0.186159 -2.323710
v -7.851690 0.186159 -1.561817
v -7.967126 0.186159 -0.784578
v -8.005827 0.186159 0.000000
v 0.000000 -0.000005 -8.005827
v 0.000000 0.186160 -8.005827
v 0.000000 -0.000006 -0.000000
v 0.000000 0.186159 0.000000
v -8.005827 -0.000005 -0.000000
v -8.005827 0.186159 0.000000
v -8.005827 -0.000005 -0.000000
v 0.000000 -0.000005 -8.005827
v -3.062740 -0.000005 -7.396779
v -3.062740 0.186160 -7.396779
v -3.773375 -0.000004 -7.060531
v -3.773375 0.186160 -7.060531
v -4.447310 -0.000004 -6.656900
v -4.447310 0.186160 -6.656900
v -5.078542 -0.000004 -6.188557
v -5.078542 0.186160 -6.188557
v -5.660396 -0.000004 -5.660835
v -5.660396 0.186160 -5.660835
v -6.188203 -0.000004 -5.079072
v -6.188203 0.186160 -5.079072
v -6.656621 -0.000004 -4.447942
v -6.656621 0.186160 -4.447942
v -7.060315 -0.000004 -3.774111
v -7.060315 0.186160 -3.774111
v -7.396616 -0.000005 -3.063589
v -7.396616 0.186159 -3.063589
v -7.660852 -0.000005 -2.323710
v -7.660852 0.186159 -2.323710
v -7.851690 -0.000005 -1.561817
v -7.851690 0.186159 -1.561817
vn -0.9952 -0.0000 -0.0982
vn -0.9988 -0.0000 -0.0493
vn 1.0000 0.0000 0.0000
vn -0.0982 0.0000 -0.9952
vn -0.1951 0.0000 -0.9808
vn -0.2899 0.0000 -0.9571
vn -0.0000 -1.0000 -0.0000
vn -0.0000 1.0000 0.0000
vn -0.0493 0.0000 -0.9988
vn 0.0000 -0.0000 1.0000
vn -0.3824 0.0000 -0.9240
vn -0.4713 0.0000 -0.8820
vn -0.5555 0.0000 -0.8315
vn -0.6346 0.0000 -0.7728
vn -0.7071 0.0000 -0.7072
vn -0.7727 0.0000 -0.6347
vn -0.8314 0.0000 -0.5556
vn -0.8819 0.0000 -0.4714
vn -0.9239 0.0000 -0.3825
vn -0.9570 0.0000 -0.2900
vn -0.9808 -0.0000 -0.1952
usemtl color_7720667.004
s 1
f 1//1 2//2 3//2
f 1//1 3//2 4//1
f 5//3 6//3 7//3
f 5//3 7//3 8//3
f 9//4 10//5 11//5
f 9//4 11//5 12//4
f 10//5 13//6 14//6
f 10//5 14//6 11//5
f 15//7 16//7 17//7
f 18//7 16//7 15//7
f 19//7 16//7 18//7
f 20//7 16//7 19//7
f 21//7 16//7 20//7
f 22//7 16//7 21//7
f 23//7 16//7 22//7
f 24//7 16//7 23//7
f 25//7 16//7 24//7
f 26//7 16//7 25//7
f 27//7 16//7 26//7
f 28//7 16//7 27//7
f 29//7 16//7 28//7
f 30//7 16//7 29//7
f 31//8 32//8 33//8
f 34//8 31//8 35//8
f 36//8 31//8 34//8
f 37//8 31//8 36//8
f 38//8 31//8 37//8
f 39//8 31//8 38//8
f 40//8 31//8 39//8
f 41//8 31//8 40//8
f 42//8 31//8 41//8
f 43//8 31//8 42//8
f 44//8 31//8 43//8
f 45//8 31//8 44//8
f 46//8 31//8 45//8
f 47//8 31//8 46//8
f 48//8 31//8 47//8
f 33//8 35//8 31//8
f 9//4 12//4 49//9
f 50//9 49//9 12//4
f 51//10 52//10 53//10
f 53//10 52//10 54//10
f 55//7 17//7 16//7
f 56//7 16//7 30//7
f 13//6 57//11 58//11
f 13//6 58//11 14//6
f 57//11 59//12 60//12
f 57//11 60//12 58//11
f 59//12 61//13 62//13
f 59//12 62//13 60//12
f 61//13 63//14 64//14
f 61//13 64//14 62//13
f 63//14 65//15 66//15
f 63//14 66//15 64//14
f 65//15 67//16 68//16
f 65//15 68//16 66//15
f 67//16 69//17 70//17
f 67//16 70//17 68//16
f 69//17 71//18 72//18
f 69//17 72//18 70//17
f 71//18 73//19 74//19
f 71//18 74//19 72//18
f 73//19 75//20 76//20
f 73//19 76//20 74//19
f 75//20 77//21 78//21
f 75//20 78//21 76//20
f 77//21 1//1 4//1
f 77//21 4//1 78//21
