# Blender 4.3.2
# www.blender.org
mtllib CornerRounded6in.mtl
o CornerRounded6in
v -5.970995 -0.000005 -0.588005
v -6.000000 -0.000005 -0.000000
v -6.000000 0.186159 -0.000000
v -5.970995 0.186159 -0.588005
v 0.000000 0.186159 -0.000000
v 0.000000 -0.000006 -0.000000
v -0.000000 -0.000006 -6.000000
v -0.000000 0.186159 -6.000000
v -0.587098 -0.000006 -5.971050
v -1.169695 -0.000006 -5.884549
v -1.169695 0.186159 -5.884549
v -0.587098 0.186159 -5.971050
v -1.740790 -0.000006 -5.741548
v -1.740790 0.186159 -5.741548
v -5.884481 -0.000005 -1.170510
v -5.741457 -0.000005 -1.741514
v -5.543424 -0.000005 -2.296019
v -5.291382 -0.000005 -2.828523
v -4.988832 -0.000005 -3.333528
v -4.637774 -0.000005 -3.806531
v -4.242207 -0.000005 -4.242536
v -3.806134 -0.000005 -4.638039
v -3.333055 -0.000005 -4.989041
v -2.827971 -0.000005 -5.291544
v -2.295383 -0.000006 -5.543546
v -2.295383 0.186159 -5.543546
v -2.827971 0.186159 -5.291544
v -3.333055 0.186159 -4.989041
v -3.806134 0.186159 -4.638039
v -4.242207 0.186159 -4.242536
v -4.637774 0.186159 -3.806531
v -4.988832 0.186159 -3.333528
v -5.291382 0.186159 -2.828523
v -5.543424 0.186159 -2.296019
v -5.741457 0.186159 -1.741514
v -5.884481 0.186159 -1.170510
v -5.970995 -0.000005 -0.588005
v -6.000000 -0.000005 -0.000000
v -6.000000 -0.000005 -0.000000
v -6.000000 0.186159 -0.000000
v -6.000000 0.186159 -0.000000
v -5.970995 0.186159 -0.588005
v 0.000000 0.186159 -0.000000
v 0.000000 0.186159 -0.000000
v 0.000000 -0.000006 -0.000000
v 0.000000 -0.000006 -0.000000
v -0.000000 -0.000006 -6.000000
v -0.000000 -0.000006 -6.000000
v -0.000000 0.186159 -6.000000
v -0.000000 0.186159 -6.000000
v -0.587098 -0.000006 -5.971050
v -1.169695 -0.000006 -5.884549
v -1.169695 0.186159 -5.884549
v -0.587098 0.186159 -5.971050
v -1.740790 -0.000006 -5.741548
v -1.740790 0.186159 -5.741548
v -5.884481 -0.000005 -1.170510
v -5.741457 -0.000005 -1.741514
v -5.543424 -0.000005 -2.296019
v -5.291382 -0.000005 -2.828523
v -4.988832 -0.000005 -3.333528
v -4.637774 -0.000005 -3.806531
v -4.242207 -0.000005 -4.242536
v -3.806134 -0.000005 -4.638039
v -3.333055 -0.000005 -4.989041
v -2.827971 -0.000005 -5.291544
v -2.295383 -0.000006 -5.543546
v -2.295383 0.186159 -5.543546
v -2.827971 0.186159 -5.291544
v -3.333055 0.186159 -4.989041
v -3.806134 0.186159 -4.638039
v -4.242207 0.186159 -4.242536
v -4.637774 0.186159 -3.806531
v -4.988832 0.186159 -3.333528
v -5.291382 0.186159 -2.828523
v -5.543424 0.186159 -2.296019
v -5.741457 0.186159 -1.741514
v -5.884481 0.186159 -1.170510
vn -0.9952 -0.0000 -0.0982
vn -0.9988 -0.0000 -0.0493
vn 1.0000 -0.0000 -0.0000
vn -0.0982 -0.0000 -0.9952
vn -0.1951 -0.0000 -0.9808
vn -0.2899 -0.0000 -0.9571
vn -0.0000 -1.0000 -0.0000
vn -0.0000 1.0000 -0.0000
vn -0.0981 -0.0000 -0.9952
vn -0.0493 -0.0000 -0.9988
vn -0.0000 -0.0000 1.0000
vn -0.2899 -0.0000 -0.9570
vn -0.3824 -0.0000 -0.9240
vn -0.4713 -0.0000 -0.8820
vn -0.5555 -0.0000 -0.8315
vn -0.6346 -0.0000 -0.7729
vn -0.6346 -0.0000 -0.7728
vn -0.7070 -0.0000 -0.7072
vn -0.7071 -0.0000 -0.7072
vn -0.7727 -0.0000 -0.6347
vn -0.7728 -0.0000 -0.6347
vn -0.8314 -0.0000 -0.5557
vn -0.8314 -0.0000 -0.5556
vn -0.8819 -0.0000 -0.4714
vn -0.9239 -0.0000 -0.3825
vn -0.9570 -0.0000 -0.2900
vn -0.9808 -0.0000 -0.1952
s 0
usemtl color_7720667.004
f 37//1 38//2 40//2
f 37//1 40//2 42//1
f 43//3 45//3 47//3
f 43//3 47//3 49//3
f 51//4 52//5 53//5
f 51//4 53//5 54//4
f 52//5 55//6 56//6
f 52//5 56//6 53//5
f 57//7 46//7 1//7
f 58//7 46//7 57//7
f 59//7 46//7 58//7
f 60//7 46//7 59//7
f 61//7 46//7 60//7
f 62//7 46//7 61//7
f 63//7 46//7 62//7
f 64//7 46//7 63//7
f 65//7 46//7 64//7
f 66//7 46//7 65//7
f 67//7 46//7 66//7
f 13//7 46//7 67//7
f 10//7 46//7 13//7
f 9//7 46//7 10//7
f 44//8 50//8 12//8
f 14//8 44//8 11//8
f 68//8 44//8 14//8
f 69//8 44//8 68//8
f 70//8 44//8 69//8
f 71//8 44//8 70//8
f 72//8 44//8 71//8
f 73//8 44//8 72//8
f 74//8 44//8 73//8
f 75//8 44//8 74//8
f 76//8 44//8 75//8
f 77//8 44//8 76//8
f 78//8 44//8 77//8
f 4//8 44//8 78//8
f 41//8 44//8 4//8
f 12//8 11//8 44//8
f 51//9 54//9 48//10
f 8//10 48//10 54//9
f 6//11 5//11 39//11
f 39//11 5//11 3//11
f 2//7 1//7 46//7
f 7//7 46//7 9//7
f 55//12 25//13 26//13
f 55//12 26//13 56//12
f 25//13 24//14 27//14
f 25//13 27//14 26//13
f 24//14 23//15 28//15
f 24//14 28//15 27//14
f 23//15 22//16 29//16
f 23//15 29//16 28//15
f 22//17 21//18 30//18
f 22//17 30//18 29//17
f 21//19 20//20 31//20
f 21//19 31//20 30//19
f 20//21 19//22 32//22
f 20//21 32//22 31//21
f 19//23 18//24 33//24
f 19//23 33//24 32//23
f 18//24 17//25 34//25
f 18//24 34//25 33//24
f 17//25 16//26 35//26
f 17//25 35//26 34//25
f 16//26 15//27 36//27
f 16//26 36//27 35//26
f 15//27 37//1 42//1
f 15//27 42//1 36//27
