# Blender v3.2.0 OBJ File: ''
# www.blender.org
mtllib MiddleCircle8in.mtl
o MiddleCircle18in
v -0.776686 -0.000006 7.885739
v 0.000000 -0.000006 7.924044
v 0.000000 0.186158 7.924044
v -0.776686 0.186158 7.885739
v 0.000000 0.186159 0.000000
v 0.000000 -0.000006 -0.000000
v -7.925301 -0.000006 0.000001
v -7.925301 0.186159 0.000001
v -7.887061 -0.000006 0.775365
v -7.772803 -0.000006 1.544785
v -7.772803 0.186159 1.544785
v -7.887061 0.186159 0.775365
v -7.583915 -0.000006 2.299017
v -7.583915 0.186159 2.299017
v -1.546106 -0.000006 7.771482
v 0.000000 -0.000006 -0.000000
v -0.776686 -0.000006 7.885739
v -2.300337 -0.000006 7.582593
v -3.032772 -0.000006 7.321057
v -3.736149 -0.000006 6.988191
v -4.403201 -0.000006 6.588621
v -5.027983 -0.000006 6.124987
v -5.603895 -0.000006 5.602572
v -6.126307 -0.000006 5.026663
v -6.589942 -0.000006 4.401880
v -6.989513 -0.000006 3.734828
v -7.322378 -0.000006 3.031453
v -7.583915 -0.000006 2.299017
v -7.772803 -0.000006 1.544785
v -7.887061 -0.000006 0.775365
v 0.000000 0.186159 0.000000
v -7.925301 0.186159 0.000001
v -7.887061 0.186159 0.775365
v -7.583915 0.186159 2.299017
v -7.772803 0.186159 1.544785
v -7.322378 0.186159 3.031453
v -6.989513 0.186158 3.734828
v -6.589942 0.186158 4.401880
v -6.126307 0.186158 5.026663
v -5.603895 0.186158 5.602572
v -5.027983 0.186158 6.124987
v -4.403201 0.186158 6.588621
v -3.736149 0.186158 6.988191
v -3.032772 0.186158 7.321057
v -2.300337 0.186158 7.582593
v -1.546106 0.186158 7.771482
v -0.776686 0.186158 7.885739
v 0.000000 0.186158 7.924044
v -7.925301 -0.000006 0.000001
v -7.925301 0.186159 0.000001
v 0.000000 -0.000006 -0.000000
v 0.000000 0.186159 0.000000
v 0.000000 -0.000006 7.924044
v 0.000000 0.186158 7.924044
v 0.000000 -0.000006 7.924044
v -7.925301 -0.000006 0.000001
v -7.322378 -0.000006 3.031453
v -7.322378 0.186159 3.031453
v -6.989513 -0.000006 3.734828
v -6.989513 0.186158 3.734828
v -6.589942 -0.000006 4.401880
v -6.589942 0.186158 4.401880
v -6.126307 -0.000006 5.026663
v -6.126307 0.186158 5.026663
v -5.603895 -0.000006 5.602572
v -5.603895 0.186158 5.602572
v -5.027983 -0.000006 6.124987
v -5.027983 0.186158 6.124987
v -4.403201 -0.000006 6.588621
v -4.403201 0.186158 6.588621
v -3.736149 -0.000006 6.988191
v -3.736149 0.186158 6.988191
v -3.032772 -0.000006 7.321057
v -3.032772 0.186158 7.321057
v -2.300337 -0.000006 7.582593
v -2.300337 0.186158 7.582593
v -1.546106 -0.000006 7.771482
v -1.546106 0.186158 7.771482
v -7.885738 -0.000005 -0.776686
v -7.924044 -0.000005 -0.000000
v -7.924044 0.186159 0.000000
v -7.885738 0.186159 -0.776686
v 0.000000 0.186159 0.000000
v 0.000000 -0.000006 -0.000000
v -0.000001 -0.000005 -7.925302
v -0.000001 0.186160 -7.925302
v -0.775366 -0.000005 -7.887061
v -1.544786 -0.000005 -7.772803
v -1.544786 0.186160 -7.772803
v -0.775366 0.186160 -7.887061
v -2.299017 -0.000005 -7.583915
v -2.299017 0.186160 -7.583915
v -7.771481 -0.000005 -1.546106
v 0.000000 -0.000006 -0.000000
v -7.885738 -0.000005 -0.776686
v -7.582593 -0.000005 -2.300336
v -7.321056 -0.000005 -3.032772
v -6.988190 -0.000004 -3.736149
v -6.588621 -0.000004 -4.403201
v -6.124987 -0.000004 -5.027983
v -5.602573 -0.000004 -5.603895
v -5.026663 -0.000004 -6.126307
v -4.401881 -0.000004 -6.589942
v -3.734829 -0.000004 -6.989513
v -3.031454 -0.000005 -7.322378
v -2.299017 -0.000005 -7.583915
v -1.544786 -0.000005 -7.772803
v -0.775366 -0.000005 -7.887061
v 0.000000 0.186159 0.000000
v -0.000001 0.186160 -7.925302
v -0.775366 0.186160 -7.887061
v -2.299017 0.186160 -7.583915
v -1.544786 0.186160 -7.772803
v -3.031454 0.186160 -7.322378
v -3.734829 0.186160 -6.989513
v -4.401881 0.186160 -6.589942
v -5.026663 0.186160 -6.126307
v -5.602573 0.186160 -5.603895
v -6.124987 0.186160 -5.027983
v -6.588621 0.186160 -4.403201
v -6.988190 0.186160 -3.736149
v -7.321056 0.186159 -3.032772
v -7.582593 0.186159 -2.300336
v -7.771481 0.186159 -1.546106
v -7.885738 0.186159 -0.776686
v -7.924044 0.186159 0.000000
v -0.000001 -0.000005 -7.925302
v -0.000001 0.186160 -7.925302
v 0.000000 -0.000006 -0.000000
v 0.000000 0.186159 0.000000
v -7.924044 -0.000005 -0.000000
v -7.924044 0.186159 0.000000
v -7.924044 -0.000005 -0.000000
v -0.000001 -0.000005 -7.925302
v -3.031454 -0.000005 -7.322378
v -3.031454 0.186160 -7.322378
v -3.734829 -0.000004 -6.989513
v -3.734829 0.186160 -6.989513
v -4.401881 -0.000004 -6.589942
v -4.401881 0.186160 -6.589942
v -5.026663 -0.000004 -6.126307
v -5.026663 0.186160 -6.126307
v -5.602573 -0.000004 -5.603895
v -5.602573 0.186160 -5.603895
v -6.124987 -0.000004 -5.027983
v -6.124987 0.186160 -5.027983
v -6.588621 -0.000004 -4.403201
v -6.588621 0.186160 -4.403201
v -6.988190 -0.000004 -3.736149
v -6.988190 0.186160 -3.736149
v -7.321056 -0.000005 -3.032772
v -7.321056 0.186159 -3.032772
v -7.582593 -0.000005 -2.300336
v -7.582593 0.186159 -2.300336
v -7.771481 -0.000005 -1.546106
v -7.771481 0.186159 -1.546106
v 0.776685 -0.000004 -7.885738
v -0.000001 -0.000004 -7.924044
v -0.000001 0.186160 -7.924044
v 0.776685 0.186160 -7.885738
v 0.000000 0.186159 0.000000
v 0.000000 -0.000006 -0.000000
v 7.925301 -0.000006 -0.000002
v 7.925301 0.186159 -0.000002
v 7.887061 -0.000006 -0.775366
v 7.772803 -0.000006 -1.544787
v 7.772803 0.186159 -1.544787
v 7.887061 0.186159 -0.775366
v 7.583914 -0.000006 -2.299017
v 7.583914 0.186159 -2.299017
v 1.546106 -0.000004 -7.771481
v 0.000000 -0.000006 -0.000000
v 0.776685 -0.000004 -7.885738
v 2.300336 -0.000004 -7.582593
v 3.032771 -0.000004 -7.321057
v 3.736148 -0.000004 -6.988191
v 4.403200 -0.000004 -6.588621
v 5.027982 -0.000004 -6.124987
v 5.603894 -0.000004 -5.602572
v 6.126307 -0.000004 -5.026664
v 6.589941 -0.000004 -4.401881
v 6.989512 -0.000004 -3.734829
v 7.322377 -0.000006 -3.031454
v 7.583914 -0.000006 -2.299017
v 7.772803 -0.000006 -1.544787
v 7.887061 -0.000006 -0.775366
v 0.000000 0.186159 0.000000
v 7.925301 0.186159 -0.000002
v 7.887061 0.186159 -0.775366
v 7.583914 0.186159 -2.299017
v 7.772803 0.186159 -1.544787
v 7.322377 0.186159 -3.031454
v 6.989512 0.186160 -3.734829
v 6.589941 0.186160 -4.401881
v 6.126307 0.186160 -5.026664
v 5.603894 0.186160 -5.602572
v 5.027982 0.186160 -6.124987
v 4.403200 0.186160 -6.588621
v 3.736148 0.186160 -6.988191
v 3.032771 0.186160 -7.321057
v 2.300336 0.186160 -7.582593
v 1.546106 0.186160 -7.771481
v 0.776685 0.186160 -7.885738
v -0.000001 0.186160 -7.924044
v 7.925301 -0.000006 -0.000002
v 7.925301 0.186159 -0.000002
v 0.000000 -0.000006 -0.000000
v 0.000000 0.186159 0.000000
v -0.000001 -0.000004 -7.924044
v -0.000001 0.186160 -7.924044
v -0.000001 -0.000004 -7.924044
v 7.925301 -0.000006 -0.000002
v 7.322377 -0.000006 -3.031454
v 7.322377 0.186159 -3.031454
v 6.989512 -0.000004 -3.734829
v 6.989512 0.186160 -3.734829
v 6.589941 -0.000004 -4.401881
v 6.589941 0.186160 -4.401881
v 6.126307 -0.000004 -5.026664
v 6.126307 0.186160 -5.026664
v 5.603894 -0.000004 -5.602572
v 5.603894 0.186160 -5.602572
v 5.027982 -0.000004 -6.124987
v 5.027982 0.186160 -6.124987
v 4.403200 -0.000004 -6.588621
v 4.403200 0.186160 -6.588621
v 3.736148 -0.000004 -6.988191
v 3.736148 0.186160 -6.988191
v 3.032771 -0.000004 -7.321057
v 3.032771 0.186160 -7.321057
v 2.300336 -0.000004 -7.582593
v 2.300336 0.186160 -7.582593
v 1.546106 -0.000004 -7.771481
v 1.546106 0.186160 -7.771481
v 7.885738 -0.000005 0.776684
v 7.924044 -0.000005 -0.000002
v 7.924044 0.186159 -0.000002
v 7.885738 0.186159 0.776684
v 0.000000 0.186159 0.000000
v 0.000000 -0.000006 -0.000000
v 0.000003 -0.000007 7.925301
v 0.000003 0.186158 7.925301
v 0.775366 -0.000007 7.887061
v 1.544787 -0.000007 7.772803
v 1.544787 0.186158 7.772803
v 0.775366 0.186158 7.887061
v 2.299018 -0.000007 7.583914
v 2.299018 0.186158 7.583914
v 7.771481 -0.000005 1.546105
v 0.000000 -0.000006 -0.000000
v 7.885738 -0.000005 0.776684
v 7.582593 -0.000005 2.300335
v 7.321057 -0.000005 3.032770
v 6.988191 -0.000006 3.736147
v 6.588621 -0.000006 4.403199
v 6.124987 -0.000006 5.027982
v 5.602573 -0.000006 5.603893
v 5.026664 -0.000006 6.126307
v 4.401882 -0.000006 6.589940
v 3.734831 -0.000006 6.989512
v 3.031455 -0.000007 7.322377
v 2.299018 -0.000007 7.583914
v 1.544787 -0.000007 7.772803
v 0.775366 -0.000007 7.887061
v 0.000000 0.186159 0.000000
v 0.000003 0.186158 7.925301
v 0.775366 0.186158 7.887061
v 2.299018 0.186158 7.583914
v 1.544787 0.186158 7.772803
v 3.031455 0.186158 7.322377
v 3.734831 0.186158 6.989512
v 4.401882 0.186158 6.589940
v 5.026664 0.186158 6.126307
v 5.602573 0.186158 5.603893
v 6.124987 0.186158 5.027982
v 6.588621 0.186158 4.403199
v 6.988191 0.186158 3.736147
v 7.321057 0.186159 3.032770
v 7.582593 0.186159 2.300335
v 7.771481 0.186159 1.546105
v 7.885738 0.186159 0.776684
v 7.924044 0.186159 -0.000002
v 0.000003 -0.000007 7.925301
v 0.000003 0.186158 7.925301
v 0.000000 -0.000006 -0.000000
v 0.000000 0.186159 0.000000
v 7.924044 -0.000005 -0.000002
v 7.924044 0.186159 -0.000002
v 7.924044 -0.000005 -0.000002
v 0.000003 -0.000007 7.925301
v 3.031455 -0.000007 7.322377
v 3.031455 0.186158 7.322377
v 3.734831 -0.000006 6.989512
v 3.734831 0.186158 6.989512
v 4.401882 -0.000006 6.589940
v 4.401882 0.186158 6.589940
v 5.026664 -0.000006 6.126307
v 5.026664 0.186158 6.126307
v 5.602573 -0.000006 5.603893
v 5.602573 0.186158 5.603893
v 6.124987 -0.000006 5.027982
v 6.124987 0.186158 5.027982
v 6.588621 -0.000006 4.403199
v 6.588621 0.186158 4.403199
v 6.988191 -0.000006 3.736147
v 6.988191 0.186158 3.736147
v 7.321057 -0.000005 3.032770
v 7.321057 0.186159 3.032770
v 7.582593 -0.000005 2.300335
v 7.582593 0.186159 2.300335
v 7.771481 -0.000005 1.546105
v 7.771481 0.186159 1.546105
vn -0.0982 0.0000 0.9952
vn -0.0493 0.0000 0.9988
vn -0.0000 0.0000 -1.0000
vn -0.9952 0.0000 0.0982
vn -0.9808 0.0000 0.1951
vn -0.9570 0.0000 0.2900
vn -0.0000 -1.0000 -0.0000
vn 0.0000 1.0000 0.0000
vn -0.9988 -0.0000 0.0493
vn 1.0000 0.0000 0.0000
vn -0.9240 0.0000 0.3825
vn -0.8819 0.0000 0.4714
vn -0.8315 0.0000 0.5556
vn -0.7728 0.0000 0.6347
vn -0.7071 0.0000 0.7071
vn -0.6347 0.0000 0.7728
vn -0.5556 0.0000 0.8315
vn -0.4714 0.0000 0.8819
vn -0.3825 0.0000 0.9240
vn -0.2900 0.0000 0.9570
vn -0.1951 0.0000 0.9808
vn -0.9952 -0.0000 -0.0982
vn -0.9988 -0.0000 -0.0493
vn -0.0982 0.0000 -0.9952
vn -0.1951 0.0000 -0.9808
vn -0.2900 0.0000 -0.9570
vn -0.0493 0.0000 -0.9988
vn 0.0000 -0.0000 1.0000
vn -0.3825 0.0000 -0.9240
vn -0.4714 0.0000 -0.8819
vn -0.5556 0.0000 -0.8315
vn -0.6347 0.0000 -0.7728
vn -0.7071 0.0000 -0.7071
vn -0.7728 0.0000 -0.6347
vn -0.8315 0.0000 -0.5556
vn -0.8819 0.0000 -0.4714
vn -0.9240 0.0000 -0.3825
vn -0.9570 0.0000 -0.2900
vn -0.9808 -0.0000 -0.1951
vn 0.0982 0.0000 -0.9952
vn 0.0493 0.0000 -0.9988
vn 0.9952 0.0000 -0.0982
vn 0.9808 0.0000 -0.1951
vn 0.9570 0.0000 -0.2900
vn 0.9988 0.0000 -0.0493
vn -1.0000 0.0000 0.0000
vn 0.9240 0.0000 -0.3825
vn 0.8819 0.0000 -0.4714
vn 0.8315 0.0000 -0.5556
vn 0.7728 0.0000 -0.6347
vn 0.7071 0.0000 -0.7071
vn 0.6347 0.0000 -0.7728
vn 0.5556 0.0000 -0.8315
vn 0.4714 0.0000 -0.8819
vn 0.3825 0.0000 -0.9240
vn 0.2900 0.0000 -0.9570
vn 0.1951 0.0000 -0.9808
vn 0.9952 0.0000 0.0982
vn 0.9988 0.0000 0.0493
vn 0.0982 0.0000 0.9952
vn 0.1951 0.0000 0.9808
vn 0.2900 0.0000 0.9570
vn 0.0493 0.0000 0.9988
vn 0.3825 0.0000 0.9240
vn 0.4714 0.0000 0.8819
vn 0.5556 0.0000 0.8315
vn 0.6347 0.0000 0.7728
vn 0.7071 0.0000 0.7071
vn 0.7728 0.0000 0.6347
vn 0.8315 0.0000 0.5556
vn 0.8819 0.0000 0.4714
vn 0.9240 0.0000 0.3825
vn 0.9570 0.0000 0.2900
vn 0.9808 0.0000 0.1951
usemtl color_7720667.008
s 1
f 1//1 2//2 3//2
f 1//1 3//2 4//1
f 5//3 6//3 7//3
f 5//3 7//3 8//3
f 9//4 10//5 11//5
f 9//4 11//5 12//4
f 10//5 13//6 14//6
f 10//5 14//6 11//5
f 15//7 16//7 17//7
f 18//7 16//7 15//7
f 19//7 16//7 18//7
f 20//7 16//7 19//7
f 21//7 16//7 20//7
f 22//7 16//7 21//7
f 23//7 16//7 22//7
f 24//7 16//7 23//7
f 25//7 16//7 24//7
f 26//7 16//7 25//7
f 27//7 16//7 26//7
f 28//7 16//7 27//7
f 29//7 16//7 28//7
f 30//7 16//7 29//7
f 31//8 32//8 33//8
f 34//8 31//8 35//8
f 36//8 31//8 34//8
f 37//8 31//8 36//8
f 38//8 31//8 37//8
f 39//8 31//8 38//8
f 40//8 31//8 39//8
f 41//8 31//8 40//8
f 42//8 31//8 41//8
f 43//8 31//8 42//8
f 44//8 31//8 43//8
f 45//8 31//8 44//8
f 46//8 31//8 45//8
f 47//8 31//8 46//8
f 48//8 31//8 47//8
f 33//8 35//8 31//8
f 9//4 12//4 49//9
f 50//9 49//9 12//4
f 51//10 52//10 53//10
f 53//10 52//10 54//10
f 55//7 17//7 16//7
f 56//7 16//7 30//7
f 13//6 57//11 58//11
f 13//6 58//11 14//6
f 57//11 59//12 60//12
f 57//11 60//12 58//11
f 59//12 61//13 62//13
f 59//12 62//13 60//12
f 61//13 63//14 64//14
f 61//13 64//14 62//13
f 63//14 65//15 66//15
f 63//14 66//15 64//14
f 65//15 67//16 68//16
f 65//15 68//16 66//15
f 67//16 69//17 70//17
f 67//16 70//17 68//16
f 69//17 71//18 72//18
f 69//17 72//18 70//17
f 71//18 73//19 74//19
f 71//18 74//19 72//18
f 73//19 75//20 76//20
f 73//19 76//20 74//19
f 75//20 77//21 78//21
f 75//20 78//21 76//20
f 77//21 1//1 4//1
f 77//21 4//1 78//21
f 79//22 80//23 81//23
f 79//22 81//23 82//22
f 83//10 84//10 85//10
f 83//10 85//10 86//10
f 87//24 88//25 89//25
f 87//24 89//25 90//24
f 88//25 91//26 92//26
f 88//25 92//26 89//25
f 93//7 94//7 95//7
f 96//7 94//7 93//7
f 97//7 94//7 96//7
f 98//7 94//7 97//7
f 99//7 94//7 98//7
f 100//7 94//7 99//7
f 101//7 94//7 100//7
f 102//7 94//7 101//7
f 103//7 94//7 102//7
f 104//7 94//7 103//7
f 105//7 94//7 104//7
f 106//7 94//7 105//7
f 107//7 94//7 106//7
f 108//7 94//7 107//7
f 109//8 110//8 111//8
f 112//8 109//8 113//8
f 114//8 109//8 112//8
f 115//8 109//8 114//8
f 116//8 109//8 115//8
f 117//8 109//8 116//8
f 118//8 109//8 117//8
f 119//8 109//8 118//8
f 120//8 109//8 119//8
f 121//8 109//8 120//8
f 122//8 109//8 121//8
f 123//8 109//8 122//8
f 124//8 109//8 123//8
f 125//8 109//8 124//8
f 126//8 109//8 125//8
f 111//8 113//8 109//8
f 87//24 90//24 127//27
f 128//27 127//27 90//24
f 129//28 130//28 131//28
f 131//28 130//28 132//28
f 133//7 95//7 94//7
f 134//7 94//7 108//7
f 91//26 135//29 136//29
f 91//26 136//29 92//26
f 135//29 137//30 138//30
f 135//29 138//30 136//29
f 137//30 139//31 140//31
f 137//30 140//31 138//30
f 139//31 141//32 142//32
f 139//31 142//32 140//31
f 141//32 143//33 144//33
f 141//32 144//33 142//32
f 143//33 145//34 146//34
f 143//33 146//34 144//33
f 145//34 147//35 148//35
f 145//34 148//35 146//34
f 147//35 149//36 150//36
f 147//35 150//36 148//35
f 149//36 151//37 152//37
f 149//36 152//37 150//36
f 151//37 153//38 154//38
f 151//37 154//38 152//37
f 153//38 155//39 156//39
f 153//38 156//39 154//38
f 155//39 79//22 82//22
f 155//39 82//22 156//39
f 157//40 158//41 159//41
f 157//40 159//41 160//40
f 161//28 162//28 163//28
f 161//28 163//28 164//28
f 165//42 166//43 167//43
f 165//42 167//43 168//42
f 166//43 169//44 170//44
f 166//43 170//44 167//43
f 171//7 172//7 173//7
f 174//7 172//7 171//7
f 175//7 172//7 174//7
f 176//7 172//7 175//7
f 177//7 172//7 176//7
f 178//7 172//7 177//7
f 179//7 172//7 178//7
f 180//7 172//7 179//7
f 181//7 172//7 180//7
f 182//7 172//7 181//7
f 183//7 172//7 182//7
f 184//7 172//7 183//7
f 185//7 172//7 184//7
f 186//7 172//7 185//7
f 187//8 188//8 189//8
f 190//8 187//8 191//8
f 192//8 187//8 190//8
f 193//8 187//8 192//8
f 194//8 187//8 193//8
f 195//8 187//8 194//8
f 196//8 187//8 195//8
f 197//8 187//8 196//8
f 198//8 187//8 197//8
f 199//8 187//8 198//8
f 200//8 187//8 199//8
f 201//8 187//8 200//8
f 202//8 187//8 201//8
f 203//8 187//8 202//8
f 204//8 187//8 203//8
f 189//8 191//8 187//8
f 165//42 168//42 205//45
f 206//45 205//45 168//42
f 207//46 208//46 209//46
f 209//46 208//46 210//46
f 211//7 173//7 172//7
f 212//7 172//7 186//7
f 169//44 213//47 214//47
f 169//44 214//47 170//44
f 213//47 215//48 216//48
f 213//47 216//48 214//47
f 215//48 217//49 218//49
f 215//48 218//49 216//48
f 217//49 219//50 220//50
f 217//49 220//50 218//49
f 219//50 221//51 222//51
f 219//50 222//51 220//50
f 221//51 223//52 224//52
f 221//51 224//52 222//51
f 223//52 225//53 226//53
f 223//52 226//53 224//52
f 225//53 227//54 228//54
f 225//53 228//54 226//53
f 227//54 229//55 230//55
f 227//54 230//55 228//54
f 229//55 231//56 232//56
f 229//55 232//56 230//55
f 231//56 233//57 234//57
f 231//56 234//57 232//56
f 233//57 157//40 160//40
f 233//57 160//40 234//57
f 235//58 236//59 237//59
f 235//58 237//59 238//58
f 239//46 240//46 241//46
f 239//46 241//46 242//46
f 243//60 244//61 245//61
f 243//60 245//61 246//60
f 244//61 247//62 248//62
f 244//61 248//62 245//61
f 249//7 250//7 251//7
f 252//7 250//7 249//7
f 253//7 250//7 252//7
f 254//7 250//7 253//7
f 255//7 250//7 254//7
f 256//7 250//7 255//7
f 257//7 250//7 256//7
f 258//7 250//7 257//7
f 259//7 250//7 258//7
f 260//7 250//7 259//7
f 261//7 250//7 260//7
f 262//7 250//7 261//7
f 263//7 250//7 262//7
f 264//7 250//7 263//7
f 265//8 266//8 267//8
f 268//8 265//8 269//8
f 270//8 265//8 268//8
f 271//8 265//8 270//8
f 272//8 265//8 271//8
f 273//8 265//8 272//8
f 274//8 265//8 273//8
f 275//8 265//8 274//8
f 276//8 265//8 275//8
f 277//8 265//8 276//8
f 278//8 265//8 277//8
f 279//8 265//8 278//8
f 280//8 265//8 279//8
f 281//8 265//8 280//8
f 282//8 265//8 281//8
f 267//8 269//8 265//8
f 243//60 246//60 283//63
f 284//63 283//63 246//60
f 285//3 286//3 287//3
f 287//3 286//3 288//3
f 289//7 251//7 250//7
f 290//7 250//7 264//7
f 247//62 291//64 292//64
f 247//62 292//64 248//62
f 291//64 293//65 294//65
f 291//64 294//65 292//64
f 293//65 295//66 296//66
f 293//65 296//66 294//65
f 295//66 297//67 298//67
f 295//66 298//67 296//66
f 297//67 299//68 300//68
f 297//67 300//68 298//67
f 299//68 301//69 302//69
f 299//68 302//69 300//68
f 301//69 303//70 304//70
f 301//69 304//70 302//69
f 303//70 305//71 306//71
f 303//70 306//71 304//70
f 305//71 307//72 308//72
f 305//71 308//72 306//71
f 307//72 309//73 310//73
f 307//72 310//73 308//72
f 309//73 311//74 312//74
f 309//73 312//74 310//73
f 311//74 235//58 238//58
f 311//74 238//58 312//74
