# Blender v2.82 (sub 7) OBJ File: ''
# www.blender.org
mtllib base_resized.mtl
o Fusion001
v -3.500000 4.000000 -0.005000
v -3.500000 8.500000 0.005000
v -3.500000 8.500000 -0.005000
v -3.500000 4.000000 0.005000
v 0.000000 4.000000 0.005000
v 3.500000 4.000000 0.005000
v 3.500000 8.500000 0.005000
v 3.500000 8.500000 -0.005000
v 0.000000 4.000000 -0.005000
v 3.500000 4.000000 -0.005000
v -0.004115 4.000000 0.002840
v -0.003316 4.000000 0.003743
v -0.002324 4.000000 0.004427
v -0.004675 4.000000 0.001773
v -0.001197 4.000000 0.004855
v -0.004963 4.000000 0.000603
v -0.004963 4.000000 -0.000603
v -0.004675 4.000000 -0.001773
v -0.004115 4.000000 -0.002840
v -0.001197 4.000000 -0.004855
v -0.002324 4.000000 -0.004427
v -0.003316 4.000000 -0.003743
v 0.001113 4.000000 0.004875
v 0.002169 4.000000 0.004505
v 0.003117 4.000000 0.003909
v 0.003909 4.000000 0.003117
v 0.004505 4.000000 0.002169
v 0.004875 4.000000 0.001113
v 0.005000 4.000000 0.000000
v 0.004875 4.000000 -0.001113
v 0.004505 4.000000 -0.002169
v 0.003909 4.000000 -0.003117
v 0.001113 4.000000 -0.004875
v 0.002169 4.000000 -0.004505
v 0.003117 4.000000 -0.003909
v 0.012054 3.905000 0.099271
v 0.035460 3.905000 0.093502
v 0.056807 3.905000 0.082298
v -0.035460 3.905000 -0.093502
v -0.056807 3.905000 -0.082298
v 0.074851 3.905000 0.066312
v 0.088546 3.905000 0.046472
v -0.074851 3.905000 -0.066312
v 0.097094 3.905000 0.023932
v 0.100000 3.905000 0.000000
v -0.088546 3.905000 -0.046472
v 0.097094 3.905000 -0.023932
v -0.097094 3.905000 -0.023932
v -0.100000 3.905000 0.000000
v 0.088546 3.905000 -0.046472
v -0.097094 3.905000 0.023932
v 0.074851 3.905000 -0.066312
v -0.088546 3.905000 0.046472
v 0.056807 3.905000 -0.082298
v -0.074851 3.905000 0.066312
v 0.035460 3.905000 -0.093502
v -0.056807 3.905000 0.082298
v 0.012054 3.905000 -0.099271
v -0.035460 3.905000 0.093502
v -0.012054 3.905000 -0.099271
v -0.012054 3.905000 0.099271
v -0.035460 0.050000 0.093502
v -0.012054 0.050000 0.099271
v 0.012054 0.050000 0.099271
v 0.035460 0.050000 0.093502
v 0.100000 0.050000 0.000000
v 0.097094 0.050000 -0.023932
v 0.056807 0.050000 0.082298
v 0.088546 0.050000 -0.046472
v 0.074851 0.050000 0.066312
v 0.074851 0.050000 -0.066312
v 0.088546 0.050000 0.046472
v 0.097094 0.050000 0.023932
v 0.056807 0.050000 -0.082298
v 0.035460 0.050000 -0.093502
v 0.012054 0.050000 -0.099271
v -0.012054 0.050000 -0.099271
v -0.035460 0.050000 -0.093502
v -0.056807 0.050000 -0.082298
v -0.074851 0.050000 -0.066312
v -0.088546 0.050000 -0.046472
v -0.097094 0.050000 -0.023932
v -0.100000 0.050000 0.000000
v -0.097094 0.050000 0.023932
v -0.088546 0.050000 0.046472
v -0.074851 0.050000 0.066312
v -0.056807 0.050000 0.082298
v 0.883883 0.050000 0.883883
v 1.039337 0.050000 0.694463
v -0.478354 0.050000 1.154849
v -0.883883 0.050000 -0.883883
v -0.694463 0.050000 -1.039337
v -0.243863 0.050000 1.225982
v -1.039337 0.050000 0.694463
v -1.154849 0.050000 0.478354
v -0.694463 0.050000 1.039337
v -0.883883 0.050000 0.883883
v 1.039337 0.050000 -0.694463
v 0.883883 0.050000 -0.883883
v 0.694463 0.050000 -1.039337
v 0.478354 0.050000 -1.154849
v 0.694463 0.050000 1.039337
v -1.039337 0.050000 -0.694463
v 1.154849 0.050000 -0.478354
v 0.243863 0.050000 -1.225982
v 0.478354 0.050000 1.154849
v -1.154849 0.050000 -0.478354
v 1.225982 0.050000 -0.243863
v 0.000000 0.050000 -1.250000
v 0.243863 0.050000 1.225982
v -1.225982 0.050000 -0.243863
v 1.225982 0.050000 0.243863
v 1.250000 0.050000 0.000000
v -0.243863 0.050000 -1.225982
v -1.250000 0.050000 0.000000
v 1.154849 0.050000 0.478354
v 0.000000 0.050000 1.250000
v -0.478354 0.050000 -1.154849
v -1.225982 0.050000 0.243863
v -1.227034 0.250000 -0.238511
v -1.239775 0.250000 -0.159552
v -1.157613 0.250000 -0.471628
v 1.156926 0.250000 0.473311
v 1.226511 0.250000 0.241188
v -1.247441 0.250000 -0.079940
v -1.250000 0.250000 0.000000
v 1.250000 0.250000 0.000000
v 1.226511 0.250000 -0.241188
v -1.247441 0.250000 0.079940
v -1.239775 0.250000 0.159552
v 1.156926 0.250000 -0.473311
v -1.227034 0.250000 0.238511
v -1.157613 0.250000 0.471628
v 1.043860 0.250000 -0.687645
v -1.044360 0.250000 0.686886
v 0.891563 0.250000 -0.876137
v 0.886451 0.250000 -0.881309
v 0.881309 0.250000 -0.886451
v 0.876137 0.250000 -0.891563
v -0.891563 0.250000 0.876137
v 0.687645 0.250000 -1.043860
v -0.886451 0.250000 0.881309
v -0.881309 0.250000 0.886451
v -0.876137 0.250000 0.891563
v 0.473311 0.250000 -1.156926
v -0.687645 0.250000 1.043860
v -0.473311 0.250000 1.156926
v 0.241188 0.250000 -1.226511
v -0.241188 0.250000 1.226511
v 0.000000 0.250000 -1.250000
v -0.241188 0.250000 -1.226511
v 0.000000 0.250000 1.250000
v -0.473311 0.250000 -1.156926
v 0.241188 0.250000 1.226511
v 0.473311 0.250000 1.156926
v -0.687645 0.250000 -1.043860
v 0.687645 0.250000 1.043860
v -0.876137 0.250000 -0.891563
v -0.881309 0.250000 -0.886451
v -0.886451 0.250000 -0.881309
v 0.876137 0.250000 0.891563
v -0.891563 0.250000 -0.876137
v -1.044360 0.250000 -0.686886
v 0.881309 0.250000 0.886451
v 0.886451 0.250000 0.881309
v 0.891563 0.250000 0.876137
v 1.043860 0.250000 0.687645
v 1.193388 0.250000 -0.823605
v 1.034213 0.250000 -1.016318
v 1.034084 0.250000 -1.016192
v 1.317102 0.250000 -0.606418
v 1.401678 0.250000 -0.371212
v 1.444604 0.250000 -0.124975
v 1.444604 0.250000 0.124975
v 1.401678 0.250000 0.371212
v 1.317102 0.250000 0.606418
v 1.193388 0.250000 0.823605
v 1.034084 0.250000 1.016192
v 1.034213 0.250000 1.016318
v 0.876137 0.260000 0.891563
v 0.881309 0.260000 0.886451
v 0.886451 0.260000 0.881309
v 0.891563 0.260000 0.876137
v 0.823605 0.250000 1.193388
v 1.016192 0.250000 1.034084
v 1.016318 0.250000 1.034213
v 0.606418 0.250000 1.317102
v 0.371212 0.250000 1.401678
v 0.124975 0.250000 1.444604
v -0.124975 0.250000 1.444604
v -0.371212 0.250000 1.401678
v -0.606418 0.250000 1.317102
v -0.823605 0.250000 1.193388
v -1.016192 0.250000 1.034084
v -1.016318 0.250000 1.034213
v -0.886451 0.250000 0.881309
v -0.891563 0.260000 0.876137
v -0.886451 0.260000 0.881309
v -0.891563 0.250000 0.876137
v -0.881309 0.250000 0.886451
v -0.881309 0.260000 0.886451
v -0.876137 0.250000 0.891563
v -0.876137 0.260000 0.891563
v -1.367883 0.250000 0.481037
v -1.423182 0.250000 0.276639
v -1.423359 0.250000 0.276673
v -1.283232 0.250000 0.675141
v -1.171212 0.250000 0.854846
v -1.034084 0.250000 1.016192
v -1.034213 0.250000 1.016318
v -1.227034 0.260000 -0.238511
v -1.247441 0.260000 -0.079940
v -1.247441 0.260000 0.079940
v -1.227034 0.260000 0.238511
v -1.171212 0.250000 -0.854846
v -1.034084 0.250000 -1.016192
v -1.034213 0.250000 -1.016318
v -1.283232 0.250000 -0.675141
v -1.367883 0.250000 -0.481037
v -1.423182 0.250000 -0.276639
v -1.423359 0.250000 -0.276673
v -0.876137 0.260000 -0.891563
v -0.881309 0.260000 -0.886451
v -0.886451 0.260000 -0.881309
v -0.891563 0.260000 -0.876137
v 0.823605 0.250000 -1.193388
v 1.016192 0.250000 -1.034084
v 1.016318 0.250000 -1.034213
v 0.606418 0.250000 -1.317102
v 0.371212 0.250000 -1.401678
v 0.124975 0.250000 -1.444604
v -0.124975 0.250000 -1.444604
v -0.371212 0.250000 -1.401678
v -0.606418 0.250000 -1.317102
v -0.823605 0.250000 -1.193388
v -1.016192 0.250000 -1.034084
v -1.016318 0.250000 -1.034213
v 0.891563 0.260000 -0.876137
v 0.886451 0.260000 -0.881309
v 0.881309 0.260000 -0.886451
v 0.876137 0.260000 -0.891563
v 1.255321 0.058320 1.233600
v 1.248188 0.049470 1.226591
v 1.248188 0.050000 1.226591
v 1.255321 0.000000 1.233600
v 1.249722 0.000000 1.228098
v 1.039989 0.260000 1.021994
v 1.248188 0.049470 -1.226591
v 1.255321 0.058320 -1.233600
v 1.248188 0.050000 -1.226591
v 1.255321 0.000000 -1.233600
v 1.249722 0.000000 -1.228098
v 1.039989 0.260000 -1.021994
v 1.422926 0.050000 1.018715
v 1.563400 0.050000 0.786308
v 1.666226 0.050000 0.534967
v 1.728930 0.050000 0.270743
v 1.750000 0.050000 0.000000
v 1.728930 0.050000 -0.270743
v 1.666226 0.050000 -0.534967
v 1.563400 0.050000 -0.786308
v 1.422926 0.050000 -1.018715
v 1.028027 0.260000 1.034026
v 1.021994 0.260000 1.039989
v 1.034026 0.260000 1.028027
v 1.226591 0.049470 1.248188
v 1.233600 0.058320 1.255321
v 1.226591 0.050000 1.248188
v 1.233600 0.000000 1.255321
v 1.228098 0.000000 1.249722
v -1.226591 0.050000 1.248188
v -1.018715 0.050000 1.422926
v -0.786308 0.050000 1.563400
v -0.534967 0.050000 1.666226
v -0.270743 0.050000 1.728930
v 0.000000 0.050000 1.750000
v 0.270743 0.050000 1.728930
v 0.534967 0.050000 1.666226
v 0.786308 0.050000 1.563400
v 1.018715 0.050000 1.422926
v -1.233600 0.058320 1.255321
v -1.226591 0.049470 1.248188
v -1.233600 0.000000 1.255321
v -1.228098 0.000000 1.249722
v -1.021994 0.260000 1.039989
v -0.876137 0.260000 0.891563
v -1.034026 0.260000 1.028027
v -1.039989 0.260000 1.021994
v -1.028027 0.260000 1.034026
v -1.021994 0.260000 1.039989
v -1.248188 0.049470 1.226591
v -1.255321 0.058320 1.233600
v -1.248188 0.050000 1.226591
v -1.255321 0.000000 1.233600
v -1.249722 0.000000 1.228098
v -1.039989 0.260000 1.021994
v -0.891563 0.260000 0.876137
v -1.717848 0.050000 0.333916
v -1.650893 0.050000 0.580562
v -1.548728 0.050000 0.814825
v -1.413532 0.050000 1.031711
v -1.719958 0.000000 0.334326
v -1.717848 0.049470 0.333916
v -1.727664 0.000000 0.335824
v -1.727664 0.058320 0.335824
v -1.431308 0.260000 0.278218
v -1.431308 0.260000 -0.278218
v -1.455113 0.260000 -0.093248
v -1.455113 0.260000 0.093248
v -1.717848 0.049470 -0.333916
v -1.719958 0.000000 -0.334326
v -1.727664 0.000000 -0.335824
v -1.727664 0.058320 -0.335824
v -1.717848 0.050000 -0.333916
v -1.255321 0.058320 -1.233600
v -1.248188 0.049470 -1.226591
v -1.248188 0.050000 -1.226591
v -1.255321 0.000000 -1.233600
v -1.249722 0.000000 -1.228098
v -1.039989 0.260000 -1.021994
v -1.413532 0.050000 -1.031711
v -1.548728 0.050000 -0.814825
v -1.650893 0.050000 -0.580562
v -1.021994 0.260000 -1.039989
v -1.028027 0.260000 -1.034026
v -1.034026 0.260000 -1.028027
v -1.226591 0.049470 -1.248188
v -1.233600 0.058320 -1.255321
v -1.226591 0.050000 -1.248188
v -1.233600 0.000000 -1.255321
v -1.228098 0.000000 -1.249722
v 1.233600 0.058320 -1.255321
v 1.226591 0.049470 -1.248188
v 1.226591 0.050000 -1.248188
v 1.233600 0.000000 -1.255321
v 1.228098 0.000000 -1.249722
v 1.021994 0.260000 -1.039989
v 1.018715 0.050000 -1.422926
v 0.786308 0.050000 -1.563400
v 0.534967 0.050000 -1.666226
v 0.270743 0.050000 -1.728930
v 0.000000 0.050000 -1.750000
v -0.270743 0.050000 -1.728930
v -0.534967 0.050000 -1.666226
v -0.786308 0.050000 -1.563400
v -1.018715 0.050000 -1.422926
v 1.034026 0.260000 -1.028027
v 1.028027 0.260000 -1.034026
v 1.240883 0.000000 1.248123
v 1.235348 0.000000 1.242556
v 1.248123 0.000000 1.240883
v 1.242556 0.000000 1.235348
v -1.746418 0.049470 0.111916
v -1.750000 0.050000 0.000000
v -1.750000 0.049470 0.000000
v -1.746418 0.050000 0.111916
v -1.735686 0.049470 0.223373
v -1.735686 0.050000 0.223373
v -1.650893 0.000000 0.580562
v -1.548728 0.000000 0.814825
v -1.413532 0.000000 1.031711
v -1.241031 0.050000 1.233832
v -1.241031 0.049470 1.233832
v -1.233832 0.050000 1.241031
v -1.233832 0.049470 1.241031
v -1.018715 0.000000 1.422926
v -0.786308 0.000000 1.563400
v -0.534967 0.000000 1.666226
v -0.270743 0.000000 1.728930
v 0.000000 0.000000 1.750000
v 0.270743 0.000000 1.728930
v 0.534967 0.000000 1.666226
v 0.786308 0.000000 1.563400
v 1.018715 0.000000 1.422926
v 1.233832 0.050000 1.241031
v 1.233832 0.049470 1.241031
v 1.241031 0.050000 1.233832
v 1.241031 0.049470 1.233832
v 1.422926 0.000000 1.018715
v 1.563400 0.000000 0.786308
v 1.666226 0.000000 0.534967
v 1.728930 0.000000 0.270743
v 1.750000 0.000000 0.000000
v 1.728930 0.000000 -0.270743
v 1.666226 0.000000 -0.534967
v 1.563400 0.000000 -0.786308
v 1.422926 0.000000 -1.018715
v 1.241031 0.050000 -1.233832
v 1.241031 0.049470 -1.233832
v 1.233832 0.050000 -1.241031
v 1.233832 0.049470 -1.241031
v 1.018715 0.000000 -1.422926
v 0.786308 0.000000 -1.563400
v 0.534967 0.000000 -1.666226
v 0.270743 0.000000 -1.728930
v 0.000000 0.000000 -1.750000
v -0.270743 0.000000 -1.728930
v -0.534967 0.000000 -1.666226
v -0.786308 0.000000 -1.563400
v -1.018715 0.000000 -1.422926
v -1.233832 0.050000 -1.241031
v -1.233832 0.049470 -1.241031
v -1.241031 0.050000 -1.233832
v -1.241031 0.049470 -1.233832
v -1.413532 0.000000 -1.031711
v -1.548728 0.000000 -0.814825
v -1.650893 0.000000 -0.580562
v -1.735686 0.049470 -0.223373
v -1.735686 0.050000 -0.223373
v -1.746418 0.049470 -0.111916
v -1.746418 0.050000 -0.111916
v 1.240883 0.058320 1.248123
v 1.248123 0.058320 1.240883
v 1.022190 0.250000 1.028155
v 1.028155 0.250000 1.022190
v 1.242556 0.000000 -1.235348
v 1.248123 0.000000 -1.240883
v 1.255321 0.000000 -1.233600
v 1.249722 0.000000 -1.228098
v 1.240883 0.000000 -1.248123
v 1.235348 0.000000 -1.242556
v 1.228098 0.000000 -1.249722
v 1.233600 0.000000 -1.255321
v 1.248123 0.058320 -1.240883
v 1.240883 0.058320 -1.248123
v 1.034084 0.250000 -1.016192
v 1.028155 0.250000 -1.022190
v 1.022190 0.250000 -1.028155
v -1.248123 0.000000 1.240883
v -1.255321 0.000000 1.233600
v -1.249722 0.000000 1.228098
v -1.242556 0.000000 1.235348
v -1.240883 0.000000 1.248123
v -1.235348 0.000000 1.242556
v -1.228098 0.000000 1.249722
v -1.233600 0.000000 1.255321
v -1.248123 0.058320 1.240883
v -1.240883 0.058320 1.248123
v -1.233600 0.058320 1.255321
v -1.034084 0.250000 1.016192
v -1.028155 0.250000 1.022190
v -1.233832 0.049470 1.241031
v -1.022190 0.250000 1.028155
v -1.016192 0.250000 1.034084
v -1.735686 0.000000 -0.223373
v -1.746418 0.000000 -0.111916
v -1.756397 0.000000 -0.112555
v -1.750000 0.000000 0.000000
v -1.746418 0.000000 0.111916
v -1.756397 0.000000 0.112555
v -1.735686 0.000000 0.223373
v -1.756397 0.058320 -0.112555
v -1.756397 0.058320 0.112555
v -1.446851 0.250000 -0.092718
v -1.446851 0.250000 0.092718
v -1.235348 0.000000 -1.242556
v -1.240883 0.000000 -1.248123
v -1.233600 0.000000 -1.255321
v -1.228098 0.000000 -1.249722
v -1.248123 0.000000 -1.240883
v -1.242556 0.000000 -1.235348
v -1.249722 0.000000 -1.228098
v -1.255321 0.000000 -1.233600
v -1.240883 0.058320 -1.248123
v -1.248123 0.058320 -1.240883
v -1.022190 0.250000 -1.028155
v -1.028155 0.250000 -1.022190
v -1.242556 0.000000 -1.235348
v -1.235348 0.000000 -1.242556
v -1.235348 0.000000 1.242556
v -1.242556 0.000000 1.235348
v 1.235348 0.000000 -1.242556
v 1.242556 0.000000 -1.235348
v -1.447032 0.250000 0.092730
v -1.450000 0.250000 0.000000
v -1.438140 0.250000 0.185080
v -1.028283 0.250000 1.022318
v -1.022318 0.250000 1.028283
v 1.022318 0.250000 1.028283
v 1.028283 0.250000 1.022318
v 1.028283 0.250000 -1.022318
v 1.022318 0.250000 -1.028283
v -1.022318 0.250000 -1.028283
v -1.028283 0.250000 -1.022318
v -1.438140 0.250000 -0.185080
v -1.447032 0.250000 -0.092730
v -1.028155 0.250000 1.022190
v -1.022190 0.250000 1.028155
vt 0.983673 0.401639
vt 0.982884 0.088456
vt 0.983673 0.088456
vt 0.982884 0.401639
vt 0.053237 0.316663
vt 0.408151 0.560249
vt 0.053237 0.560249
vt 0.053237 0.073076
vt 0.408151 0.073076
vt 0.999882 0.936379
vt 0.999093 0.512238
vt 0.999882 0.512238
vt 0.999093 0.936379
vt 0.869539 0.073076
vt 0.514625 0.316663
vt 0.514625 0.073076
vt 0.869539 0.560249
vt 0.514625 0.560249
vt 0.979247 0.320528
vt 0.979077 0.077227
vt 0.979148 0.077172
vt 0.979202 0.077103
vt 0.978993 0.077266
vt 0.979236 0.077024
vt 0.978900 0.077286
vt 0.979247 0.076941
vt 0.978458 0.320528
vt 0.978805 0.077286
vt 0.978713 0.077266
vt 0.978629 0.077227
vt 0.978458 0.076941
vt 0.978470 0.077024
vt 0.978503 0.077103
vt 0.978557 0.077172
vt 0.980263 0.320450
vt 0.980272 0.076941
vt 0.980272 0.320528
vt 0.980233 0.320377
vt 0.980186 0.320311
vt 0.980124 0.320256
vt 0.980049 0.320214
vt 0.979966 0.320189
vt 0.979878 0.320180
vt 0.979790 0.320189
vt 0.979484 0.076941
vt 0.979707 0.320214
vt 0.979632 0.320256
vt 0.979484 0.320528
vt 0.979494 0.320450
vt 0.979523 0.320377
vt 0.979570 0.320311
vt 0.983909 0.401628
vt 0.984695 0.088455
vt 0.984695 0.401628
vt 0.983909 0.088455
vt 0.957206 0.316141
vt 0.957118 0.316141
vt 0.958055 0.309530
vt 0.934655 0.839655
vt 0.934732 0.839644
vt 0.933119 0.847673
vt 0.931407 0.847666
vt 0.956326 0.764758
vt 0.956238 0.764758
vt 0.958953 0.758146
vt 0.960635 0.758146
vt 0.934575 0.839649
vt 0.929698 0.847270
vt 0.934497 0.839626
vt 0.928089 0.846509
vt 0.956405 0.764758
vt 0.962056 0.758146
vt 0.934423 0.839588
vt 0.926674 0.845426
vt 0.934359 0.839536
vt 0.925537 0.844086
vt 0.934306 0.839473
vt 0.970402 0.764769
vt 0.965396 0.758150
vt 0.966960 0.758149
vt 0.970330 0.764769
vt 0.970486 0.764769
vt 0.934269 0.839403
vt 0.924742 0.842565
vt 0.968738 0.758148
vt 0.970578 0.764769
vt 0.970626 0.758147
vt 0.934248 0.839328
vt 0.924336 0.840952
vt 0.970673 0.764769
vt 0.972513 0.758148
vt 0.934245 0.839253
vt 0.924342 0.839341
vt 0.970765 0.764769
vt 0.974291 0.758149
vt 0.934259 0.839181
vt 0.924761 0.837826
vt 0.970850 0.764769
vt 0.975856 0.758150
vt 0.934291 0.839116
vt 0.925568 0.836494
vt 0.956857 0.316141
vt 0.951206 0.309530
vt 0.952627 0.309530
vt 0.934339 0.839061
vt 0.926715 0.835423
vt 0.970921 0.764769
vt 0.956935 0.316141
vt 0.954309 0.309530
vt 0.956143 0.764758
vt 0.955206 0.758146
vt 0.957107 0.758146
vt 0.957024 0.316141
vt 0.956154 0.309530
vt 0.956055 0.764758
vt 0.934732 0.847292
vt 0.954309 0.041236
vt 0.956154 0.041236
vt 0.958055 0.041236
vt 0.959902 0.041236
vt 0.973306 0.308547
vt 0.971406 0.040263
vt 0.973306 0.040262
vt 0.959902 0.309530
vt 0.961587 0.041236
vt 0.971406 0.308547
vt 0.975131 0.308543
vt 0.975131 0.040258
vt 0.961587 0.309530
vt 0.963013 0.309530
vt 0.963013 0.041236
vt 0.976776 0.308536
vt 0.976776 0.040251
vt 0.966348 0.308530
vt 0.966348 0.040245
vt 0.967823 0.040254
vt 0.967823 0.308539
vt 0.969543 0.040260
vt 0.951674 0.758146
vt 0.950249 0.489852
vt 0.951674 0.489852
vt 0.950249 0.758146
vt 0.969543 0.308544
vt 0.953359 0.758146
vt 0.953359 0.489852
vt 0.955206 0.489852
vt 0.957107 0.489852
vt 0.958953 0.489852
vt 0.960635 0.489852
vt 0.962056 0.489852
vt 0.965396 0.489857
vt 0.966960 0.489855
vt 0.968738 0.489854
vt 0.970626 0.489854
vt 0.972513 0.489854
vt 0.974291 0.489855
vt 0.975856 0.489857
vt 0.951206 0.041236
vt 0.952627 0.041236
vt 0.710135 0.811871
vt 0.698224 0.799541
vt 0.759975 0.750991
vt 0.805157 0.823609
vt 0.767706 0.752306
vt 0.769090 0.751418
vt 0.819164 0.680140
vt 0.767981 0.740005
vt 0.805157 0.670341
vt 0.789594 0.829755
vt 0.840434 0.788781
vt 0.770217 0.750216
vt 0.771020 0.748770
vt 0.846881 0.773198
vt 0.769324 0.741020
vt 0.819164 0.814480
vt 0.831075 0.802720
vt 0.761318 0.752007
vt 0.759082 0.741795
vt 0.688865 0.703231
vt 0.698224 0.689291
vt 0.760209 0.740593
vt 0.710135 0.677531
vt 0.724142 0.668403
vt 0.724142 0.821670
vt 0.831075 0.692470
vt 0.770394 0.742325
vt 0.758279 0.743242
vt 0.682418 0.718814
vt 0.761593 0.739706
vt 0.739705 0.662256
vt 0.739705 0.828561
vt 0.762854 0.752673
vt 0.840434 0.706858
vt 0.771131 0.743844
vt 0.757846 0.744849
vt 0.679132 0.735442
vt 0.763156 0.739184
vt 0.756227 0.659328
vt 0.756227 0.832280
vt 0.764494 0.752952
vt 0.846881 0.722749
vt 0.771491 0.745488
vt 0.757808 0.746523
vt 0.682418 0.769262
vt 0.679132 0.752477
vt 0.764805 0.739060
vt 0.773072 0.659732
vt 0.850167 0.739535
vt 0.758168 0.748168
vt 0.688865 0.785154
vt 0.773072 0.832683
vt 0.766143 0.752827
vt 0.766445 0.739339
vt 0.789594 0.663450
vt 0.758905 0.749687
vt 0.850167 0.756569
vt 0.771453 0.747163
vt 0.979927 0.509634
vt 0.995699 0.509991
vt 0.995691 0.515399
vt 0.995744 0.494196
vt 0.941783 0.770355
vt 0.926017 0.786324
vt 0.926009 0.770169
vt 0.979911 0.526422
vt 0.941791 0.786675
vt 0.995686 0.520881
vt 0.995685 0.526413
vt 0.941780 0.753383
vt 0.926006 0.753383
vt 0.926009 0.736598
vt 0.995686 0.531974
vt 0.995691 0.537539
vt 0.941783 0.736411
vt 0.926017 0.720443
vt 0.979927 0.543473
vt 0.995699 0.543087
vt 0.995744 0.559640
vt 0.941791 0.720092
vt 0.926031 0.705526
vt 0.979973 0.560131
vt 0.995818 0.575195
vt 0.941805 0.705051
vt 0.926049 0.692408
vt 0.980047 0.575757
vt 0.941824 0.691868
vt 0.926050 0.692048
vt 0.926051 0.691690
vt 0.898953 0.804558
vt 0.883179 0.804705
vt 0.883169 0.804346
vt 0.995916 0.589160
vt 0.980148 0.589749
vt 0.898603 0.791398
vt 0.882821 0.791251
vt 0.995920 0.589547
vt 0.995923 0.589932
vt 0.995926 0.590315
vt 0.898204 0.776377
vt 0.882425 0.776352
vt 0.996472 0.737079
vt 0.996472 0.750282
vt 0.980698 0.749741
vt 0.980698 0.736604
vt 0.996471 0.722024
vt 0.980697 0.721673
vt 0.897771 0.760071
vt 0.881996 0.760211
vt 0.897320 0.743106
vt 0.996471 0.705695
vt 0.980697 0.705509
vt 0.881551 0.743433
vt 0.881105 0.726649
vt 0.996471 0.688720
vt 0.980697 0.688720
vt 0.896869 0.726136
vt 0.880676 0.710489
vt 0.980697 0.671937
vt 0.896436 0.709812
vt 0.996471 0.671751
vt 0.980697 0.655791
vt 0.880279 0.695562
vt 0.996471 0.655441
vt 0.980698 0.640889
vt 0.896036 0.694761
vt 0.879930 0.682428
vt 0.895686 0.681562
vt 0.879921 0.682068
vt 0.879911 0.681709
vt 0.996472 0.640415
vt 0.980698 0.627790
vt 0.879902 0.681353
vt 0.980047 0.479391
vt 0.980148 0.467099
vt 0.995916 0.467586
vt 0.995818 0.479881
vt 0.996472 0.627252
vt 0.980698 0.627431
vt 0.941824 0.814898
vt 0.926051 0.815077
vt 0.926050 0.814719
vt 0.926049 0.814359
vt 0.979973 0.493754
vt 0.941805 0.801715
vt 0.926031 0.801241
vt 0.438861 0.733326
vt 0.450022 0.720063
vt 0.450030 0.720072
vt 0.459647 0.729950
vt 0.448964 0.742926
vt 0.430106 0.748325
vt 0.440943 0.757736
vt 0.424016 0.764615
vt 0.435886 0.773825
vt 0.420772 0.781710
vt 0.433983 0.790587
vt 0.420471 0.799104
vt 0.435305 0.807392
vt 0.423122 0.816279
vt 0.439803 0.823610
vt 0.428646 0.832724
vt 0.447308 0.838629
vt 0.436878 0.847952
vt 0.447584 0.861501
vt 0.447575 0.861510
vt 0.457537 0.851887
vt 0.979909 0.627790
vt 0.979909 0.627431
vt 0.925262 0.815077
vt 0.925261 0.814719
vt 0.925261 0.814359
vt 0.461821 0.874027
vt 0.458578 0.852975
vt 0.471336 0.863747
vt 0.448790 0.862763
vt 0.448782 0.862772
vt 0.476584 0.882837
vt 0.485915 0.871814
vt 0.492630 0.888940
vt 0.501768 0.876871
vt 0.509485 0.892155
vt 0.518299 0.878728
vt 0.526646 0.892386
vt 0.534887 0.877317
vt 0.543603 0.889627
vt 0.550908 0.872689
vt 0.559854 0.883958
vt 0.565759 0.865019
vt 0.574914 0.875550
vt 0.578884 0.854595
vt 0.588328 0.864643
vt 0.588337 0.864652
vt 0.919835 0.715970
vt 0.920624 0.715588
vt 0.920624 0.715975
vt 0.919835 0.715584
vt 0.919835 0.716355
vt 0.920624 0.716360
vt 0.919835 0.716738
vt 0.920624 0.716743
vt 0.613140 0.826482
vt 0.598715 0.825633
vt 0.603762 0.809475
vt 0.617183 0.812310
vt 0.617195 0.812312
vt 0.607095 0.839912
vt 0.590680 0.840508
vt 0.599187 0.852313
vt 0.579962 0.853536
vt 0.589578 0.863414
vt 0.589587 0.863423
vt 0.996488 0.509990
vt 0.996475 0.520880
vt 0.996475 0.531973
vt 0.996488 0.543087
vt 0.601245 0.733339
vt 0.592025 0.721984
vt 0.592034 0.721976
vt 0.582071 0.731599
vt 0.592334 0.744910
vt 0.608720 0.745948
vt 0.599850 0.759994
vt 0.614298 0.759534
vt 0.604336 0.776280
vt 0.617849 0.773808
vt 0.617861 0.773806
vt 0.879142 0.682444
vt 0.879132 0.682084
vt 0.879123 0.681726
vt 0.879113 0.681369
vt 0.464694 0.707936
vt 0.451280 0.718843
vt 0.451272 0.718834
vt 0.460724 0.728890
vt 0.473849 0.718467
vt 0.479755 0.699527
vt 0.488701 0.710797
vt 0.496005 0.693859
vt 0.504721 0.706169
vt 0.512963 0.691100
vt 0.521309 0.704758
vt 0.530124 0.691331
vt 0.537840 0.706615
vt 0.546978 0.694546
vt 0.553693 0.711672
vt 0.563025 0.700649
vt 0.568273 0.719739
vt 0.577787 0.709459
vt 0.590818 0.720723
vt 0.590827 0.720714
vt 0.581031 0.730511
vt 0.925261 0.692408
vt 0.925261 0.692048
vt 0.925262 0.691690
vt 0.882390 0.804722
vt 0.882380 0.804362
vt 0.941598 0.250418
vt 0.942301 0.250943
vt 0.942259 0.250943
vt 0.946198 0.250416
vt 0.946201 0.250828
vt 0.925832 0.266286
vt 0.926624 0.266711
vt 0.926624 0.266720
vt 0.925928 0.277217
vt 0.926716 0.277217
vt 0.912419 0.811470
vt 0.911524 0.811526
vt 0.912385 0.811449
vt 0.915298 0.813846
vt 0.915551 0.813526
vt 0.908200 0.791184
vt 0.909108 0.791251
vt 0.909114 0.791244
vt 0.914904 0.782693
vt 0.915551 0.783091
vt 0.424871 0.875840
vt 0.413124 0.861213
vt 0.403760 0.844910
vt 0.397002 0.827325
vt 0.393016 0.808880
vt 0.391895 0.790020
vt 0.393667 0.771199
vt 0.398290 0.752870
vt 0.405653 0.735475
vt 0.415577 0.719432
vt 0.427824 0.705128
vt 0.918707 0.663787
vt 0.920967 0.677223
vt 0.920430 0.677229
vt 0.918080 0.663793
vt 0.919334 0.663783
vt 0.921505 0.677220
vt 0.922043 0.677220
vt 0.919962 0.663783
vt 0.953800 0.839377
vt 0.952905 0.839432
vt 0.953766 0.839356
vt 0.956680 0.841752
vt 0.956933 0.841432
vt 0.949580 0.819125
vt 0.950488 0.819194
vt 0.950494 0.819186
vt 0.956285 0.810658
vt 0.956933 0.811056
vt 0.594757 0.879632
vt 0.580274 0.891599
vt 0.564148 0.901160
vt 0.546768 0.908083
vt 0.528552 0.912202
vt 0.509938 0.913418
vt 0.491375 0.911701
vt 0.473310 0.907093
vt 0.456177 0.899705
vt 0.440390 0.889715
vt 0.426328 0.877363
vt 0.941759 0.025925
vt 0.942457 0.026414
vt 0.942415 0.026414
vt 0.946359 0.025925
vt 0.946359 0.026309
vt 0.925852 0.040680
vt 0.926641 0.041075
vt 0.926641 0.041084
vt 0.925852 0.050850
vt 0.926641 0.050850
vt 0.966058 0.369535
vt 0.968987 0.382860
vt 0.968478 0.383015
vt 0.965465 0.369716
vt 0.966653 0.369358
vt 0.969496 0.382708
vt 0.970006 0.382558
vt 0.967247 0.369183
vt 0.983656 0.033362
vt 0.982762 0.033415
vt 0.983622 0.033341
vt 0.986532 0.035741
vt 0.986784 0.035422
vt 0.979441 0.013112
vt 0.980348 0.013182
vt 0.980354 0.013175
vt 0.986138 0.004662
vt 0.986784 0.005061
vt 0.945502 0.527421
vt 0.929685 0.537660
vt 0.929694 0.520494
vt 0.945495 0.541644
vt 0.945512 0.513912
vt 0.929706 0.504190
vt 0.617395 0.849773
vt 0.607852 0.864741
vt 0.596265 0.878149
vt 0.916287 0.639694
vt 0.912883 0.641382
vt 0.916012 0.639216
vt 0.911910 0.641051
vt 0.912845 0.641399
vt 0.909283 0.665980
vt 0.908296 0.665801
vt 0.909289 0.665991
vt 0.916287 0.678171
vt 0.915584 0.678485
vt 0.879806 0.871612
vt 0.892431 0.857813
vt 0.893833 0.868849
vt 0.878172 0.858739
vt 0.878172 0.845760
vt 0.892431 0.846686
vt 0.893833 0.835650
vt 0.879806 0.832887
vt 0.912883 0.727370
vt 0.916287 0.729058
vt 0.916012 0.729536
vt 0.911910 0.727701
vt 0.912845 0.727353
vt 0.909283 0.702772
vt 0.908296 0.702951
vt 0.909289 0.702761
vt 0.915584 0.690266
vt 0.916287 0.690581
vt 0.894344 0.655776
vt 0.895055 0.656257
vt 0.895013 0.656258
vt 0.898943 0.655681
vt 0.898953 0.656070
vt 0.878839 0.671061
vt 0.879639 0.671445
vt 0.879639 0.671454
vt 0.599219 0.707437
vt 0.610336 0.721151
vt 0.619357 0.736369
vt 0.945502 0.594378
vt 0.929706 0.617608
vt 0.929694 0.601304
vt 0.945512 0.607886
vt 0.945495 0.580155
vt 0.929685 0.584138
vt 0.919296 0.803352
vt 0.921545 0.789828
vt 0.922055 0.789977
vt 0.918701 0.803178
vt 0.918107 0.803000
vt 0.921036 0.789676
vt 0.917514 0.802819
vt 0.920527 0.789521
vt 0.912519 0.770768
vt 0.911607 0.770878
vt 0.912484 0.770748
vt 0.915452 0.773105
vt 0.915710 0.772754
vt 0.908220 0.749657
vt 0.909145 0.749677
vt 0.909151 0.749669
vt 0.915050 0.740341
vt 0.915710 0.740723
vt 0.911525 0.825503
vt 0.912420 0.825558
vt 0.912385 0.825579
vt 0.915299 0.823183
vt 0.915552 0.823502
vt 0.908200 0.845809
vt 0.909108 0.845741
vt 0.909114 0.845749
vt 0.914905 0.854277
vt 0.915552 0.853879
vt 0.429333 0.703645
vt 0.443816 0.691677
vt 0.459941 0.682117
vt 0.477321 0.675194
vt 0.495538 0.671075
vt 0.514152 0.669859
vt 0.532715 0.671576
vt 0.550780 0.676183
vt 0.567913 0.683571
vt 0.583700 0.693562
vt 0.597762 0.705914
vt 0.919309 0.754599
vt 0.920852 0.741162
vt 0.921390 0.741162
vt 0.918681 0.754599
vt 0.918054 0.754595
vt 0.920314 0.741159
vt 0.919777 0.741153
vt 0.917427 0.754589
vt 0.212508 0.672360
vt 0.213291 0.672535
vt 0.213138 0.673064
vt 0.212358 0.672890
vt 0.211724 0.672189
vt 0.211578 0.672720
vt 0.210796 0.672554
vt 0.210939 0.672023
vt 0.929640 0.553110
vt 0.929681 0.560899
vt 0.929640 0.560899
vt 0.929682 0.553110
vt 0.929641 0.545353
vt 0.929683 0.545353
vt 0.929644 0.537660
vt 0.925742 0.537631
vt 0.925750 0.520494
vt 0.925762 0.504190
vt 0.929722 0.489096
vt 0.925779 0.489096
vt 0.929700 0.475533
vt 0.925799 0.475428
vt 0.929742 0.475533
vt 0.929743 0.475029
vt 0.929701 0.475029
vt 0.929744 0.474528
vt 0.929702 0.474528
vt 0.946359 0.040859
vt 0.942457 0.025911
vt 0.942415 0.025911
vt 0.942415 0.040859
vt 0.946359 0.057016
vt 0.942415 0.057016
vt 0.942415 0.074495
vt 0.946359 0.074496
vt 0.946359 0.092877
vt 0.942415 0.092876
vt 0.946359 0.111717
vt 0.942415 0.111716
vt 0.942415 0.130562
vt 0.946358 0.130562
vt 0.946358 0.148959
vt 0.942415 0.148959
vt 0.942414 0.166464
vt 0.946358 0.166464
vt 0.942414 0.182657
vt 0.946358 0.182657
vt 0.942456 0.197146
vt 0.946357 0.197251
vt 0.942414 0.197146
vt 0.942414 0.197651
vt 0.942456 0.197651
vt 0.942414 0.198153
vt 0.942456 0.198153
vt 0.946089 0.264408
vt 0.942414 0.198652
vt 0.942456 0.198652
vt 0.942146 0.264410
vt 0.942055 0.279767
vt 0.945998 0.279765
vt 0.941989 0.296643
vt 0.945932 0.296641
vt 0.941948 0.314633
vt 0.945891 0.314630
vt 0.941934 0.333302
vt 0.945878 0.333300
vt 0.941948 0.352202
vt 0.945891 0.352199
vt 0.941989 0.370876
vt 0.945932 0.370874
vt 0.942055 0.388877
vt 0.945998 0.388875
vt 0.942146 0.405770
vt 0.946089 0.405768
vt 0.942301 0.421148
vt 0.946201 0.421242
vt 0.942259 0.421148
vt 0.942264 0.421689
vt 0.942305 0.421689
vt 0.942268 0.422228
vt 0.942310 0.422228
vt 0.906464 0.830261
vt 0.902562 0.830366
vt 0.902562 0.815772
vt 0.942315 0.422764
vt 0.942273 0.422764
vt 0.906505 0.815772
vt 0.906505 0.830261
vt 0.906505 0.799579
vt 0.902562 0.799579
vt 0.906505 0.782074
vt 0.902562 0.782074
vt 0.906505 0.763677
vt 0.902561 0.763677
vt 0.906505 0.744832
vt 0.902561 0.744832
vt 0.906505 0.725992
vt 0.902561 0.725992
vt 0.906505 0.707611
vt 0.902562 0.707611
vt 0.906505 0.690131
vt 0.902562 0.690131
vt 0.906505 0.673974
vt 0.902562 0.673974
vt 0.906464 0.659529
vt 0.902562 0.659424
vt 0.906505 0.659529
vt 0.906505 0.659026
vt 0.906464 0.659026
vt 0.929743 0.646769
vt 0.929702 0.647270
vt 0.929701 0.646769
vt 0.929744 0.647270
vt 0.929700 0.646265
vt 0.925799 0.646370
vt 0.925779 0.632702
vt 0.929742 0.646265
vt 0.929722 0.632702
vt 0.925762 0.617608
vt 0.925750 0.601304
vt 0.929644 0.584138
vt 0.925742 0.584167
vt 0.929641 0.576445
vt 0.929683 0.576445
vt 0.929640 0.568688
vt 0.929682 0.568688
vt 0.918884 0.716018
vt 0.919460 0.720077
vt 0.918884 0.720077
vt 0.919460 0.716018
vt 0.918312 0.716018
vt 0.918312 0.720077
vt 0.917743 0.716018
vt 0.917743 0.720077
vt 0.919453 0.686090
vt 0.920050 0.706984
vt 0.919384 0.706981
vt 0.920256 0.686094
vt 0.918650 0.686090
vt 0.918719 0.706981
vt 0.917847 0.686094
vt 0.918054 0.706984
vt 0.919772 0.639065
vt 0.920528 0.639057
vt 0.921286 0.639052
vt 0.922043 0.639052
vt 0.919010 0.732278
vt 0.918391 0.732276
vt 0.918395 0.731564
vt 0.919014 0.731569
vt 0.918391 0.732989
vt 0.919010 0.732987
vt 0.919014 0.733697
vt 0.918395 0.733702
vt 0.918379 0.714795
vt 0.917762 0.710741
vt 0.918379 0.710737
vt 0.917762 0.714799
vt 0.918994 0.714792
vt 0.918994 0.710733
vt 0.919605 0.714788
vt 0.919605 0.710729
vt 0.946276 0.703479
vt 0.946872 0.724374
vt 0.946207 0.724370
vt 0.947079 0.703483
vt 0.945473 0.703479
vt 0.945542 0.724370
vt 0.944670 0.703483
vt 0.944877 0.724374
vt 0.921390 0.779330
vt 0.920633 0.779330
vt 0.919875 0.779325
vt 0.919119 0.779317
vt 0.918203 0.732989
vt 0.918199 0.733702
vt 0.917580 0.733697
vt 0.917584 0.732987
vt 0.918203 0.732276
vt 0.917584 0.732278
vt 0.917580 0.731569
vt 0.918199 0.731564
vt 0.918232 0.725355
vt 0.917658 0.721295
vt 0.918232 0.721296
vt 0.917658 0.725354
vt 0.918803 0.725356
vt 0.918803 0.721297
vt 0.919634 0.725354
vt 0.919061 0.721295
vt 0.919634 0.721295
vt 0.919061 0.725354
vt 0.945473 0.697211
vt 0.944877 0.676316
vt 0.945542 0.676319
vt 0.944670 0.697206
vt 0.946276 0.697211
vt 0.946207 0.676319
vt 0.947079 0.697206
vt 0.946872 0.676316
vt 0.967855 0.353900
vt 0.968571 0.353681
vt 0.969288 0.353467
vt 0.970006 0.353256
vt 0.234623 0.902624
vt 0.226705 0.906195
vt 0.226492 0.905682
vt 0.242584 0.899251
vt 0.242948 0.899868
vt 0.250284 0.895435
vt 0.257692 0.891193
vt 0.258142 0.891764
vt 0.264777 0.886541
vt 0.272040 0.882015
vt 0.271624 0.881610
vt 0.982854 0.828557
vt 0.987450 0.813018
vt 0.987454 0.828557
vt 0.982851 0.813018
vt 0.982854 0.844224
vt 0.987454 0.844224
vt 0.982851 0.859762
vt 0.987450 0.859762
vt 0.954252 0.402860
vt 0.978899 0.399153
vt 0.977033 0.411953
vt 0.955659 0.395166
vt 0.953406 0.410617
vt 0.953123 0.418406
vt 0.977033 0.424858
vt 0.953406 0.426194
vt 0.954252 0.433951
vt 0.978899 0.437659
vt 0.955659 0.441645
vt 0.966911 0.829901
vt 0.966908 0.817027
vt 0.966911 0.842880
vt 0.966908 0.855753
vt 0.919821 0.732278
vt 0.919202 0.732276
vt 0.919206 0.731564
vt 0.919825 0.731569
vt 0.919202 0.732989
vt 0.919821 0.732987
vt 0.919825 0.733697
vt 0.919206 0.733702
vt 0.919061 0.726573
vt 0.919634 0.730632
vt 0.919061 0.730632
vt 0.919634 0.726573
vt 0.918229 0.730633
vt 0.917658 0.726575
vt 0.918229 0.726574
vt 0.917658 0.730634
vt 0.918803 0.730633
vt 0.918803 0.726574
vt 0.946276 0.730642
vt 0.946872 0.751537
vt 0.946207 0.751534
vt 0.947079 0.730646
vt 0.945473 0.730642
vt 0.945542 0.751534
vt 0.944670 0.730646
vt 0.944877 0.751537
vt 0.922055 0.819279
vt 0.921337 0.819069
vt 0.920620 0.818854
vt 0.919904 0.818636
vt 0.062030 0.726391
vt 0.312768 0.821425
vt 0.306195 0.838252
vt 0.051143 0.837319
vt 0.045008 0.760979
vt 0.052074 0.743125
vt 0.073234 0.869571
vt 0.316494 0.781753
vt 0.316494 0.800652
vt 0.144638 0.909341
vt 0.146198 0.909685
vt 0.145417 0.909515
vt 0.146979 0.909850
vt 0.166918 0.912537
vt 0.306633 0.745086
vt 0.313180 0.763080
vt 0.187073 0.912782
vt 0.124404 0.903105
vt 0.107492 0.686970
vt 0.074800 0.711218
vt 0.090077 0.697972
vt 0.207054 0.910433
vt 0.105441 0.894320
vt 0.088246 0.883051
vt 0.147019 0.672700
vt 0.126626 0.678478
vt 0.269529 0.699353
vt 0.297009 0.728201
vt 0.284541 0.712834
vt 0.233371 0.679300
vt 0.252334 0.688085
vt 0.168179 0.669776
vt 0.189597 0.669776
vt 0.060766 0.854204
vt 0.285427 0.868632
vt 0.041282 0.800652
vt 0.044595 0.819324
vt 0.297071 0.854113
vt 0.313157 0.820049
vt 0.312965 0.820738
vt 0.044618 0.762356
vt 0.044811 0.761667
vt 0.044430 0.763046
vt 0.041282 0.781753
vt 0.313345 0.819359
vt 0.945492 0.554445
vt 0.945492 0.560899
vt 0.945493 0.548018
vt 0.589172 0.863835
vt 0.595765 0.878646
vt 0.588756 0.864245
vt 0.595262 0.879141
vt 0.448377 0.862354
vt 0.425839 0.876858
vt 0.447974 0.861933
vt 0.425354 0.876351
vt 0.450436 0.719651
vt 0.428324 0.704630
vt 0.450853 0.719241
vt 0.428827 0.704136
vt 0.591232 0.721132
vt 0.598250 0.706418
vt 0.591634 0.721553
vt 0.598736 0.706926
vt 0.945493 0.573780
vt 0.945492 0.567353
vt 0.447983 0.861924
vt 0.448386 0.862345
vt 0.450445 0.719660
vt 0.450861 0.719250
vt 0.589164 0.863826
vt 0.588747 0.864236
vt 0.618766 0.780194
vt 0.619265 0.786628
vt 0.619253 0.786629
vt 0.619357 0.793084
vt 0.619042 0.799534
vt 0.619029 0.799533
vt 0.618320 0.805952
vt 0.591223 0.721141
vt 0.591625 0.721561
vn -1.0000 0.0000 0.0000
vn 0.0000 0.0000 1.0000
vn 0.0000 1.0000 0.0000
vn 0.0000 0.0000 -1.0000
vn 0.0000 -1.0000 -0.0003
vn 0.0000 -1.0000 0.0000
vn 0.0000 -1.0000 0.0002
vn 0.0000 -1.0000 0.0003
vn 0.0000 -1.0000 -0.0002
vn 0.0000 -1.0000 -0.0004
vn 0.0000 -1.0000 -0.0015
vn 0.0000 -1.0000 0.0005
vn 0.0000 -1.0000 -0.0005
vn 0.0000 -1.0000 0.0015
vn 1.0000 0.0000 0.0000
vn 0.0792 0.7072 0.7025
vn 0.2335 0.7071 0.6675
vn 0.3299 0.7044 0.6285
vn -0.2507 0.7073 -0.6610
vn -0.3299 0.7044 -0.6285
vn 0.4707 0.7044 0.5313
vn 0.3763 0.7069 0.5989
vn 0.5841 0.7044 0.4032
vn -0.4707 0.7044 -0.5313
vn 0.5004 0.7065 0.5004
vn 0.5996 0.7061 0.3766
vn 0.6636 0.7044 0.2517
vn 0.7046 0.7045 0.0855
vn -0.4016 0.7073 -0.5818
vn 0.6689 0.7055 0.2343
vn 0.7049 0.7049 0.0795
vn -0.5842 0.7044 -0.4032
vn -0.5293 0.7074 -0.4685
vn -0.6259 0.7071 -0.3289
vn 0.7046 0.7045 -0.0855
vn -0.6637 0.7044 -0.2517
vn 0.7049 0.7049 -0.0795
vn -0.7046 0.7044 -0.0856
vn 0.6636 0.7044 -0.2517
vn 0.6689 0.7055 -0.2343
vn -0.6865 0.7073 -0.1686
vn -0.7046 0.7044 0.0856
vn 0.5841 0.7044 -0.4032
vn -0.7070 0.7072 0.0000
vn 0.5996 0.7061 -0.3766
vn -0.6637 0.7044 0.2517
vn 0.4707 0.7044 -0.5313
vn -0.6865 0.7073 0.1686
vn 0.5004 0.7065 -0.5004
vn -0.5842 0.7044 0.4032
vn 0.3299 0.7044 -0.6285
vn -0.6259 0.7071 0.3289
vn 0.3763 0.7069 -0.5989
vn -0.4707 0.7044 0.5313
vn 0.1699 0.7044 -0.6892
vn -0.5293 0.7074 0.4685
vn -0.3299 0.7044 0.6285
vn -0.4016 0.7073 0.5818
vn 0.2335 0.7071 -0.6675
vn 0.0000 0.7044 -0.7098
vn -0.1699 0.7044 0.6892
vn -0.2507 0.7073 0.6610
vn 0.0792 0.7072 -0.7025
vn 0.0000 0.7044 0.7098
vn -0.0852 0.7073 0.7018
vn -0.0852 0.7073 -0.7018
vn -0.1699 0.7044 -0.6892
vn 0.1699 0.7044 0.6892
vn -0.4647 0.0000 0.8855
vn -0.2393 0.0000 0.9709
vn 0.2393 0.0000 0.9709
vn 0.9927 0.0000 -0.1205
vn 0.4647 0.0000 0.8855
vn 0.9350 0.0000 -0.3546
vn 0.6631 0.0000 0.7485
vn 0.8230 0.0000 -0.5681
vn 0.8230 0.0000 0.5681
vn 0.9350 0.0000 0.3546
vn 0.6631 0.0000 -0.7485
vn 0.9927 0.0000 0.1205
vn 0.4647 0.0000 -0.8855
vn 0.2393 0.0000 -0.9709
vn -0.2393 0.0000 -0.9709
vn -0.4647 0.0000 -0.8855
vn -0.6631 0.0000 -0.7485
vn -0.8230 0.0000 -0.5681
vn -0.9350 0.0000 -0.3546
vn -0.9927 0.0000 -0.1205
vn -0.9927 0.0000 0.1205
vn -0.9350 0.0000 0.3546
vn -0.8230 0.0000 0.5681
vn -0.6631 0.0000 0.7485
vn 0.9872 0.0009 0.1593
vn 0.9584 -0.0026 0.2854
vn -0.9579 -0.0013 -0.2872
vn 0.9948 0.0273 0.0980
vn -0.9569 0.0026 -0.2903
vn 0.9951 0.0256 0.0958
vn 0.9995 0.0000 0.0320
vn -0.9953 0.0000 -0.0969
vn -0.9953 0.0000 0.0969
vn -0.9952 0.0013 -0.0980
vn 0.9995 0.0000 -0.0320
vn 0.9951 0.0256 -0.0958
vn -0.9579 -0.0013 0.2872
vn -0.9952 0.0013 0.0980
vn 0.9584 -0.0026 -0.2854
vn 0.9872 0.0009 -0.1593
vn -0.8845 -0.0026 0.4666
vn 0.9948 0.0273 -0.0980
vn -0.9569 0.0026 0.2903
vn 0.8850 -0.0034 -0.4656
vn 0.9569 0.0035 -0.2903
vn -0.7778 -0.0038 0.6285
vn -0.8819 0.0039 0.4714
vn 0.8819 0.0043 -0.4714
vn -0.7112 0.0001 0.7030
vn -0.7071 -0.0000 0.7071
vn -0.7030 0.0001 0.7112
vn 0.7781 -0.0043 -0.6282
vn -0.7730 0.0051 0.6344
vn 0.7730 0.0051 -0.6344
vn -0.6285 -0.0038 0.7778
vn 0.7112 0.0001 -0.7030
vn -0.6344 0.0051 0.7730
vn 0.7071 -0.0000 -0.7071
vn 0.7030 0.0001 -0.7112
vn -0.4666 -0.0026 0.8845
vn 0.6344 0.0051 -0.7730
vn 0.6285 -0.0038 -0.7778
vn -0.4714 0.0039 0.8819
vn 0.4666 -0.0026 -0.8845
vn -0.2872 -0.0013 0.9579
vn 0.4714 0.0039 -0.8819
vn -0.2903 0.0026 0.9569
vn -0.0980 0.0013 0.9952
vn 0.2872 -0.0013 -0.9579
vn -0.0969 0.0000 0.9953
vn 0.2903 0.0026 -0.9569
vn 0.0969 0.0000 0.9953
vn 0.0969 0.0000 -0.9953
vn 0.2872 -0.0013 0.9579
vn -0.0969 0.0000 -0.9953
vn 0.0980 0.0013 -0.9952
vn 0.0980 0.0013 0.9952
vn 0.2903 0.0026 0.9569
vn -0.2872 -0.0013 -0.9579
vn 0.4666 -0.0026 0.8845
vn -0.0980 0.0013 -0.9952
vn -0.4666 -0.0026 -0.8845
vn -0.2903 0.0026 -0.9569
vn 0.4714 0.0039 0.8819
vn 0.6285 -0.0038 0.7778
vn 0.6344 0.0051 0.7730
vn 0.7030 0.0001 0.7112
vn 0.7071 -0.0000 0.7071
vn -0.6285 -0.0038 -0.7778
vn 0.7112 0.0001 0.7030
vn -0.4714 0.0039 -0.8819
vn 0.7730 0.0051 0.6344
vn 0.7781 -0.0043 0.6282
vn -0.7030 0.0001 -0.7112
vn -0.7071 -0.0000 -0.7071
vn -0.7112 0.0001 -0.7030
vn -0.6344 0.0051 -0.7730
vn 0.8819 0.0043 0.4714
vn -0.7778 -0.0038 -0.6285
vn -0.7730 0.0051 -0.6344
vn 0.8850 -0.0034 0.4656
vn -0.8845 -0.0026 -0.4666
vn -0.8819 0.0039 -0.4714
vn 0.9569 0.0035 0.2903
vn -0.7030 0.0000 -0.7112
vn -0.7112 0.0000 -0.7030
vn 0.7112 0.0000 -0.7030
vn 0.7030 0.0000 -0.7112
vn 0.9609 -0.2479 0.1237
vn 0.9872 0.0000 0.1593
vn 0.9954 0.0000 0.0958
vn 0.9688 -0.2479 0.0000
vn 0.9609 -0.2479 -0.1237
vn 0.9954 0.0000 -0.0958
vn 0.9872 0.0000 -0.1593
vn 0.7030 0.0000 0.7112
vn 0.7112 0.0000 0.7030
vn -0.7112 0.0000 0.7030
vn -0.7030 0.0000 0.7112
vn 0.7010 0.0000 -0.7131
vn 0.7009 0.0000 -0.7133
vn 0.7009 0.0000 -0.7132
vn 0.7006 0.0005 -0.7135
vn 0.7006 -0.0003 -0.7136
vn 0.7011 0.0000 0.7131
vn 0.7009 0.0000 0.7133
vn 0.7009 0.0000 0.7132
vn 0.7006 0.0005 0.7135
vn 0.7006 0.0000 0.7136
vn 0.4255 0.8313 0.3577
vn 0.4776 0.8298 0.2887
vn 0.4265 0.8331 0.3522
vn 0.5181 0.8287 0.2120
vn 0.4786 0.8346 0.2726
vn 0.5457 0.8279 0.1295
vn 0.5168 0.8357 0.1858
vn 0.5598 0.8275 0.0436
vn 0.5400 0.8364 0.0941
vn 0.5598 0.8275 -0.0436
vn 0.5479 0.8366 0.0000
vn 0.5457 0.8279 -0.1295
vn 0.5400 0.8364 -0.0941
vn 0.5181 0.8287 -0.2120
vn 0.5168 0.8357 -0.1858
vn 0.4776 0.8298 -0.2887
vn 0.4786 0.8346 -0.2726
vn 0.4255 0.8313 -0.3577
vn 0.4265 0.8331 -0.3522
vn -0.7134 0.0000 0.7007
vn -0.7133 0.0000 0.7009
vn -0.7132 0.0000 0.7009
vn -0.7136 0.0005 0.7006
vn -0.7134 -0.0008 0.7007
vn -0.3577 0.8313 0.4255
vn -0.2887 0.8298 0.4776
vn -0.3523 0.8331 0.4265
vn -0.2120 0.8287 0.5181
vn -0.2726 0.8346 0.4786
vn -0.1295 0.8279 0.5457
vn -0.1858 0.8357 0.5168
vn -0.0436 0.8275 0.5598
vn -0.0941 0.8364 0.5400
vn 0.0436 0.8275 0.5598
vn 0.0000 0.8366 0.5479
vn 0.1295 0.8279 0.5457
vn 0.0941 0.8364 0.5400
vn 0.2120 0.8287 0.5181
vn 0.1858 0.8357 0.5168
vn 0.2887 0.8298 0.4776
vn 0.2726 0.8346 0.4786
vn 0.3577 0.8313 0.4255
vn 0.3523 0.8331 0.4265
vn 0.7134 0.0000 0.7008
vn 0.7133 0.0000 0.7009
vn 0.7132 0.0000 0.7009
vn 0.7136 0.0005 0.7006
vn 0.7134 -0.0011 0.7007
vn -0.7011 0.0000 -0.7131
vn -0.7009 0.0000 -0.7133
vn -0.7009 0.0000 -0.7132
vn -0.7006 0.0005 -0.7135
vn -0.7006 0.0000 -0.7136
vn -0.5363 0.8314 0.1456
vn -0.5094 0.8314 0.2222
vn -0.4716 0.8314 0.2940
vn -0.4238 0.8314 0.3595
vn 0.1908 0.0000 0.9816
vn 0.1904 0.0000 0.9817
vn 0.1909 -0.0002 0.9816
vn 0.1908 0.0000 -0.9816
vn 0.1909 0.0000 -0.9816
vn 0.1904 0.0000 -0.9817
vn -0.7010 0.0000 0.7131
vn -0.7009 0.0000 0.7133
vn -0.7009 0.0000 0.7132
vn -0.7006 0.0005 0.7135
vn -0.7006 -0.0003 0.7136
vn -0.4238 0.8314 -0.3595
vn -0.4716 0.8314 -0.2940
vn -0.5094 0.8314 -0.2222
vn -0.5363 0.8314 -0.1456
vn 0.7134 0.0000 -0.7007
vn 0.7133 0.0000 -0.7009
vn 0.7132 0.0000 -0.7009
vn 0.7136 0.0005 -0.7006
vn 0.7134 -0.0008 -0.7007
vn -0.7134 0.0000 -0.7008
vn -0.7133 0.0000 -0.7009
vn -0.7132 0.0000 -0.7009
vn -0.7136 0.0005 -0.7006
vn -0.7134 -0.0011 -0.7007
vn 0.3577 0.8313 -0.4255
vn 0.2887 0.8298 -0.4776
vn 0.3523 0.8331 -0.4265
vn 0.2120 0.8287 -0.5181
vn 0.2726 0.8346 -0.4786
vn 0.1295 0.8279 -0.5457
vn 0.1858 0.8357 -0.5168
vn 0.0436 0.8275 -0.5598
vn 0.0941 0.8364 -0.5400
vn -0.0436 0.8275 -0.5598
vn 0.0000 0.8366 -0.5479
vn -0.1295 0.8279 -0.5457
vn -0.0941 0.8364 -0.5400
vn -0.2120 0.8287 -0.5181
vn -0.1858 0.8357 -0.5168
vn -0.2887 0.8298 -0.4776
vn -0.2726 0.8346 -0.4786
vn -0.3577 0.8313 -0.4255
vn -0.3523 0.8331 -0.4265
vn -0.9995 0.0000 0.0320
vn -0.9954 0.0000 0.0958
vn -0.9872 0.0000 0.1593
vn -0.9619 0.0433 0.2698
vn -0.9651 0.0000 0.2620
vn -0.9166 0.0000 0.3997
vn -0.8486 0.0000 0.5290
vn -0.7625 0.0000 0.6470
vn -0.7672 0.0433 0.6399
vn -0.6368 0.0433 0.7698
vn -0.5173 0.0000 0.8558
vn -0.6435 0.0000 0.7655
vn -0.3786 0.0000 0.9255
vn -0.2309 0.0000 0.9730
vn -0.0776 0.0000 0.9970
vn 0.0776 0.0000 0.9970
vn 0.2309 0.0000 0.9730
vn 0.3786 0.0000 0.9255
vn 0.5173 0.0000 0.8558
vn 0.6435 0.0000 0.7655
vn 0.6368 0.0433 0.7698
vn 0.7698 0.0433 0.6368
vn 0.7655 0.0000 0.6435
vn 0.8558 0.0000 0.5173
vn 0.9255 0.0000 0.3786
vn 0.9730 0.0000 0.2309
vn 0.9970 0.0000 0.0776
vn 0.9970 0.0000 -0.0776
vn 0.9730 0.0000 -0.2309
vn 0.9255 0.0000 -0.3786
vn 0.8558 0.0000 -0.5173
vn 0.7698 0.0433 -0.6368
vn 0.7655 0.0000 -0.6435
vn 0.6368 0.0433 -0.7698
vn 0.6435 0.0000 -0.7655
vn 0.5173 0.0000 -0.8558
vn 0.3786 0.0000 -0.9255
vn 0.2309 0.0000 -0.9730
vn 0.0776 0.0000 -0.9970
vn -0.0776 0.0000 -0.9970
vn -0.2309 0.0000 -0.9730
vn -0.3786 0.0000 -0.9255
vn -0.5173 0.0000 -0.8558
vn -0.6368 0.0433 -0.7698
vn -0.6435 0.0000 -0.7655
vn -0.7672 0.0433 -0.6399
vn -0.7625 0.0000 -0.6470
vn -0.8486 0.0000 -0.5290
vn -0.9166 0.0000 -0.3997
vn -0.9619 0.0433 -0.2698
vn -0.9651 0.0000 -0.2620
vn -0.9872 0.0000 -0.1593
vn -0.9954 0.0000 -0.0958
vn -0.9995 0.0000 -0.0320
vn -0.3905 -0.8315 -0.3951
vn -0.3928 -0.8315 -0.3928
vn -0.3951 -0.8315 -0.3905
vn 0.3905 0.8315 0.3951
vn 0.3928 0.8315 0.3928
vn 0.3951 0.8315 0.3905
vn -0.3951 -0.8315 0.3905
vn -0.3928 -0.8315 0.3928
vn -0.3905 -0.8315 0.3951
vn 0.3951 0.8315 -0.3905
vn 0.3928 0.8315 -0.3928
vn 0.3905 0.8315 -0.3951
vn 0.3951 -0.8315 -0.3905
vn 0.3928 -0.8315 -0.3928
vn 0.3905 -0.8315 -0.3951
vn -0.3951 0.8315 0.3905
vn -0.3928 0.8315 0.3928
vn -0.3905 0.8315 0.3951
vn -0.9918 0.0000 -0.1276
vn -0.9918 0.0000 0.1276
vn 0.5472 -0.8340 0.0704
vn 0.5486 -0.8314 0.0885
vn 0.5531 -0.8314 0.0533
vn 0.5517 -0.8340 0.0000
vn 0.5554 -0.8314 0.0178
vn 0.5554 -0.8314 -0.0178
vn 0.5472 -0.8340 -0.0704
vn 0.5531 -0.8314 -0.0533
vn 0.5486 -0.8314 -0.0885
vn -0.5517 0.8310 -0.0710
vn -0.5563 0.8310 0.0000
vn -0.5517 0.8310 0.0710
vn 0.3905 -0.8315 0.3951
vn 0.3928 -0.8315 0.3928
vn 0.3951 -0.8315 0.3905
vn -0.3905 0.8315 -0.3951
vn -0.3928 0.8315 -0.3928
vn -0.3951 0.8315 -0.3905
vn -0.5546 0.8319 0.0178
vn -0.5523 0.8319 0.0532
vn -0.5478 0.8319 0.0884
vn -0.3945 0.8320 0.3899
vn -0.3922 0.8320 0.3922
vn -0.3899 0.8321 0.3945
vn -0.3922 0.8321 0.3922
vn -0.3899 0.8320 0.3945
vn 0.3899 0.8321 0.3945
vn 0.3899 0.8320 0.3945
vn 0.3922 0.8321 0.3922
vn 0.3945 0.8320 0.3899
vn 0.3922 0.8320 0.3922
vn 0.3945 0.8320 -0.3899
vn 0.3922 0.8320 -0.3922
vn 0.3922 0.8321 -0.3922
vn 0.3900 0.8320 -0.3945
vn 0.3899 0.8321 -0.3945
vn -0.3899 0.8321 -0.3945
vn -0.3899 0.8320 -0.3945
vn -0.3922 0.8321 -0.3922
vn -0.3922 0.8320 -0.3922
vn -0.3945 0.8320 -0.3899
vn -0.3945 0.8320 -0.3900
vn -0.5478 0.8319 -0.0884
vn -0.5523 0.8319 -0.0532
vn -0.5546 0.8319 -0.0178
usemtl color_cccccc
s off
f 1/1/1 2/2/1 3/3/1
f 4/4/1 2/2/1 1/1/1
f 5/5/2 2/6/2 4/7/2
f 6/8/2 7/9/2 5/5/2
f 5/5/2 7/9/2 2/6/2
f 7/10/3 3/11/3 2/12/3
f 8/13/3 3/11/3 7/10/3
f 3/14/4 9/15/4 1/16/4
f 8/17/4 10/18/4 9/15/4
f 8/17/4 9/15/4 3/14/4
f 4/19/5 11/20/5 12/21/5
f 12/21/6 13/22/6 4/19/6
f 4/19/7 14/23/7 11/20/7
f 13/22/6 15/24/6 4/19/6
f 4/19/5 16/25/5 14/23/5
f 15/24/6 5/26/6 4/19/6
f 1/27/6 17/28/6 4/19/6
f 4/19/6 17/28/6 16/25/6
f 1/27/8 18/29/8 17/28/8
f 1/27/9 19/30/9 18/29/9
f 1/27/10 9/31/10 20/32/10
f 1/27/6 20/32/6 21/33/6
f 1/27/9 21/33/9 22/34/9
f 1/27/8 22/34/8 19/30/8
f 23/35/6 6/36/6 5/37/6
f 24/38/11 6/36/11 23/35/11
f 25/39/6 6/36/6 24/38/6
f 26/40/6 6/36/6 25/39/6
f 27/41/6 6/36/6 26/40/6
f 28/42/12 6/36/12 27/41/12
f 29/43/6 6/36/6 28/42/6
f 30/44/6 10/45/6 29/43/6
f 31/46/13 10/45/13 30/44/13
f 32/47/6 10/45/6 31/46/6
f 29/43/6 10/45/6 6/36/6
f 9/48/6 10/45/6 33/49/6
f 33/49/14 10/45/14 34/50/14
f 34/50/6 10/45/6 35/51/6
f 35/51/6 10/45/6 32/47/6
f 7/52/15 10/53/15 8/54/15
f 7/52/15 6/55/15 10/53/15
f 23/56/16 5/57/16 36/58/16
f 24/59/17 23/60/17 37/61/17
f 24/59/18 37/61/18 38/62/18
f 21/63/19 20/64/19 39/65/19
f 21/63/20 39/65/20 40/66/20
f 25/67/21 38/62/21 41/68/21
f 25/67/22 24/59/22 38/62/22
f 26/69/23 41/68/23 42/70/23
f 22/71/24 40/66/24 43/72/24
f 26/69/25 25/67/25 41/68/25
f 27/73/26 26/69/26 42/70/26
f 27/73/27 42/70/27 44/74/27
f 28/75/28 44/74/28 45/76/28
f 22/71/29 21/63/29 40/66/29
f 28/75/30 27/73/30 44/74/30
f 29/77/31 28/75/31 45/76/31
f 19/78/32 43/79/32 46/80/32
f 19/78/33 22/81/33 43/79/33
f 18/82/34 19/78/34 46/80/34
f 30/83/35 45/76/35 47/84/35
f 18/82/36 46/80/36 48/85/36
f 30/83/37 29/77/37 45/76/37
f 17/86/38 48/85/38 49/87/38
f 31/88/39 47/84/39 50/89/39
f 31/88/40 30/83/40 47/84/40
f 17/86/41 18/82/41 48/85/41
f 16/90/42 49/87/42 51/91/42
f 32/92/43 50/89/43 52/93/43
f 16/90/44 17/86/44 49/87/44
f 32/92/45 31/88/45 50/89/45
f 14/94/46 51/91/46 53/95/46
f 35/96/47 52/93/47 54/97/47
f 14/94/48 16/90/48 51/91/48
f 35/96/49 32/92/49 52/93/49
f 11/98/50 53/95/50 55/99/50
f 34/100/51 54/97/51 56/101/51
f 11/98/52 14/94/52 53/95/52
f 34/100/53 35/96/53 54/97/53
f 12/102/54 55/103/54 57/104/54
f 33/105/55 56/101/55 58/106/55
f 12/107/56 11/98/56 55/99/56
f 13/108/57 57/104/57 59/109/57
f 13/108/58 12/102/58 57/104/58
f 33/105/59 34/100/59 56/101/59
f 9/110/60 58/111/60 60/112/60
f 15/113/61 59/109/61 61/114/61
f 15/113/62 13/108/62 59/109/62
f 9/110/63 33/115/63 58/111/63
f 5/57/64 61/114/64 36/58/64
f 5/57/65 15/113/65 61/114/65
f 20/64/66 9/110/66 60/112/66
f 20/64/67 60/112/67 39/65/67
f 23/60/68 36/116/68 37/61/68
f 59/109/69 57/104/69 62/117/69
f 61/114/2 63/118/2 64/119/2
f 61/114/70 59/109/70 63/118/70
f 36/58/71 64/119/71 65/120/71
f 36/58/2 61/114/2 64/119/2
f 47/121/72 66/122/72 67/123/72
f 37/124/73 65/120/73 68/125/73
f 47/121/72 45/126/72 66/122/72
f 37/124/71 36/58/71 65/120/71
f 50/127/74 67/123/74 69/128/74
f 38/129/73 37/124/73 68/125/73
f 50/127/74 47/121/74 67/123/74
f 41/130/75 68/125/75 70/131/75
f 52/132/76 69/128/76 71/133/76
f 41/134/77 70/135/77 72/136/77
f 41/130/75 38/129/75 68/125/75
f 52/132/76 50/127/76 69/128/76
f 42/137/78 72/136/78 73/138/78
f 54/139/79 71/140/79 74/141/79
f 42/137/77 41/134/77 72/136/77
f 54/139/79 52/142/79 71/140/79
f 44/143/80 73/138/80 66/122/80
f 44/143/78 42/137/78 73/138/78
f 45/126/80 44/143/80 66/122/80
f 56/144/81 74/141/81 75/145/81
f 56/144/81 54/139/81 74/141/81
f 58/111/82 75/145/82 76/146/82
f 58/111/82 56/144/82 75/145/82
f 60/112/4 76/146/4 77/147/4
f 60/112/83 77/147/83 78/148/83
f 60/112/4 58/111/4 76/146/4
f 39/65/83 60/112/83 78/148/83
f 40/66/84 78/148/84 79/149/84
f 40/66/84 39/65/84 78/148/84
f 43/72/85 79/149/85 80/150/85
f 43/79/86 80/151/86 81/152/86
f 43/72/85 40/66/85 79/149/85
f 46/80/86 43/79/86 81/152/86
f 46/80/87 81/152/87 82/153/87
f 48/85/87 46/80/87 82/153/87
f 48/85/88 82/153/88 83/154/88
f 49/87/88 48/85/88 83/154/88
f 49/87/89 83/154/89 84/155/89
f 51/91/90 84/155/90 85/156/90
f 51/91/89 49/87/89 84/155/89
f 53/95/90 51/91/90 85/156/90
f 55/99/91 85/156/91 86/157/91
f 55/103/92 86/158/92 87/159/92
f 55/99/91 53/95/91 85/156/91
f 57/104/69 87/159/69 62/117/69
f 57/104/92 55/103/92 87/159/92
f 59/109/70 62/117/70 63/118/70
f 88/160/3 89/161/3 70/162/3
f 90/163/3 62/164/3 87/165/3
f 91/166/3 79/167/3 92/168/3
f 90/163/3 93/169/3 62/164/3
f 94/170/3 86/171/3 85/172/3
f 94/170/3 85/172/3 95/173/3
f 80/174/3 79/167/3 91/166/3
f 96/175/3 90/163/3 87/165/3
f 97/176/3 87/165/3 86/171/3
f 68/177/3 88/160/3 70/162/3
f 97/176/3 86/171/3 94/170/3
f 97/176/3 96/175/3 87/165/3
f 71/178/3 98/179/3 99/180/3
f 74/181/3 99/180/3 100/182/3
f 74/181/3 100/182/3 101/183/3
f 102/184/3 88/160/3 68/177/3
f 74/181/3 71/178/3 99/180/3
f 103/185/3 80/174/3 91/166/3
f 103/185/3 81/186/3 80/174/3
f 69/187/3 104/188/3 98/179/3
f 69/187/3 98/179/3 71/178/3
f 75/189/3 101/183/3 105/190/3
f 106/191/3 102/184/3 68/177/3
f 75/189/3 74/181/3 101/183/3
f 106/191/3 68/177/3 65/192/3
f 107/193/3 81/186/3 103/185/3
f 107/193/3 82/194/3 81/186/3
f 67/195/3 108/196/3 104/188/3
f 67/195/3 104/188/3 69/187/3
f 76/197/3 105/190/3 109/198/3
f 76/197/3 75/189/3 105/190/3
f 110/199/3 65/192/3 64/200/3
f 110/199/3 106/191/3 65/192/3
f 111/201/3 82/194/3 107/193/3
f 111/201/3 83/202/3 82/194/3
f 66/203/3 112/204/3 113/205/3
f 66/203/3 113/205/3 108/196/3
f 66/203/3 108/196/3 67/195/3
f 77/206/3 109/198/3 114/207/3
f 77/206/3 76/197/3 109/198/3
f 115/208/3 83/202/3 111/201/3
f 73/209/3 116/210/3 112/204/3
f 73/209/3 112/204/3 66/203/3
f 117/211/3 64/200/3 63/212/3
f 78/213/3 114/207/3 118/214/3
f 117/211/3 110/199/3 64/200/3
f 78/213/3 77/206/3 114/207/3
f 93/169/3 63/212/3 62/164/3
f 72/215/3 116/210/3 73/209/3
f 93/169/3 117/211/3 63/212/3
f 72/215/3 89/161/3 116/210/3
f 119/216/3 84/217/3 83/202/3
f 119/216/3 83/202/3 115/208/3
f 79/167/3 78/213/3 118/214/3
f 95/173/3 84/217/3 119/216/3
f 79/167/3 118/214/3 92/168/3
f 95/173/3 85/172/3 84/217/3
f 70/162/3 89/161/3 72/215/3
f 111/218/93 120/219/93 121/220/93
f 111/218/94 122/221/94 120/219/94
f 112/222/95 123/223/95 124/224/95
f 115/225/96 111/218/96 121/220/96
f 112/222/97 116/226/97 123/223/97
f 115/225/98 121/220/98 125/227/98
f 115/225/99 125/227/99 126/228/99
f 113/229/100 124/224/100 127/230/100
f 113/229/101 127/230/101 128/231/101
f 113/229/102 112/222/102 124/224/102
f 115/225/103 126/228/103 129/232/103
f 115/225/104 129/232/104 130/233/104
f 108/234/105 128/231/105 131/235/105
f 108/234/106 113/229/106 128/231/106
f 119/236/107 132/237/107 133/238/107
f 119/236/108 130/233/108 132/237/108
f 104/239/109 131/235/109 134/240/109
f 119/236/110 115/225/110 130/233/110
f 104/239/111 108/234/111 131/235/111
f 95/241/112 133/238/112 135/242/112
f 95/241/113 119/236/113 133/238/113
f 98/243/114 134/240/114 136/244/114
f 98/243/115 104/239/115 134/240/115
f 94/245/116 95/241/116 135/242/116
f 99/246/117 136/244/117 137/247/117
f 99/246/118 137/247/118 138/248/118
f 99/249/119 138/250/119 139/251/119
f 94/245/120 135/242/120 140/252/120
f 99/246/121 98/243/121 136/244/121
f 97/253/122 94/245/122 140/252/122
f 100/254/123 139/251/123 141/255/123
f 97/253/124 140/252/124 142/256/124
f 100/254/125 99/249/125 139/251/125
f 97/253/126 142/256/126 143/257/126
f 97/253/127 143/257/127 144/258/127
f 101/259/128 141/255/128 145/260/128
f 96/261/129 97/262/129 144/263/129
f 96/261/130 144/263/130 146/264/130
f 101/259/131 100/254/131 141/255/131
f 90/265/132 146/264/132 147/266/132
f 105/267/133 145/260/133 148/268/133
f 90/265/134 96/261/134 146/264/134
f 105/267/135 101/259/135 145/260/135
f 109/269/136 105/267/136 148/268/136
f 93/270/137 147/266/137 149/271/137
f 109/269/138 148/268/138 150/272/138
f 93/270/139 90/265/139 147/266/139
f 109/269/140 150/272/140 151/273/140
f 117/274/141 149/271/141 152/275/141
f 114/276/142 151/273/142 153/277/142
f 117/274/143 152/275/143 154/278/143
f 117/274/144 93/270/144 149/271/144
f 114/276/145 109/269/145 151/273/145
f 118/279/146 114/276/146 153/277/146
f 110/280/147 154/278/147 155/281/147
f 118/279/148 153/277/148 156/282/148
f 110/280/149 117/274/149 154/278/149
f 106/283/150 155/281/150 157/284/150
f 106/283/151 110/280/151 155/281/151
f 92/285/152 118/279/152 156/282/152
f 92/285/153 156/282/153 158/286/153
f 91/287/154 92/285/154 158/286/154
f 91/287/155 158/286/155 159/288/155
f 91/287/156 159/288/156 160/289/156
f 102/290/157 157/284/157 161/291/157
f 91/287/158 160/289/158 162/292/158
f 102/290/159 106/283/159 157/284/159
f 103/293/160 91/294/160 162/295/160
f 103/293/161 162/295/161 163/296/161
f 88/297/162 161/291/162 164/298/162
f 88/299/163 164/300/163 165/301/163
f 88/299/164 165/301/164 166/302/164
f 88/297/165 102/290/165 161/291/165
f 107/303/166 103/293/166 163/296/166
f 89/304/167 166/302/167 167/305/167
f 89/304/168 88/299/168 166/302/168
f 107/303/169 163/296/169 122/221/169
f 116/226/170 167/305/170 123/223/170
f 116/226/171 89/304/171 167/305/171
f 111/218/172 107/303/172 122/221/172
f 168/306/3 169/307/3 170/308/3
f 136/309/3 168/306/3 170/308/3
f 134/310/3 171/311/3 168/306/3
f 134/310/3 168/306/3 136/309/3
f 131/312/3 172/313/3 171/311/3
f 131/312/3 171/311/3 134/310/3
f 128/314/3 173/315/3 172/313/3
f 128/314/3 172/313/3 131/312/3
f 127/316/3 174/317/3 173/315/3
f 127/316/3 173/315/3 128/314/3
f 124/318/3 175/319/3 174/317/3
f 124/318/3 174/317/3 127/316/3
f 123/320/3 176/321/3 175/319/3
f 123/320/3 175/319/3 124/318/3
f 167/322/3 177/323/3 176/321/3
f 167/322/3 176/321/3 123/320/3
f 178/324/3 179/325/3 177/323/3
f 166/326/3 177/323/3 167/322/3
f 166/326/3 178/324/3 177/323/3
f 164/298/173 180/327/173 181/328/173
f 164/298/173 161/291/173 180/327/173
f 165/301/163 181/329/163 182/330/163
f 165/301/163 164/300/163 181/329/163
f 166/302/174 182/330/174 183/331/174
f 166/302/174 165/301/174 182/330/174
f 184/332/3 161/333/3 157/334/3
f 184/332/3 185/335/3 161/333/3
f 184/332/3 186/336/3 185/335/3
f 187/337/3 157/334/3 155/338/3
f 187/337/3 184/332/3 157/334/3
f 188/339/3 155/338/3 154/340/3
f 188/339/3 187/337/3 155/338/3
f 189/341/3 154/340/3 152/342/3
f 189/341/3 188/339/3 154/340/3
f 190/343/3 152/342/3 149/344/3
f 190/343/3 189/341/3 152/342/3
f 191/345/3 149/344/3 147/346/3
f 191/345/3 190/343/3 149/344/3
f 192/347/3 147/346/3 146/348/3
f 192/347/3 191/345/3 147/346/3
f 193/349/3 146/348/3 144/350/3
f 193/349/3 192/347/3 146/348/3
f 194/351/3 193/349/3 144/350/3
f 195/352/3 193/349/3 194/351/3
f 196/353/175 197/354/175 198/355/175
f 196/353/175 199/356/175 197/354/175
f 200/357/126 198/355/126 201/358/126
f 200/357/126 196/353/126 198/355/126
f 202/359/176 201/358/176 203/360/176
f 202/359/176 200/357/176 201/358/176
f 204/361/3 133/362/3 132/363/3
f 204/361/3 205/364/3 206/365/3
f 204/361/3 132/363/3 205/364/3
f 207/366/3 135/367/3 133/362/3
f 207/366/3 133/362/3 204/361/3
f 208/368/3 140/369/3 135/367/3
f 208/368/3 135/367/3 207/366/3
f 209/370/3 140/369/3 208/368/3
f 210/371/3 209/370/3 208/368/3
f 121/220/177 211/372/177 212/373/177
f 121/220/178 120/219/178 211/372/178
f 125/227/179 121/220/179 212/373/179
f 126/228/180 212/373/180 213/374/180
f 126/228/99 125/227/99 212/373/99
f 129/232/103 126/228/103 213/374/103
f 130/233/181 213/374/181 214/375/181
f 130/233/182 129/232/182 213/374/182
f 132/237/183 130/233/183 214/375/183
f 215/376/3 216/377/3 217/378/3
f 215/376/3 162/379/3 216/377/3
f 163/380/3 162/379/3 215/376/3
f 218/381/3 163/380/3 215/376/3
f 122/382/3 163/380/3 218/381/3
f 219/383/3 122/382/3 218/381/3
f 120/384/3 122/382/3 219/383/3
f 220/385/3 120/384/3 219/383/3
f 221/386/3 220/385/3 219/383/3
f 159/288/184 222/387/184 223/388/184
f 159/288/184 158/286/184 222/387/184
f 160/289/156 223/388/156 224/389/156
f 160/289/156 159/288/156 223/388/156
f 162/292/185 224/389/185 225/390/185
f 162/292/185 160/289/185 224/389/185
f 226/391/3 227/392/3 228/393/3
f 139/394/3 227/392/3 226/391/3
f 141/395/3 226/391/3 229/396/3
f 141/395/3 139/394/3 226/391/3
f 145/397/3 229/396/3 230/398/3
f 145/397/3 141/395/3 229/396/3
f 148/399/3 230/398/3 231/400/3
f 148/399/3 145/397/3 230/398/3
f 150/401/3 231/400/3 232/402/3
f 150/401/3 148/399/3 231/400/3
f 151/403/3 232/402/3 233/404/3
f 151/403/3 150/401/3 232/402/3
f 153/405/3 233/404/3 234/406/3
f 153/405/3 151/403/3 233/404/3
f 156/407/3 234/406/3 235/408/3
f 156/407/3 153/405/3 234/406/3
f 236/409/3 235/408/3 237/410/3
f 158/411/3 156/407/3 235/408/3
f 158/411/3 235/408/3 236/409/3
f 137/247/186 238/412/186 239/413/186
f 137/247/186 136/244/186 238/412/186
f 138/248/118 239/413/118 240/414/118
f 138/248/118 137/247/118 239/413/118
f 139/251/187 240/415/187 241/416/187
f 139/251/187 138/250/187 240/415/187
f 242/417/188 243/418/188 244/419/188
f 242/417/189 245/420/189 243/418/189
f 245/420/190 246/421/190 243/418/190
f 244/419/190 247/422/190 242/417/190
f 243/418/190 179/423/190 244/419/190
f 244/419/189 179/423/189 247/422/189
f 179/423/191 178/424/191 247/422/191
f 178/424/189 183/425/189 247/422/189
f 178/424/190 166/426/190 183/425/190
f 243/418/192 178/424/192 179/423/192
f 248/427/193 249/428/193 250/429/193
f 251/430/194 249/428/194 248/427/194
f 252/431/195 251/430/195 248/427/195
f 253/432/195 250/429/195 249/428/195
f 169/433/195 248/427/195 250/429/195
f 169/433/194 250/429/194 253/432/194
f 170/434/196 169/433/196 253/432/196
f 238/435/194 170/434/194 253/432/194
f 136/436/195 170/434/195 238/435/195
f 170/434/197 248/427/197 169/433/197
f 179/325/198 244/437/198 254/438/198
f 177/323/199 254/438/199 255/439/199
f 177/323/200 179/325/200 254/438/200
f 176/321/201 255/439/201 256/440/201
f 176/321/202 177/323/202 255/439/202
f 175/319/203 256/440/203 257/441/203
f 175/319/204 176/321/204 256/440/204
f 174/317/205 257/441/205 258/442/205
f 174/317/206 175/319/206 257/441/206
f 173/315/207 258/442/207 259/443/207
f 173/315/208 174/317/208 258/442/208
f 172/313/209 259/443/209 260/444/209
f 172/313/210 173/315/210 259/443/210
f 171/311/211 260/444/211 261/445/211
f 171/311/212 172/313/212 260/444/212
f 168/306/213 261/445/213 262/446/213
f 168/306/214 171/311/214 261/445/214
f 169/307/215 262/446/215 250/447/215
f 169/307/216 168/306/216 262/446/216
f 263/448/3 181/449/3 180/450/3
f 263/448/3 180/450/3 264/451/3
f 265/452/3 182/453/3 181/449/3
f 265/452/3 183/454/3 182/453/3
f 265/452/3 181/449/3 263/448/3
f 247/455/3 183/454/3 265/452/3
f 266/456/217 267/457/217 268/458/217
f 269/459/218 267/457/218 266/456/218
f 270/460/219 269/459/219 266/456/219
f 264/461/219 268/458/219 267/457/219
f 186/462/218 266/456/218 268/458/218
f 186/462/218 268/458/218 264/461/218
f 185/463/220 186/462/220 264/461/220
f 180/464/218 185/463/218 264/461/218
f 161/465/219 185/463/219 180/464/219
f 185/463/221 266/456/221 186/462/221
f 195/352/222 271/466/222 272/467/222
f 193/349/223 272/467/223 273/468/223
f 193/349/224 195/352/224 272/467/224
f 192/347/225 273/468/225 274/469/225
f 192/347/226 193/349/226 273/468/226
f 191/345/227 274/469/227 275/470/227
f 191/345/228 192/347/228 274/469/228
f 190/343/229 275/470/229 276/471/229
f 190/343/230 191/345/230 275/470/230
f 189/341/231 276/471/231 277/472/231
f 189/341/232 190/343/232 276/471/232
f 188/339/233 277/472/233 278/473/233
f 188/339/234 189/341/234 277/472/234
f 187/337/235 278/473/235 279/474/235
f 187/337/236 188/339/236 278/473/236
f 184/332/237 279/474/237 280/475/237
f 184/332/238 187/337/238 279/474/238
f 186/336/239 280/475/239 268/476/239
f 186/336/240 184/332/240 280/475/240
f 281/477/241 282/478/241 271/479/241
f 281/477/242 283/480/242 282/478/242
f 283/480/243 284/481/243 282/478/243
f 271/479/243 285/482/243 281/477/243
f 282/478/242 195/483/242 271/479/242
f 271/479/242 195/483/242 285/482/242
f 195/483/244 194/484/244 285/482/244
f 194/484/242 286/485/242 285/482/242
f 194/484/243 144/486/243 286/485/243
f 282/478/245 194/484/245 195/483/245
f 287/487/3 198/488/3 197/489/3
f 287/487/3 197/489/3 288/490/3
f 289/491/3 201/492/3 198/488/3
f 289/491/3 203/493/3 201/492/3
f 289/491/3 198/488/3 287/487/3
f 290/494/3 203/493/3 289/491/3
f 291/495/246 292/496/246 293/497/246
f 294/498/247 292/496/247 291/495/247
f 295/499/248 294/498/248 291/495/248
f 296/500/248 293/497/248 292/496/248
f 210/501/248 291/495/248 293/497/248
f 210/501/247 293/497/247 296/500/247
f 209/502/249 210/501/249 296/500/249
f 297/503/247 209/502/247 296/500/247
f 140/504/248 209/502/248 297/503/248
f 209/502/250 291/495/250 210/501/250
f 204/505/251 298/506/251 299/507/251
f 204/505/251 206/508/251 298/506/251
f 207/509/252 299/507/252 300/510/252
f 207/509/252 204/505/252 299/507/252
f 208/368/253 300/511/253 301/512/253
f 208/368/254 301/512/254 293/513/254
f 208/368/253 207/366/253 300/511/253
f 210/371/254 208/368/254 293/513/254
f 302/514/255 303/515/255 304/516/255
f 304/516/255 303/515/255 305/517/255
f 303/515/255 298/518/255 305/517/255
f 303/515/255 206/519/255 298/518/255
f 206/519/255 306/520/255 298/518/255
f 205/521/256 306/520/256 206/519/256
f 298/518/255 306/520/255 305/517/255
f 132/522/255 214/523/255 205/521/255
f 205/521/255 214/523/255 306/520/255
f 303/515/257 205/521/257 206/519/257
f 307/524/3 212/525/3 211/526/3
f 308/527/3 212/525/3 307/524/3
f 309/528/3 213/529/3 212/525/3
f 309/528/3 214/530/3 213/529/3
f 309/528/3 212/525/3 308/527/3
f 306/531/3 214/530/3 309/528/3
f 310/532/258 311/533/258 312/534/258
f 310/532/258 312/534/258 313/535/258
f 314/536/258 310/532/258 313/535/258
f 221/537/259 310/532/259 314/536/259
f 307/538/258 221/537/258 314/536/258
f 307/538/260 220/539/260 221/537/260
f 307/538/258 314/536/258 313/535/258
f 211/540/258 120/541/258 220/539/258
f 211/540/258 220/539/258 307/538/258
f 220/539/259 310/532/259 221/537/259
f 315/542/261 316/543/261 317/544/261
f 315/542/262 318/545/262 316/543/262
f 318/545/263 319/546/263 316/543/263
f 317/544/263 320/547/263 315/542/263
f 316/543/263 217/548/263 317/544/263
f 317/544/262 217/548/262 320/547/262
f 217/548/264 216/549/264 320/547/264
f 216/549/262 225/390/262 320/547/262
f 216/549/263 162/292/263 225/390/263
f 316/543/265 216/549/265 217/548/265
f 215/376/266 317/550/266 321/551/266
f 215/376/266 217/378/266 317/550/266
f 218/381/267 321/551/267 322/552/267
f 218/381/267 215/376/267 321/551/267
f 219/553/268 322/554/268 323/555/268
f 219/553/268 218/556/268 322/554/268
f 221/557/269 323/555/269 314/558/269
f 221/557/269 219/553/269 323/555/269
f 324/559/3 223/560/3 222/561/3
f 325/562/3 223/560/3 324/559/3
f 326/563/3 224/564/3 223/560/3
f 326/563/3 223/560/3 325/562/3
f 320/565/3 225/566/3 224/564/3
f 320/565/3 224/564/3 326/563/3
f 327/567/270 328/568/270 329/569/270
f 330/570/271 328/568/271 327/567/271
f 331/571/272 330/570/272 327/567/272
f 324/572/272 329/569/272 328/568/272
f 237/573/271 327/567/271 329/569/271
f 237/573/271 329/569/271 324/572/271
f 236/574/273 237/573/273 324/572/273
f 222/575/271 236/574/271 324/572/271
f 158/576/272 236/574/272 222/575/272
f 236/574/274 327/567/274 237/573/274
f 332/577/275 333/578/275 334/579/275
f 332/577/276 335/580/276 333/578/276
f 335/580/277 336/581/277 333/578/277
f 334/579/277 337/582/277 332/577/277
f 333/578/276 228/583/276 334/579/276
f 334/579/276 228/583/276 337/582/276
f 228/583/278 227/584/278 337/582/278
f 227/584/276 241/585/276 337/582/276
f 227/584/277 139/586/277 241/585/277
f 333/578/279 227/584/279 228/583/279
f 228/393/280 334/587/280 338/588/280
f 226/391/281 338/588/281 339/589/281
f 226/391/282 228/393/282 338/588/282
f 229/396/283 339/589/283 340/590/283
f 229/396/284 226/391/284 339/589/284
f 230/398/285 340/590/285 341/591/285
f 230/398/286 229/396/286 340/590/286
f 231/400/287 341/591/287 342/592/287
f 231/400/288 230/398/288 341/591/288
f 232/402/289 342/592/289 343/593/289
f 232/402/290 231/400/290 342/592/290
f 233/404/291 343/593/291 344/594/291
f 233/404/292 232/402/292 343/593/292
f 234/406/293 344/594/293 345/595/293
f 234/406/294 233/404/294 344/594/294
f 235/408/295 345/595/295 346/596/295
f 235/408/296 234/406/296 345/595/296
f 237/410/297 346/596/297 329/597/297
f 237/410/298 235/408/298 346/596/298
f 253/598/3 239/599/3 238/600/3
f 347/601/3 239/599/3 253/598/3
f 348/602/3 240/603/3 239/599/3
f 348/602/3 241/604/3 240/603/3
f 348/602/3 239/599/3 347/601/3
f 337/605/3 241/604/3 348/602/3
f 349/606/6 269/607/6 270/608/6
f 350/609/6 349/606/6 270/608/6
f 351/610/6 349/606/6 350/609/6
f 352/611/6 351/610/6 350/609/6
f 246/612/6 245/613/6 351/610/6
f 246/612/6 351/610/6 352/611/6
f 353/614/299 354/615/299 355/616/299
f 356/617/299 354/615/299 353/614/299
f 357/618/300 356/617/300 353/614/300
f 358/619/300 356/617/300 357/618/300
f 303/620/301 358/619/301 357/618/301
f 303/620/302 302/621/302 359/622/302
f 298/506/301 358/619/301 303/620/301
f 299/507/303 303/620/303 359/622/303
f 299/507/303 298/506/303 303/620/303
f 300/510/304 299/507/304 359/622/304
f 300/510/304 359/622/304 360/623/304
f 301/624/305 300/510/305 360/623/305
f 301/624/305 360/623/305 361/625/305
f 291/626/306 301/624/306 361/625/306
f 291/626/307 361/625/307 295/627/307
f 293/628/306 301/624/306 291/626/306
f 362/629/186 291/626/186 363/630/186
f 362/629/186 293/628/186 291/626/186
f 364/631/118 363/630/118 365/632/118
f 364/631/118 362/629/118 363/630/118
f 282/478/308 284/481/308 366/633/308
f 271/479/187 365/634/187 282/478/187
f 271/479/187 364/635/187 365/634/187
f 272/636/309 366/633/309 367/637/309
f 272/636/310 271/479/310 282/478/310
f 272/636/310 282/478/310 366/633/310
f 273/638/309 272/636/309 367/637/309
f 274/639/311 367/637/311 368/640/311
f 274/639/312 368/640/312 369/641/312
f 274/639/311 273/638/311 367/637/311
f 275/642/313 369/641/313 370/643/313
f 275/642/312 274/639/312 369/641/312
f 276/644/313 275/642/313 370/643/313
f 277/645/314 370/643/314 371/646/314
f 277/645/315 371/646/315 372/647/315
f 277/645/314 276/644/314 370/643/314
f 278/648/315 277/645/315 372/647/315
f 279/649/316 372/647/316 373/650/316
f 279/649/316 278/648/316 372/647/316
f 280/651/317 279/649/317 373/650/317
f 280/651/317 373/650/317 374/652/317
f 266/653/318 280/651/318 374/652/318
f 266/653/319 374/652/319 270/654/319
f 268/655/318 280/651/318 266/653/318
f 375/656/184 268/655/184 266/653/184
f 375/656/184 266/653/184 376/657/184
f 377/658/156 375/656/156 376/657/156
f 377/658/156 376/657/156 378/659/156
f 243/418/320 246/421/320 379/660/320
f 244/661/185 377/658/185 378/659/185
f 244/661/185 378/659/185 243/662/185
f 254/663/321 243/418/321 379/660/321
f 254/663/321 244/419/321 243/418/321
f 255/664/322 379/660/322 380/665/322
f 255/664/322 254/663/322 379/660/322
f 256/666/323 380/665/323 381/667/323
f 256/666/323 255/664/323 380/665/323
f 257/668/324 381/667/324 382/669/324
f 257/668/324 256/666/324 381/667/324
f 258/670/325 382/669/325 383/671/325
f 258/670/325 257/668/325 382/669/325
f 259/672/326 383/671/326 384/673/326
f 259/672/326 258/670/326 383/671/326
f 260/674/327 384/673/327 385/675/327
f 260/674/327 259/672/327 384/673/327
f 261/676/328 385/675/328 386/677/328
f 261/676/328 260/674/328 385/675/328
f 262/678/329 386/677/329 387/679/329
f 262/678/329 261/676/329 386/677/329
f 248/680/330 387/679/330 252/681/330
f 248/680/331 262/678/331 387/679/331
f 250/682/331 262/678/331 248/680/331
f 388/683/175 248/680/175 389/684/175
f 388/683/175 250/682/175 248/680/175
f 390/685/126 389/684/126 391/686/126
f 390/685/126 388/683/126 389/684/126
f 333/687/332 336/688/332 392/689/332
f 333/690/176 390/685/176 391/686/176
f 334/691/176 390/685/176 333/690/176
f 338/692/333 333/687/333 392/689/333
f 338/692/333 334/693/333 333/687/333
f 339/694/334 392/689/334 393/695/334
f 339/694/334 338/692/334 392/689/334
f 340/696/335 393/695/335 394/697/335
f 340/696/335 339/694/335 393/695/335
f 341/698/336 394/697/336 395/699/336
f 341/698/336 340/696/336 394/697/336
f 342/700/337 341/698/337 395/699/337
f 342/700/337 395/699/337 396/701/337
f 343/702/338 342/700/338 396/701/338
f 343/702/338 396/701/338 397/703/338
f 344/704/339 343/702/339 397/703/339
f 344/704/339 397/703/339 398/705/339
f 345/706/340 344/704/340 398/705/340
f 345/706/340 398/705/340 399/707/340
f 346/708/341 345/706/341 399/707/341
f 346/708/341 399/707/341 400/709/341
f 327/710/342 400/709/342 331/711/342
f 327/710/343 346/708/343 400/709/343
f 329/712/343 346/708/343 327/710/343
f 401/713/173 327/710/173 402/714/173
f 401/713/173 329/712/173 327/710/173
f 403/715/163 402/716/163 404/717/163
f 403/715/163 401/718/163 402/716/163
f 316/719/344 319/720/344 405/721/344
f 316/719/174 403/715/174 404/717/174
f 317/722/174 403/715/174 316/719/174
f 321/723/345 316/719/345 405/721/345
f 321/723/345 317/722/345 316/719/345
f 322/554/346 405/721/346 406/724/346
f 322/554/346 321/723/346 405/721/346
f 323/555/347 406/724/347 407/725/347
f 323/555/347 322/554/347 406/724/347
f 310/726/348 407/725/348 311/727/348
f 310/726/349 323/555/349 407/725/349
f 314/558/349 323/555/349 310/726/349
f 408/728/350 314/558/350 310/726/350
f 409/729/350 314/558/350 408/728/350
f 410/730/351 409/729/351 408/728/351
f 411/731/351 409/729/351 410/730/351
f 355/616/352 411/731/352 410/730/352
f 354/615/352 411/731/352 355/616/352
f 412/732/184 269/733/184 349/734/184
f 412/732/184 267/735/184 269/733/184
f 413/736/156 349/734/156 351/737/156
f 413/736/156 412/732/156 349/734/156
f 242/738/185 351/737/185 245/739/185
f 242/738/185 413/736/185 351/737/185
f 376/740/353 185/741/353 414/742/353
f 376/740/353 266/743/353 185/741/353
f 378/744/354 414/742/354 415/745/354
f 378/744/354 376/740/354 414/742/354
f 243/746/355 415/745/355 178/747/355
f 243/746/355 378/744/355 415/745/355
f 263/448/356 267/748/356 412/749/356
f 263/448/356 264/451/356 267/748/356
f 265/452/357 412/749/357 413/750/357
f 265/452/357 263/448/357 412/749/357
f 247/455/358 413/750/358 242/751/358
f 247/455/358 265/452/358 413/750/358
f 416/752/6 417/753/6 418/754/6
f 416/752/6 418/754/6 419/755/6
f 420/756/6 417/753/6 416/752/6
f 421/757/6 420/756/6 416/752/6
f 422/758/6 423/759/6 420/756/6
f 422/758/6 420/756/6 421/757/6
f 424/760/175 418/761/175 417/762/175
f 424/760/175 249/763/175 418/761/175
f 425/764/126 417/762/126 420/765/126
f 425/764/126 424/760/126 417/762/126
f 332/766/176 420/765/176 423/767/176
f 332/766/176 425/764/176 420/765/176
f 389/768/359 426/769/359 427/770/359
f 389/768/359 248/771/359 426/769/359
f 391/772/360 427/770/360 428/773/360
f 391/772/360 389/768/360 427/770/360
f 333/774/361 428/773/361 227/775/361
f 333/774/361 391/772/361 428/773/361
f 347/601/362 249/776/362 424/777/362
f 347/601/362 253/598/362 249/776/362
f 348/602/363 424/777/363 425/778/363
f 348/602/363 347/601/363 424/777/363
f 337/605/364 425/778/364 332/779/364
f 337/605/364 348/602/364 425/778/364
f 429/780/6 430/781/6 431/782/6
f 432/783/6 429/780/6 431/782/6
f 433/784/6 429/780/6 432/783/6
f 434/785/6 433/784/6 432/783/6
f 435/786/6 436/787/6 433/784/6
f 435/786/6 433/784/6 434/785/6
f 437/788/186 430/789/186 429/790/186
f 437/788/186 292/791/186 430/789/186
f 438/792/118 429/790/118 433/793/118
f 438/792/118 437/788/118 429/790/118
f 439/794/187 433/795/187 436/796/187
f 439/794/187 438/797/187 433/795/187
f 363/798/365 440/799/365 441/800/365
f 363/798/365 291/801/365 440/799/365
f 442/802/366 441/800/366 443/803/366
f 442/802/366 363/798/366 441/800/366
f 282/804/367 443/803/367 444/805/367
f 282/804/367 442/802/367 443/803/367
f 287/487/368 292/806/368 437/807/368
f 287/487/368 288/490/368 292/806/368
f 289/491/369 437/807/369 438/808/369
f 289/491/369 287/487/369 437/807/369
f 290/494/370 438/808/370 439/809/370
f 290/494/370 289/491/370 438/808/370
f 445/810/6 312/811/6 311/812/6
f 446/813/6 447/814/6 445/810/6
f 448/815/6 447/814/6 446/813/6
f 449/816/6 450/817/6 448/815/6
f 451/818/6 450/817/6 449/816/6
f 304/819/6 450/817/6 451/818/6
f 302/820/6 304/819/6 451/818/6
f 447/814/6 312/811/6 445/810/6
f 450/817/6 447/814/6 448/815/6
f 452/821/371 312/822/371 447/823/371
f 452/821/371 313/824/371 312/822/371
f 453/825/1 447/823/1 450/826/1
f 453/825/1 452/821/1 447/823/1
f 305/827/372 450/826/372 304/828/372
f 305/827/372 453/825/372 450/826/372
f 408/829/373 220/830/373 454/831/373
f 408/829/374 310/832/374 220/830/374
f 410/833/375 408/829/375 454/831/375
f 355/834/376 454/831/376 455/835/376
f 355/834/377 410/833/377 454/831/377
f 353/836/378 355/834/378 455/835/378
f 357/837/379 455/835/379 205/838/379
f 357/837/380 353/836/380 455/835/380
f 303/839/381 357/837/381 205/838/381
f 308/840/382 313/824/382 452/821/382
f 308/840/382 307/841/382 313/824/382
f 309/842/383 452/821/383 453/825/383
f 309/842/383 308/840/383 452/821/383
f 306/843/384 453/825/384 305/827/384
f 306/843/384 309/842/384 453/825/384
f 456/844/6 457/845/6 458/846/6
f 456/844/6 458/846/6 459/847/6
f 460/848/6 457/845/6 456/844/6
f 461/849/6 460/848/6 456/844/6
f 462/850/6 463/851/6 460/848/6
f 462/850/6 460/848/6 461/849/6
f 464/852/173 458/853/173 457/854/173
f 464/852/173 328/855/173 458/853/173
f 465/856/163 457/857/163 460/858/163
f 465/856/163 464/859/163 457/857/163
f 315/860/174 460/858/174 463/861/174
f 315/860/174 465/856/174 460/858/174
f 402/862/385 236/863/385 466/864/385
f 402/862/385 327/865/385 236/863/385
f 404/866/386 466/864/386 467/867/386
f 404/866/386 402/862/386 466/864/386
f 316/868/387 467/867/387 216/869/387
f 316/868/387 404/866/387 467/867/387
f 325/562/388 328/870/388 464/871/388
f 325/562/388 324/559/388 328/870/388
f 326/563/389 464/871/389 465/872/389
f 326/563/389 325/562/389 464/871/389
f 320/565/390 465/872/390 315/873/390
f 320/565/390 326/563/390 465/872/390
f 386/874/6 295/875/6 361/876/6
f 386/874/6 361/876/6 451/818/6
f 386/874/6 395/877/6 252/878/6
f 386/874/6 252/878/6 387/879/6
f 386/874/6 397/880/6 395/877/6
f 386/874/6 451/818/6 397/880/6
f 367/881/6 366/882/6 295/875/6
f 331/883/6 468/884/6 469/885/6
f 331/883/6 319/886/6 468/884/6
f 405/887/6 319/886/6 331/883/6
f 369/888/6 368/889/6 367/881/6
f 406/890/6 331/883/6 400/891/6
f 406/890/6 405/887/6 331/883/6
f 383/892/6 367/881/6 295/875/6
f 383/892/6 295/875/6 386/874/6
f 383/892/6 385/893/6 384/894/6
f 383/892/6 386/874/6 385/893/6
f 311/812/6 407/895/6 406/890/6
f 311/812/6 406/890/6 400/891/6
f 397/880/6 399/896/6 398/897/6
f 381/898/6 383/892/6 382/899/6
f 397/880/6 400/891/6 399/896/6
f 397/880/6 311/812/6 400/891/6
f 372/900/6 370/901/6 369/888/6
f 372/900/6 371/902/6 370/901/6
f 448/815/6 445/810/6 311/812/6
f 448/815/6 446/813/6 445/810/6
f 374/903/6 373/904/6 372/900/6
f 270/608/6 380/905/6 379/906/6
f 270/608/6 381/898/6 380/905/6
f 270/608/6 372/900/6 369/888/6
f 451/818/6 449/816/6 448/815/6
f 270/608/6 369/888/6 367/881/6
f 270/608/6 367/881/6 383/892/6
f 270/608/6 383/892/6 381/898/6
f 451/818/6 311/812/6 397/880/6
f 270/608/6 374/903/6 372/900/6
f 451/818/6 448/815/6 311/812/6
f 246/612/6 270/608/6 379/906/6
f 395/877/6 397/880/6 396/907/6
f 352/611/6 270/608/6 246/612/6
f 350/609/6 270/608/6 352/611/6
f 359/908/6 302/820/6 451/818/6
f 393/909/6 395/877/6 394/910/6
f 361/876/6 359/908/6 451/818/6
f 361/876/6 360/911/6 359/908/6
f 470/912/6 471/913/6 295/875/6
f 252/878/6 395/877/6 393/909/6
f 252/878/6 472/914/6 473/915/6
f 252/878/6 336/916/6 472/914/6
f 252/878/6 392/917/6 336/916/6
f 252/878/6 393/909/6 392/917/6
f 284/918/6 470/912/6 295/875/6
f 366/882/6 284/918/6 295/875/6
f 474/919/391 475/920/391 354/615/391
f 474/919/391 354/615/391 356/617/391
f 476/921/392 356/617/392 358/619/392
f 476/921/393 358/619/393 298/506/393
f 476/921/392 474/919/392 356/617/392
f 206/508/393 476/921/393 298/506/393
f 477/922/394 293/513/394 362/923/394
f 477/922/394 210/371/394 293/513/394
f 478/924/395 362/923/395 364/925/395
f 478/924/396 364/925/396 271/466/396
f 478/924/397 477/922/397 362/923/397
f 195/352/398 478/924/398 271/466/398
f 479/926/399 268/476/399 375/927/399
f 479/926/400 186/336/400 268/476/400
f 480/928/401 375/927/401 377/929/401
f 480/928/402 377/929/402 244/437/402
f 480/928/403 479/926/403 375/927/403
f 179/325/402 480/928/402 244/437/402
f 481/930/404 250/447/404 388/931/404
f 481/930/404 169/307/404 250/447/404
f 482/932/405 388/931/405 390/933/405
f 482/932/406 481/930/406 388/931/406
f 228/393/407 390/933/407 334/587/407
f 228/393/408 482/932/408 390/933/408
f 483/934/409 329/597/409 401/935/409
f 483/934/410 237/410/410 329/597/410
f 484/936/411 401/935/411 403/937/411
f 484/936/412 483/934/412 401/935/412
f 217/378/413 403/937/413 317/550/413
f 217/378/414 484/936/414 403/937/414
f 485/938/415 314/558/415 409/729/415
f 485/938/415 221/557/415 314/558/415
f 486/939/416 409/729/416 411/731/416
f 486/939/416 485/938/416 409/729/416
f 475/920/417 411/731/417 354/615/417
f 475/920/417 486/939/417 411/731/417
f 415/940/3 179/325/3 178/324/3
f 415/940/3 480/928/3 179/325/3
f 414/941/3 480/928/3 415/940/3
f 479/926/3 480/928/3 414/941/3
f 185/335/3 479/926/3 414/941/3
f 186/336/3 479/926/3 185/335/3
f 427/942/3 481/930/3 482/932/3
f 428/943/3 482/932/3 228/393/3
f 428/943/3 427/942/3 482/932/3
f 227/392/3 428/943/3 228/393/3
f 170/308/3 169/307/3 481/930/3
f 170/308/3 481/930/3 427/942/3
f 477/922/3 487/944/3 209/370/3
f 477/922/3 209/370/3 210/371/3
f 478/924/3 488/945/3 487/944/3
f 478/924/3 194/351/3 488/945/3
f 478/924/3 195/352/3 194/351/3
f 478/924/3 487/944/3 477/922/3
f 485/946/3 220/385/3 221/386/3
f 486/947/3 454/948/3 485/946/3
f 475/949/3 454/948/3 486/947/3
f 474/950/3 455/951/3 475/949/3
f 476/952/3 455/951/3 474/950/3
f 206/365/3 205/364/3 476/952/3
f 454/948/3 220/385/3 485/946/3
f 455/951/3 454/948/3 475/949/3
f 205/364/3 455/951/3 476/952/3
f 483/934/3 236/409/3 237/410/3
f 466/953/3 236/409/3 483/934/3
f 484/936/3 467/954/3 466/953/3
f 484/936/3 466/953/3 483/934/3
f 217/378/3 216/377/3 467/954/3
f 217/378/3 467/954/3 484/936/3
