# Blender v2.82 (sub 7) OBJ File: ''
# www.blender.org
mtllib collider_resize.mtl
o Cylinder001
v 2.486305 0.062598 -0.261321
v 2.500000 0.062598 0.000000
v 2.500000 0.000000 0.000000
v 2.486305 0.000000 -0.261321
v 2.445369 0.062598 -0.519779
v 2.445369 0.000000 -0.519779
v 2.377641 0.062598 -0.772542
v 2.377641 0.000000 -0.772542
v 2.283864 0.062598 -1.016842
v 2.283864 0.000000 -1.016842
v 2.165064 0.062598 -1.250000
v 2.165064 0.000000 -1.250000
v 2.022543 0.062598 -1.469463
v 2.022543 0.000000 -1.469463
v 1.857862 0.062598 -1.672827
v 1.857862 0.000000 -1.672827
v 1.672827 0.062598 -1.857862
v 1.672827 0.000000 -1.857862
v 1.469463 0.062598 -2.022543
v 1.469463 0.000000 -2.022543
v 1.250000 0.062598 -2.165064
v 1.250000 0.000000 -2.165064
v 1.016842 0.062598 -2.283864
v 1.016842 0.000000 -2.283864
v 0.772542 0.062598 -2.377641
v 0.772542 0.000000 -2.377641
v 0.519779 0.062598 -2.445369
v 0.519779 0.000000 -2.445369
v 0.261321 0.062598 -2.486305
v 0.261321 0.000000 -2.486305
v 0.000000 0.062598 -2.500000
v 0.000000 0.000000 -2.500000
v -0.261321 0.062598 -2.486305
v -0.261321 0.000000 -2.486305
v -0.519779 0.062598 -2.445369
v -0.519779 0.000000 -2.445369
v -0.772542 0.062598 -2.377641
v -0.772542 0.000000 -2.377641
v -1.016842 0.062598 -2.283864
v -1.016842 0.000000 -2.283864
v -1.250000 0.062598 -2.165064
v -1.250000 0.000000 -2.165064
v -1.469463 0.062598 -2.022543
v -1.469463 0.000000 -2.022543
v -1.672827 0.062598 -1.857862
v -1.672827 0.000000 -1.857862
v -1.857862 0.062598 -1.672827
v -1.857862 0.000000 -1.672827
v -2.022543 0.062598 -1.469463
v -2.022543 0.000000 -1.469463
v -2.165064 0.062598 -1.250000
v -2.165064 0.000000 -1.250000
v -2.283864 0.062598 -1.016842
v -2.283864 0.000000 -1.016842
v -2.377641 0.062598 -0.772542
v -2.377641 0.000000 -0.772542
v -2.445369 0.062598 -0.519779
v -2.445369 0.000000 -0.519779
v -2.486305 0.062598 -0.261321
v -2.486305 0.000000 -0.261321
v -2.500000 0.062598 0.000000
v -2.500000 0.000000 0.000000
v -2.486305 0.062598 0.261321
v -2.486305 0.000000 0.261321
v -2.445369 0.062598 0.519779
v -2.445369 0.000000 0.519779
v -2.377641 0.062598 0.772542
v -2.377641 0.000000 0.772542
v -2.283864 0.062598 1.016842
v -2.283864 0.000000 1.016842
v -2.165064 0.062598 1.250000
v -2.165064 0.000000 1.250000
v -2.022543 0.062598 1.469463
v -2.022543 0.000000 1.469463
v -1.857862 0.062598 1.672827
v -1.857862 0.000000 1.672827
v -1.672827 0.062598 1.857862
v -1.672827 0.000000 1.857862
v -1.469463 0.062598 2.022543
v -1.469463 0.000000 2.022543
v -1.250000 0.062598 2.165064
v -1.250000 0.000000 2.165064
v -1.016842 0.062598 2.283864
v -1.016842 0.000000 2.283864
v -0.772542 0.062598 2.377641
v -0.772542 0.000000 2.377641
v -0.519779 0.062598 2.445369
v -0.519779 0.000000 2.445369
v -0.261321 0.062598 2.486305
v -0.261321 0.000000 2.486305
v 0.000000 0.062598 2.500000
v 0.000000 0.000000 2.500000
v 0.261321 0.062598 2.486305
v 0.261321 0.000000 2.486305
v 0.519779 0.062598 2.445369
v 0.519779 0.000000 2.445369
v 0.772542 0.062598 2.377641
v 0.772542 0.000000 2.377641
v 1.016842 0.062598 2.283864
v 1.016842 0.000000 2.283864
v 1.250000 0.062598 2.165064
v 1.250000 0.000000 2.165064
v 1.469463 0.062598 2.022543
v 1.469463 0.000000 2.022543
v 1.672827 0.062598 1.857862
v 1.672827 0.000000 1.857862
v 1.857862 0.062598 1.672827
v 1.857862 0.000000 1.672827
v 2.022543 0.062598 1.469463
v 2.022543 0.000000 1.469463
v 2.165064 0.062598 1.250000
v 2.165064 0.000000 1.250000
v 2.283864 0.062598 1.016842
v 2.283864 0.000000 1.016842
v 2.377641 0.062598 0.772542
v 2.377641 0.000000 0.772542
v 2.445369 0.062598 0.519779
v 2.445369 0.000000 0.519779
v 2.486305 0.062598 0.261321
v 2.486305 0.000000 0.261321
vn 0.9986 0.0000 -0.0523
vn 0.9877 0.0000 -0.1564
vn 0.9659 0.0000 -0.2588
vn 0.9336 0.0000 -0.3584
vn 0.8910 0.0000 -0.4540
vn 0.8387 0.0000 -0.5446
vn 0.7771 0.0000 -0.6293
vn 0.7071 0.0000 -0.7071
vn 0.6293 0.0000 -0.7771
vn 0.5446 0.0000 -0.8387
vn 0.4540 0.0000 -0.8910
vn 0.3584 0.0000 -0.9336
vn 0.2588 0.0000 -0.9659
vn 0.1564 0.0000 -0.9877
vn 0.0523 0.0000 -0.9986
vn -0.0523 0.0000 -0.9986
vn -0.1564 0.0000 -0.9877
vn -0.2588 0.0000 -0.9659
vn -0.3584 0.0000 -0.9336
vn -0.4540 0.0000 -0.8910
vn -0.5446 0.0000 -0.8387
vn -0.6293 0.0000 -0.7771
vn -0.7071 0.0000 -0.7071
vn -0.7771 0.0000 -0.6293
vn -0.8387 0.0000 -0.5446
vn -0.8910 0.0000 -0.4540
vn -0.9336 0.0000 -0.3584
vn -0.9659 0.0000 -0.2588
vn -0.9877 0.0000 -0.1564
vn -0.9986 0.0000 -0.0523
vn -0.9986 0.0000 0.0523
vn -0.9877 0.0000 0.1564
vn -0.9659 0.0000 0.2588
vn -0.9336 0.0000 0.3584
vn -0.8910 0.0000 0.4540
vn -0.8387 0.0000 0.5446
vn -0.7771 0.0000 0.6293
vn -0.7071 0.0000 0.7071
vn -0.6293 0.0000 0.7771
vn -0.5446 0.0000 0.8387
vn -0.4540 0.0000 0.8910
vn -0.3584 0.0000 0.9336
vn -0.2588 0.0000 0.9659
vn -0.1564 0.0000 0.9877
vn -0.0523 0.0000 0.9986
vn 0.0523 0.0000 0.9986
vn 0.1564 0.0000 0.9877
vn 0.2588 0.0000 0.9659
vn 0.3584 0.0000 0.9336
vn 0.4540 0.0000 0.8910
vn 0.5446 0.0000 0.8387
vn 0.6293 0.0000 0.7771
vn 0.7071 0.0000 0.7071
vn 0.7771 0.0000 0.6293
vn 0.8387 0.0000 0.5446
vn 0.8910 0.0000 0.4540
vn 0.9336 0.0000 0.3584
vn 0.9659 0.0000 0.2588
vn 0.9877 0.0000 0.1564
vn 0.9986 0.0000 0.0523
vn 0.0000 1.0000 0.0000
vn 0.0000 -1.0000 0.0000
usemtl color_c4332b
s off
f 1//1 2//1 3//1
f 1//1 3//1 4//1
f 5//2 1//2 4//2
f 5//2 4//2 6//2
f 7//3 5//3 6//3
f 7//3 6//3 8//3
f 9//4 7//4 8//4
f 9//4 8//4 10//4
f 11//5 9//5 10//5
f 11//5 10//5 12//5
f 13//6 11//6 12//6
f 13//6 12//6 14//6
f 15//7 13//7 14//7
f 15//7 14//7 16//7
f 17//8 15//8 16//8
f 17//8 16//8 18//8
f 19//9 17//9 18//9
f 19//9 18//9 20//9
f 21//10 19//10 20//10
f 21//10 20//10 22//10
f 23//11 21//11 22//11
f 23//11 22//11 24//11
f 25//12 24//12 26//12
f 25//12 23//12 24//12
f 27//13 26//13 28//13
f 27//13 25//13 26//13
f 29//14 28//14 30//14
f 29//14 27//14 28//14
f 31//15 30//15 32//15
f 31//15 29//15 30//15
f 33//16 32//16 34//16
f 33//16 31//16 32//16
f 35//17 34//17 36//17
f 35//17 33//17 34//17
f 37//18 36//18 38//18
f 37//18 35//18 36//18
f 39//19 38//19 40//19
f 39//19 37//19 38//19
f 41//20 39//20 40//20
f 41//20 40//20 42//20
f 43//21 41//21 42//21
f 43//21 42//21 44//21
f 45//22 43//22 44//22
f 45//22 44//22 46//22
f 47//23 45//23 46//23
f 47//23 46//23 48//23
f 49//24 47//24 48//24
f 49//24 48//24 50//24
f 51//25 49//25 50//25
f 51//25 50//25 52//25
f 53//26 51//26 52//26
f 53//26 52//26 54//26
f 55//27 53//27 54//27
f 55//27 54//27 56//27
f 57//28 55//28 56//28
f 57//28 56//28 58//28
f 59//29 57//29 58//29
f 59//29 58//29 60//29
f 61//30 59//30 60//30
f 61//30 60//30 62//30
f 63//31 61//31 62//31
f 63//31 62//31 64//31
f 65//32 63//32 64//32
f 65//32 64//32 66//32
f 67//33 65//33 66//33
f 67//33 66//33 68//33
f 69//34 67//34 68//34
f 69//34 68//34 70//34
f 71//35 69//35 70//35
f 71//35 70//35 72//35
f 73//36 71//36 72//36
f 73//36 72//36 74//36
f 75//37 73//37 74//37
f 75//37 74//37 76//37
f 77//38 75//38 76//38
f 77//38 76//38 78//38
f 79//39 77//39 78//39
f 79//39 78//39 80//39
f 81//40 80//40 82//40
f 81//40 79//40 80//40
f 83//41 82//41 84//41
f 83//41 81//41 82//41
f 85//42 84//42 86//42
f 85//42 83//42 84//42
f 87//43 86//43 88//43
f 87//43 85//43 86//43
f 89//44 88//44 90//44
f 89//44 87//44 88//44
f 91//45 90//45 92//45
f 91//45 89//45 90//45
f 93//46 91//46 92//46
f 93//46 92//46 94//46
f 95//47 94//47 96//47
f 95//47 93//47 94//47
f 97//48 96//48 98//48
f 97//48 95//48 96//48
f 99//49 98//49 100//49
f 99//49 97//49 98//49
f 101//50 100//50 102//50
f 101//50 99//50 100//50
f 103//51 102//51 104//51
f 103//51 101//51 102//51
f 105//52 104//52 106//52
f 105//52 103//52 104//52
f 107//53 106//53 108//53
f 107//53 105//53 106//53
f 109//54 108//54 110//54
f 109//54 107//54 108//54
f 111//55 110//55 112//55
f 111//55 109//55 110//55
f 113//56 112//56 114//56
f 113//56 111//56 112//56
f 115//57 114//57 116//57
f 115//57 113//57 114//57
f 117//58 116//58 118//58
f 117//58 115//58 116//58
f 119//59 118//59 120//59
f 119//59 117//59 118//59
f 2//60 120//60 3//60
f 2//60 119//60 120//60
f 111//61 107//61 109//61
f 73//61 75//61 77//61
f 39//61 41//61 43//61
f 115//61 111//61 113//61
f 81//61 77//61 79//61
f 37//61 39//61 43//61
f 69//61 71//61 73//61
f 69//61 73//61 77//61
f 85//61 81//61 83//61
f 31//61 33//61 35//61
f 85//61 77//61 81//61
f 85//61 69//61 77//61
f 65//61 67//61 69//61
f 2//61 105//61 111//61
f 2//61 111//61 115//61
f 87//61 69//61 85//61
f 2//61 115//61 117//61
f 2//61 117//61 119//61
f 61//61 63//61 65//61
f 5//61 2//61 1//61
f 27//61 29//61 31//61
f 59//61 61//61 65//61
f 93//61 87//61 89//61
f 93//61 89//61 91//61
f 9//61 5//61 7//61
f 9//61 35//61 37//61
f 9//61 43//61 45//61
f 9//61 45//61 105//61
f 9//61 37//61 43//61
f 9//61 105//61 2//61
f 9//61 2//61 5//61
f 23//61 25//61 27//61
f 23//61 27//61 31//61
f 23//61 31//61 35//61
f 55//61 57//61 59//61
f 19//61 21//61 23//61
f 55//61 65//61 69//61
f 55//61 59//61 65//61
f 15//61 9//61 11//61
f 99//61 55//61 69//61
f 15//61 11//61 13//61
f 99//61 93//61 95//61
f 99//61 95//61 97//61
f 99//61 87//61 93//61
f 99//61 69//61 87//61
f 53//61 55//61 99//61
f 17//61 23//61 35//61
f 17//61 35//61 9//61
f 17//61 19//61 23//61
f 17//61 9//61 15//61
f 103//61 99//61 101//61
f 49//61 53//61 99//61
f 49//61 51//61 53//61
f 45//61 49//61 99//61
f 45//61 99//61 103//61
f 45//61 47//61 49//61
f 45//61 103//61 105//61
f 111//61 105//61 107//61
f 108//62 112//62 110//62
f 76//62 74//62 78//62
f 42//62 40//62 44//62
f 112//62 116//62 114//62
f 78//62 82//62 80//62
f 40//62 38//62 44//62
f 72//62 70//62 74//62
f 74//62 70//62 78//62
f 82//62 86//62 84//62
f 34//62 32//62 36//62
f 78//62 86//62 82//62
f 70//62 86//62 78//62
f 68//62 66//62 70//62
f 106//62 3//62 112//62
f 112//62 3//62 116//62
f 70//62 88//62 86//62
f 116//62 3//62 118//62
f 118//62 3//62 120//62
f 64//62 62//62 66//62
f 3//62 6//62 4//62
f 30//62 28//62 32//62
f 62//62 60//62 66//62
f 88//62 94//62 90//62
f 90//62 94//62 92//62
f 6//62 10//62 8//62
f 36//62 10//62 38//62
f 44//62 10//62 46//62
f 46//62 10//62 106//62
f 38//62 10//62 44//62
f 106//62 10//62 3//62
f 3//62 10//62 6//62
f 26//62 24//62 28//62
f 28//62 24//62 32//62
f 32//62 24//62 36//62
f 58//62 56//62 60//62
f 22//62 20//62 24//62
f 66//62 56//62 70//62
f 60//62 56//62 66//62
f 10//62 16//62 12//62
f 56//62 100//62 70//62
f 12//62 16//62 14//62
f 94//62 100//62 96//62
f 96//62 100//62 98//62
f 88//62 100//62 94//62
f 70//62 100//62 88//62
f 56//62 54//62 100//62
f 24//62 18//62 36//62
f 36//62 18//62 10//62
f 20//62 18//62 24//62
f 10//62 18//62 16//62
f 100//62 104//62 102//62
f 54//62 50//62 100//62
f 52//62 50//62 54//62
f 50//62 46//62 100//62
f 100//62 46//62 104//62
f 48//62 46//62 50//62
f 104//62 46//62 106//62
f 106//62 112//62 108//62
