# Blender v2.82 (sub 7) OBJ File: ''
# www.blender.org
mtllib collision_resize.mtl
o Cylinder001
v 1.740725 0.050000 -0.179937
v 1.750000 0.050000 0.000000
v 1.750000 0.000000 0.000000
v 1.740725 0.000000 -0.179937
v 1.712997 0.050000 -0.357966
v 1.712997 0.000000 -0.357966
v 1.667112 0.050000 -0.532201
v 1.667112 0.000000 -0.532201
v 1.603555 0.050000 -0.700794
v 1.603555 0.000000 -0.700794
v 1.522999 0.050000 -0.861959
v 1.522999 0.000000 -0.861959
v 1.426300 0.050000 -1.013987
v 1.426300 0.000000 -1.013987
v 1.314481 0.050000 -1.155266
v 1.314481 0.000000 -1.155266
v 1.188728 0.050000 -1.284299
v 1.188728 0.000000 -1.284299
v 1.050375 0.050000 -1.399719
v 1.050375 0.000000 -1.399719
v 0.900887 0.050000 -1.500301
v 0.900887 0.000000 -1.500301
v 0.741850 0.050000 -1.584979
v 0.741850 0.000000 -1.584979
v 0.574949 0.050000 -1.652856
v 0.574949 0.000000 -1.652856
v 0.401954 0.050000 -1.703213
v 0.401954 0.000000 -1.703213
v 0.224697 0.050000 -1.735515
v 0.224697 0.000000 -1.735515
v 0.045059 0.050000 -1.749420
v 0.045059 0.000000 -1.749420
v -0.135057 0.050000 -1.744781
v -0.135057 0.000000 -1.744781
v -0.313741 0.050000 -1.721646
v -0.313741 0.000000 -1.721646
v -0.489100 0.050000 -1.680262
v -0.489100 0.000000 -1.680262
v -0.659274 0.050000 -1.621067
v -0.659274 0.000000 -1.621067
v -0.822459 0.050000 -1.544688
v -0.822459 0.000000 -1.544688
v -0.976927 0.050000 -1.451935
v -0.976927 0.000000 -1.451935
v -1.121038 0.050000 -1.343791
v -1.121038 0.000000 -1.343791
v -1.253266 0.050000 -1.221402
v -1.253266 0.000000 -1.221402
v -1.372210 0.050000 -1.086067
v -1.372210 0.000000 -1.086067
v -1.476607 0.050000 -0.939218
v -1.476607 0.000000 -0.939218
v -1.565352 0.050000 -0.782414
v -1.565352 0.000000 -0.782414
v -1.637504 0.050000 -0.617316
v -1.637504 0.000000 -0.617316
v -1.692299 0.050000 -0.445675
v -1.692299 0.000000 -0.445675
v -1.729154 0.050000 -0.269309
v -1.729154 0.000000 -0.269309
v -1.747680 0.050000 -0.090088
v -1.747680 0.000000 -0.090088
v -1.747680 0.050000 0.090088
v -1.747680 0.000000 0.090088
v -1.729154 0.050000 0.269309
v -1.729154 0.000000 0.269309
v -1.692299 0.050000 0.445675
v -1.692299 0.000000 0.445675
v -1.637504 0.050000 0.617316
v -1.637504 0.000000 0.617316
v -1.565352 0.050000 0.782414
v -1.565352 0.000000 0.782414
v -1.476607 0.050000 0.939218
v -1.476607 0.000000 0.939218
v -1.372210 0.050000 1.086067
v -1.372210 0.000000 1.086067
v -1.253266 0.050000 1.221402
v -1.253266 0.000000 1.221402
v -1.121038 0.050000 1.343791
v -1.121038 0.000000 1.343791
v -0.976927 0.050000 1.451935
v -0.976927 0.000000 1.451935
v -0.822459 0.050000 1.544688
v -0.822459 0.000000 1.544688
v -0.659274 0.050000 1.621067
v -0.659274 0.000000 1.621067
v -0.489100 0.050000 1.680262
v -0.489100 0.000000 1.680262
v -0.313741 0.050000 1.721646
v -0.313741 0.000000 1.721646
v -0.135057 0.050000 1.744781
v -0.135057 0.000000 1.744781
v 0.045059 0.050000 1.749420
v 0.045059 0.000000 1.749420
v 0.224697 0.050000 1.735515
v 0.224697 0.000000 1.735515
v 0.401954 0.050000 1.703213
v 0.401954 0.000000 1.703213
v 0.574949 0.050000 1.652856
v 0.574949 0.000000 1.652856
v 0.741850 0.050000 1.584979
v 0.741850 0.000000 1.584979
v 0.900887 0.050000 1.500301
v 0.900887 0.000000 1.500301
v 1.050375 0.050000 1.399719
v 1.050375 0.000000 1.399719
v 1.188728 0.050000 1.284299
v 1.188728 0.000000 1.284299
v 1.314481 0.050000 1.155266
v 1.314481 0.000000 1.155266
v 1.426300 0.050000 1.013987
v 1.426300 0.000000 1.013987
v 1.522999 0.050000 0.861959
v 1.522999 0.000000 0.861959
v 1.603555 0.050000 0.700794
v 1.603555 0.000000 0.700794
v 1.667112 0.050000 0.532201
v 1.667112 0.000000 0.532201
v 1.712997 0.050000 0.357966
v 1.712997 0.000000 0.357966
v 1.740725 0.050000 0.179937
v 1.740725 0.000000 0.179937
vn 0.9987 0.0000 -0.0515
vn 0.9881 0.0000 -0.1539
vn 0.9670 0.0000 -0.2547
vn 0.9357 0.0000 -0.3528
vn 0.8945 0.0000 -0.4471
vn 0.8438 0.0000 -0.5367
vn 0.7841 0.0000 -0.6206
vn 0.7162 0.0000 -0.6979
vn 0.6406 0.0000 -0.7679
vn 0.5582 0.0000 -0.8297
vn 0.4700 0.0000 -0.8827
vn 0.3767 0.0000 -0.9263
vn 0.2795 0.0000 -0.9602
vn 0.1793 0.0000 -0.9838
vn 0.0772 0.0000 -0.9970
vn -0.0257 0.0000 -0.9997
vn -0.1284 0.0000 -0.9917
vn -0.2297 0.0000 -0.9733
vn -0.3285 0.0000 -0.9445
vn -0.4239 0.0000 -0.9057
vn -0.5148 0.0000 -0.8573
vn -0.6002 0.0000 -0.7998
vn -0.6793 0.0000 -0.7339
vn -0.7511 0.0000 -0.6602
vn -0.8150 0.0000 -0.5794
vn -0.8703 0.0000 -0.4925
vn -0.9163 0.0000 -0.4005
vn -0.9526 0.0000 -0.3041
vn -0.9789 0.0000 -0.2046
vn -0.9947 0.0000 -0.1028
vn -1.0000 0.0000 0.0000
vn -0.9947 0.0000 0.1028
vn -0.9789 0.0000 0.2046
vn -0.9526 0.0000 0.3041
vn -0.9163 0.0000 0.4005
vn -0.8703 0.0000 0.4925
vn -0.8150 0.0000 0.5794
vn -0.7511 0.0000 0.6602
vn -0.6793 0.0000 0.7339
vn -0.6002 0.0000 0.7998
vn -0.5148 0.0000 0.8573
vn -0.4239 0.0000 0.9057
vn -0.3285 0.0000 0.9445
vn -0.2297 0.0000 0.9733
vn -0.1284 0.0000 0.9917
vn -0.0257 0.0000 0.9997
vn 0.0772 0.0000 0.9970
vn 0.1793 0.0000 0.9838
vn 0.2795 0.0000 0.9602
vn 0.3767 0.0000 0.9263
vn 0.4700 0.0000 0.8827
vn 0.5582 0.0000 0.8297
vn 0.6406 0.0000 0.7679
vn 0.7162 0.0000 0.6979
vn 0.7841 0.0000 0.6206
vn 0.8438 0.0000 0.5367
vn 0.8945 0.0000 0.4471
vn 0.9357 0.0000 0.3528
vn 0.9670 0.0000 0.2547
vn 0.9881 0.0000 0.1539
vn 0.9987 0.0000 0.0515
vn 0.0000 1.0000 0.0000
vn 0.0000 -1.0000 0.0000
usemtl color_cccccc.002
s off
f 1//1 2//1 3//1
f 1//1 3//1 4//1
f 5//2 1//2 4//2
f 5//2 4//2 6//2
f 7//3 5//3 6//3
f 7//3 6//3 8//3
f 9//4 7//4 8//4
f 9//4 8//4 10//4
f 11//5 9//5 10//5
f 11//5 10//5 12//5
f 13//6 11//6 12//6
f 13//6 12//6 14//6
f 15//7 13//7 14//7
f 15//7 14//7 16//7
f 17//8 15//8 16//8
f 17//8 16//8 18//8
f 19//9 17//9 18//9
f 19//9 18//9 20//9
f 21//10 19//10 20//10
f 21//10 20//10 22//10
f 23//11 22//11 24//11
f 23//11 21//11 22//11
f 25//12 24//12 26//12
f 25//12 23//12 24//12
f 27//13 26//13 28//13
f 27//13 25//13 26//13
f 29//14 28//14 30//14
f 29//14 27//14 28//14
f 31//15 30//15 32//15
f 31//15 29//15 30//15
f 33//16 32//16 34//16
f 33//16 31//16 32//16
f 35//17 34//17 36//17
f 35//17 33//17 34//17
f 37//18 36//18 38//18
f 37//18 35//18 36//18
f 39//19 37//19 38//19
f 39//19 38//19 40//19
f 41//20 39//20 40//20
f 41//20 40//20 42//20
f 43//21 41//21 42//21
f 43//21 42//21 44//21
f 45//22 43//22 44//22
f 45//22 44//22 46//22
f 47//23 45//23 46//23
f 47//23 46//23 48//23
f 49//24 47//24 48//24
f 49//24 48//24 50//24
f 51//25 49//25 50//25
f 51//25 50//25 52//25
f 53//26 51//26 52//26
f 53//26 52//26 54//26
f 55//27 53//27 54//27
f 55//27 54//27 56//27
f 57//28 55//28 56//28
f 57//28 56//28 58//28
f 59//29 57//29 58//29
f 59//29 58//29 60//29
f 61//30 59//30 60//30
f 61//30 60//30 62//30
f 63//31 61//31 62//31
f 63//31 62//31 64//31
f 65//32 63//32 64//32
f 65//32 64//32 66//32
f 67//33 65//33 66//33
f 67//33 66//33 68//33
f 69//34 67//34 68//34
f 69//34 68//34 70//34
f 71//35 69//35 70//35
f 71//35 70//35 72//35
f 73//36 71//36 72//36
f 73//36 72//36 74//36
f 75//37 73//37 74//37
f 75//37 74//37 76//37
f 77//38 75//38 76//38
f 77//38 76//38 78//38
f 79//39 78//39 80//39
f 79//39 77//39 78//39
f 81//40 80//40 82//40
f 81//40 79//40 80//40
f 83//41 82//41 84//41
f 83//41 81//41 82//41
f 85//42 84//42 86//42
f 85//42 83//42 84//42
f 87//43 86//43 88//43
f 87//43 85//43 86//43
f 89//44 87//44 88//44
f 89//44 88//44 90//44
f 91//45 90//45 92//45
f 91//45 89//45 90//45
f 93//46 91//46 92//46
f 93//46 92//46 94//46
f 95//47 94//47 96//47
f 95//47 93//47 94//47
f 97//48 96//48 98//48
f 97//48 95//48 96//48
f 99//49 98//49 100//49
f 99//49 97//49 98//49
f 101//50 100//50 102//50
f 101//50 99//50 100//50
f 103//51 102//51 104//51
f 103//51 101//51 102//51
f 105//52 104//52 106//52
f 105//52 103//52 104//52
f 107//53 106//53 108//53
f 107//53 105//53 106//53
f 109//54 108//54 110//54
f 109//54 107//54 108//54
f 111//55 110//55 112//55
f 111//55 109//55 110//55
f 113//56 112//56 114//56
f 113//56 111//56 112//56
f 115//57 114//57 116//57
f 115//57 113//57 114//57
f 117//58 116//58 118//58
f 117//58 115//58 116//58
f 119//59 118//59 120//59
f 119//59 117//59 118//59
f 121//60 120//60 122//60
f 121//60 119//60 120//60
f 2//61 122//61 3//61
f 2//61 121//61 122//61
f 43//62 47//62 51//62
f 43//62 45//62 47//62
f 81//62 75//62 77//62
f 81//62 77//62 79//62
f 115//62 111//62 113//62
f 115//62 105//62 111//62
f 83//62 73//62 75//62
f 83//62 75//62 81//62
f 85//62 73//62 83//62
f 119//62 115//62 117//62
f 33//62 91//62 99//62
f 33//62 51//62 91//62
f 33//62 99//62 105//62
f 33//62 35//62 37//62
f 33//62 37//62 39//62
f 65//62 67//62 69//62
f 33//62 39//62 41//62
f 65//62 69//62 71//62
f 33//62 41//62 43//62
f 33//62 43//62 51//62
f 91//62 85//62 87//62
f 2//62 115//62 119//62
f 91//62 87//62 89//62
f 2//62 119//62 121//62
f 91//62 73//62 85//62
f 61//62 63//62 65//62
f 61//62 71//62 73//62
f 61//62 65//62 71//62
f 27//62 29//62 31//62
f 27//62 31//62 33//62
f 95//62 91//62 93//62
f 9//62 2//62 1//62
f 9//62 1//62 5//62
f 9//62 5//62 7//62
f 57//62 59//62 61//62
f 9//62 105//62 115//62
f 9//62 33//62 105//62
f 9//62 115//62 2//62
f 9//62 27//62 33//62
f 99//62 95//62 97//62
f 23//62 25//62 27//62
f 99//62 91//62 95//62
f 21//62 23//62 27//62
f 21//62 27//62 9//62
f 13//62 9//62 11//62
f 53//62 57//62 61//62
f 13//62 21//62 9//62
f 53//62 55//62 57//62
f 15//62 21//62 13//62
f 17//62 19//62 21//62
f 17//62 21//62 15//62
f 51//62 53//62 61//62
f 51//62 73//62 91//62
f 51//62 61//62 73//62
f 105//62 99//62 101//62
f 105//62 101//62 103//62
f 47//62 49//62 51//62
f 109//62 105//62 107//62
f 111//62 105//62 109//62
f 48//63 44//63 52//63
f 46//63 44//63 48//63
f 76//63 82//63 78//63
f 78//63 82//63 80//63
f 112//63 116//63 114//63
f 106//63 116//63 112//63
f 74//63 84//63 76//63
f 76//63 84//63 82//63
f 74//63 86//63 84//63
f 116//63 120//63 118//63
f 92//63 34//63 100//63
f 52//63 34//63 92//63
f 100//63 34//63 106//63
f 36//63 34//63 38//63
f 38//63 34//63 40//63
f 68//63 66//63 70//63
f 40//63 34//63 42//63
f 70//63 66//63 72//63
f 42//63 34//63 44//63
f 44//63 34//63 52//63
f 86//63 92//63 88//63
f 116//63 3//63 120//63
f 88//63 92//63 90//63
f 120//63 3//63 122//63
f 74//63 92//63 86//63
f 64//63 62//63 66//63
f 72//63 62//63 74//63
f 66//63 62//63 72//63
f 30//63 28//63 32//63
f 32//63 28//63 34//63
f 92//63 96//63 94//63
f 3//63 10//63 4//63
f 4//63 10//63 6//63
f 6//63 10//63 8//63
f 60//63 58//63 62//63
f 106//63 10//63 116//63
f 34//63 10//63 106//63
f 116//63 10//63 3//63
f 28//63 10//63 34//63
f 96//63 100//63 98//63
f 26//63 24//63 28//63
f 92//63 100//63 96//63
f 24//63 22//63 28//63
f 28//63 22//63 10//63
f 10//63 14//63 12//63
f 58//63 54//63 62//63
f 22//63 14//63 10//63
f 56//63 54//63 58//63
f 22//63 16//63 14//63
f 20//63 18//63 22//63
f 22//63 18//63 16//63
f 54//63 52//63 62//63
f 74//63 52//63 92//63
f 62//63 52//63 74//63
f 100//63 106//63 102//63
f 102//63 106//63 104//63
f 50//63 48//63 52//63
f 106//63 110//63 108//63
f 106//63 112//63 110//63
