# Blender 4.3.2
# www.blender.org
mtllib Base.mtl
o Cylinder
v 0.000000 0.001200 -0.780952
v 0.000000 0.045733 -0.780952
v 0.152356 0.001200 -0.765946
v 0.152356 0.045733 -0.765946
v 0.298857 0.001200 -0.721505
v 0.298857 0.045733 -0.721505
v 0.433874 0.001200 -0.649338
v 0.433874 0.045733 -0.649338
v 0.552216 0.001200 -0.552216
v 0.552216 0.045733 -0.552216
v 0.649338 0.001200 -0.433874
v 0.649338 0.045733 -0.433874
v 0.721505 0.001200 -0.298857
v 0.721505 0.045733 -0.298857
v 0.765946 0.001200 -0.152356
v 0.765946 0.045733 -0.152356
v 0.780952 0.001200 0.000000
v 0.780952 0.045733 0.000000
v 0.765946 0.001200 0.152356
v 0.765946 0.045733 0.152356
v 0.721505 0.001200 0.298857
v 0.721505 0.045733 0.298857
v 0.649338 0.001200 0.433874
v 0.649338 0.045733 0.433874
v 0.552216 0.001200 0.552216
v 0.552216 0.045733 0.552216
v 0.433874 0.001200 0.649338
v 0.433874 0.045733 0.649338
v 0.298857 0.001200 0.721505
v 0.298857 0.045733 0.721505
v 0.152356 0.001200 0.765946
v 0.152356 0.045733 0.765946
v 0.000000 0.001200 0.780952
v 0.000000 0.045733 0.780952
v -0.152356 0.001200 0.765946
v -0.152356 0.045733 0.765946
v -0.298857 0.001200 0.721505
v -0.298857 0.045733 0.721505
v -0.433874 0.001200 0.649338
v -0.433874 0.045733 0.649338
v -0.552216 0.001200 0.552216
v -0.552216 0.045733 0.552216
v -0.649338 0.001200 0.433874
v -0.649338 0.045733 0.433874
v -0.721505 0.001200 0.298857
v -0.721505 0.045733 0.298857
v -0.765946 0.001200 0.152356
v -0.765946 0.045733 0.152356
v -0.780952 0.001200 0.000000
v -0.780952 0.045733 0.000000
v -0.765946 0.001200 -0.152356
v -0.765946 0.045733 -0.152356
v -0.721505 0.001200 -0.298857
v -0.721505 0.045733 -0.298857
v -0.649338 0.001200 -0.433874
v -0.649338 0.045733 -0.433874
v -0.552216 0.001200 -0.552216
v -0.552216 0.045733 -0.552216
v -0.433874 0.001200 -0.649338
v -0.433874 0.045733 -0.649338
v -0.298857 0.001200 -0.721505
v -0.298857 0.045733 -0.721505
v -0.152356 0.001200 -0.765946
v -0.152356 0.045733 -0.765946
vn 0.0980 -0.0000 -0.9952
vn 0.2903 -0.0000 -0.9569
vn 0.4714 -0.0000 -0.8819
vn 0.6344 -0.0000 -0.7730
vn 0.7730 -0.0000 -0.6344
vn 0.8819 -0.0000 -0.4714
vn 0.9569 -0.0000 -0.2903
vn 0.9952 -0.0000 -0.0980
vn 0.9952 -0.0000 0.0980
vn 0.9569 -0.0000 0.2903
vn 0.8819 -0.0000 0.4714
vn 0.7730 -0.0000 0.6344
vn 0.6344 -0.0000 0.7730
vn 0.4714 -0.0000 0.8819
vn 0.2903 -0.0000 0.9569
vn 0.0980 -0.0000 0.9952
vn -0.0980 -0.0000 0.9952
vn -0.2903 -0.0000 0.9569
vn -0.4714 -0.0000 0.8819
vn -0.6344 -0.0000 0.7730
vn -0.7730 -0.0000 0.6344
vn -0.8819 -0.0000 0.4714
vn -0.9569 -0.0000 0.2903
vn -0.9952 -0.0000 0.0980
vn -0.9952 -0.0000 -0.0980
vn -0.9569 -0.0000 -0.2903
vn -0.8819 -0.0000 -0.4714
vn -0.7730 -0.0000 -0.6344
vn -0.6344 -0.0000 -0.7730
vn -0.4714 -0.0000 -0.8819
vn -0.0000 1.0000 -0.0000
vn -0.2903 -0.0000 -0.9569
vn -0.0980 -0.0000 -0.9952
vn -0.0000 -1.0000 -0.0000
vt 0.793381 0.044518
vt 0.845029 0.040939
vt 0.845029 0.044518
vt 0.845029 0.080863
vt 0.896677 0.077283
vt 0.896677 0.080863
vt 0.845029 0.077283
vt 0.896677 0.073074
vt 0.845029 0.073074
vt 0.896677 0.068397
vt 0.845029 0.068397
vt 0.896677 0.063432
vt 0.845029 0.063432
vt 0.896677 0.058370
vt 0.845029 0.058370
vt 0.896677 0.053404
vt 0.845029 0.053404
vt 0.896677 0.048727
vt 0.845029 0.048727
vt 0.896677 0.044518
vt 0.793381 0.040939
vt 0.845029 0.036729
vt 0.793381 0.036729
vt 0.845029 0.032052
vt 0.793381 0.032052
vt 0.845029 0.027087
vt 0.793381 0.027087
vt 0.845029 0.022025
vt 0.793381 0.022025
vt 0.845029 0.017060
vt 0.793381 0.017060
vt 0.845029 0.012382
vt 0.793381 0.012382
vt 0.845029 0.008173
vt 0.896677 0.040309
vt 0.845029 0.040309
vt 0.896677 0.035632
vt 0.845029 0.035632
vt 0.896677 0.030667
vt 0.845029 0.030667
vt 0.896677 0.025604
vt 0.845029 0.025604
vt 0.896677 0.020639
vt 0.845029 0.020639
vt 0.896677 0.015962
vt 0.845029 0.015962
vt 0.896677 0.011753
vt 0.845029 0.011753
vt 0.896677 0.008173
vt 0.793381 0.080863
vt 0.793381 0.077283
vt 0.793381 0.073074
vt 0.793381 0.068397
vt 0.793381 0.063432
vt 0.793381 0.058370
vt 0.308011 0.043062
vt 0.956134 0.310788
vt 0.688408 0.958910
vt 0.793381 0.053404
vt 0.793381 0.048727
vt 0.390331 0.016653
vt 0.984454 0.389156
vt 0.611951 0.983278
vt 0.793381 0.008173
vt 0.595417 0.987217
vt 0.498690 0.996839
vt 0.401944 0.987405
vt 0.308899 0.959278
vt 0.223128 0.913539
vt 0.147928 0.851946
vt 0.086190 0.776866
vt 0.040285 0.691184
vt 0.011978 0.598193
vt 0.002357 0.501466
vt 0.011791 0.404721
vt 0.039918 0.311675
vt 0.085656 0.225904
vt 0.147249 0.150705
vt 0.222329 0.088966
vt 0.401003 0.014755
vt 0.687521 0.042694
vt 0.497729 0.005133
vt 0.594475 0.014567
vt 0.773291 0.088433
vt 0.848491 0.150026
vt 0.910229 0.225106
vt 0.984441 0.403779
vt 0.956501 0.690297
vt 0.994062 0.500506
vt 0.984628 0.597251
vt 0.910763 0.776068
vt 0.849170 0.851267
vt 0.774090 0.913006
vt 0.515532 0.995609
vt 0.418561 0.988893
vt 0.324762 0.963388
vt 0.237742 0.920074
vt 0.160844 0.860615
vt 0.097023 0.787296
vt 0.048733 0.702936
vt 0.017828 0.610775
vt 0.005497 0.514356
vt 0.012213 0.417385
vt 0.037719 0.323586
vt 0.081033 0.236566
vt 0.140492 0.159668
vt 0.213810 0.095848
vt 0.298171 0.047557
vt 0.486750 0.004321
vt 0.583722 0.011037
vt 0.677520 0.036543
vt 0.764540 0.079857
vt 0.841438 0.139316
vt 0.905259 0.212635
vt 0.953549 0.296995
vt 0.996785 0.485574
vt 0.990069 0.582546
vt 0.964564 0.676344
vt 0.921250 0.763365
vt 0.861791 0.840263
vt 0.788472 0.904083
vt 0.704112 0.952374
s 0
usemtl Material
f 2/1/1 3/2/1 1/3/1
f 4/4/2 5/5/2 3/6/2
f 6/7/3 7/8/3 5/5/3
f 8/9/4 9/10/4 7/8/4
f 10/11/5 11/12/5 9/10/5
f 12/13/6 13/14/6 11/12/6
f 14/15/7 15/16/7 13/14/7
f 16/17/8 17/18/8 15/16/8
f 18/19/9 19/20/9 17/18/9
f 20/21/10 21/22/10 19/2/10
f 22/23/11 23/24/11 21/22/11
f 24/25/12 25/26/12 23/24/12
f 26/27/13 27/28/13 25/26/13
f 28/29/14 29/30/14 27/28/14
f 30/31/15 31/32/15 29/30/15
f 32/33/16 33/34/16 31/32/16
f 34/3/17 35/35/17 33/20/17
f 36/36/18 37/37/18 35/35/18
f 38/38/19 39/39/19 37/37/19
f 40/40/20 41/41/20 39/39/20
f 42/42/21 43/43/21 41/41/21
f 44/44/22 45/45/22 43/43/22
f 46/46/23 47/47/23 45/45/23
f 48/48/24 49/49/24 47/47/24
f 50/50/25 51/7/25 49/4/25
f 52/51/26 53/9/26 51/7/26
f 54/52/27 55/11/27 53/9/27
f 56/53/28 57/13/28 55/11/28
f 58/54/29 59/15/29 57/13/29
f 60/55/30 61/17/30 59/15/30
f 38/56/31 22/57/31 6/58/31
f 62/59/32 63/19/32 61/17/32
f 64/60/33 1/3/33 63/19/33
f 31/61/34 47/62/34 63/63/34
f 2/1/1 4/21/1 3/2/1
f 4/4/2 6/7/2 5/5/2
f 6/7/3 8/9/3 7/8/3
f 8/9/4 10/11/4 9/10/4
f 10/11/5 12/13/5 11/12/5
f 12/13/6 14/15/6 13/14/6
f 14/15/7 16/17/7 15/16/7
f 16/17/8 18/19/8 17/18/8
f 18/19/9 20/3/9 19/20/9
f 20/21/10 22/23/10 21/22/10
f 22/23/11 24/25/11 23/24/11
f 24/25/12 26/27/12 25/26/12
f 26/27/13 28/29/13 27/28/13
f 28/29/14 30/31/14 29/30/14
f 30/31/15 32/33/15 31/32/15
f 32/33/16 34/64/16 33/34/16
f 34/3/17 36/36/17 35/35/17
f 36/36/18 38/38/18 37/37/18
f 38/38/19 40/40/19 39/39/19
f 40/40/20 42/42/20 41/41/20
f 42/42/21 44/44/21 43/43/21
f 44/44/22 46/46/22 45/45/22
f 46/46/23 48/48/23 47/47/23
f 48/48/24 50/34/24 49/49/24
f 50/50/25 52/51/25 51/7/25
f 52/51/26 54/52/26 53/9/26
f 54/52/27 56/53/27 55/11/27
f 56/53/28 58/54/28 57/13/28
f 58/54/29 60/55/29 59/15/29
f 60/55/30 62/59/30 61/17/30
f 6/58/31 4/65/31 2/66/31
f 2/66/31 64/67/31 6/58/31
f 64/67/31 62/68/31 6/58/31
f 62/68/31 60/69/31 58/70/31
f 58/70/31 56/71/31 54/72/31
f 54/72/31 52/73/31 50/74/31
f 50/74/31 48/75/31 54/72/31
f 48/75/31 46/76/31 54/72/31
f 46/76/31 44/77/31 42/78/31
f 42/78/31 40/79/31 38/56/31
f 38/56/31 36/80/31 30/81/31
f 36/80/31 34/82/31 30/81/31
f 34/82/31 32/83/31 30/81/31
f 30/81/31 28/84/31 26/85/31
f 26/85/31 24/86/31 22/57/31
f 22/57/31 20/87/31 14/88/31
f 20/87/31 18/89/31 14/88/31
f 18/89/31 16/90/31 14/88/31
f 14/88/31 12/91/31 10/92/31
f 10/92/31 8/93/31 6/58/31
f 62/68/31 58/70/31 6/58/31
f 58/70/31 54/72/31 6/58/31
f 46/76/31 42/78/31 54/72/31
f 42/78/31 38/56/31 54/72/31
f 30/81/31 26/85/31 38/56/31
f 26/85/31 22/57/31 38/56/31
f 14/88/31 10/92/31 22/57/31
f 10/92/31 6/58/31 22/57/31
f 6/58/31 54/72/31 38/56/31
f 62/59/32 64/60/32 63/19/32
f 64/60/33 2/1/33 1/3/33
f 63/63/34 1/94/34 3/95/34
f 3/95/34 5/96/34 7/97/34
f 7/97/34 9/98/34 11/99/34
f 11/99/34 13/100/34 15/101/34
f 15/101/34 17/102/34 19/103/34
f 19/103/34 21/104/34 23/105/34
f 23/105/34 25/106/34 27/107/34
f 27/107/34 29/108/34 31/61/34
f 31/61/34 33/109/34 35/110/34
f 35/110/34 37/111/34 39/112/34
f 39/112/34 41/113/34 43/114/34
f 43/114/34 45/115/34 47/62/34
f 47/62/34 49/116/34 51/117/34
f 51/117/34 53/118/34 55/119/34
f 55/119/34 57/120/34 59/121/34
f 59/121/34 61/122/34 63/63/34
f 63/63/34 3/95/34 15/101/34
f 3/95/34 7/97/34 15/101/34
f 7/97/34 11/99/34 15/101/34
f 15/101/34 19/103/34 31/61/34
f 19/103/34 23/105/34 31/61/34
f 23/105/34 27/107/34 31/61/34
f 31/61/34 35/110/34 47/62/34
f 35/110/34 39/112/34 47/62/34
f 39/112/34 43/114/34 47/62/34
f 47/62/34 51/117/34 63/63/34
f 51/117/34 55/119/34 63/63/34
f 55/119/34 59/121/34 63/63/34
f 63/63/34 15/101/34 31/61/34
