# Blender v2.79 (sub 0) OBJ File: 'escort6B2.blend'
# www.blender.org
mtllib escortCOLIDER.mtl
o Cube.004_Cube.003
v -0.119704 -0.241036 0.289492
v -0.119704 0.231136 0.289492
v -0.119704 -0.241036 -1.710508
v -0.119704 0.231136 -1.710508
v 0.216557 -0.241036 0.289492
v 0.216557 0.231136 0.289492
v 0.216557 -0.241036 -1.710508
v 0.216557 0.231136 -1.710508
vn -1.0000 0.0000 0.0000
vn 0.0000 0.0000 -1.0000
vn 1.0000 0.0000 0.0000
vn 0.0000 0.0000 1.0000
vn 0.0000 -1.0000 0.0000
vn 0.0000 1.0000 0.0000
usemtl None
s off
f 1//1 2//1 4//1 3//1
f 3//2 4//2 8//2 7//2
f 7//3 8//3 6//3 5//3
f 5//4 6//4 2//4 1//4
f 3//5 7//5 5//5 1//5
f 8//6 4//6 2//6 6//6
